<svg width="478" height="385" viewBox="0 0 478 385" fill="none" xmlns="http://www.w3.org/2000/svg">
<path d="M282.469 311.789L274.18 310.789V276.07L282.469 276.822V311.789Z" fill="#999999" stroke="#263238" stroke-linecap="round" stroke-linejoin="round"/>
<path d="M468.803 293.713L87.8257 259.188V61.7789L468.803 19.6855V293.713Z" fill="white" stroke="#263238" stroke-linecap="round" stroke-linejoin="round"/>
<path d="M472.056 19.3313L84.5516 62.1594C81.8785 62.4604 79.7026 61.2742 79.7026 59.424V56.4053C79.7026 54.6348 81.8785 52.8643 84.5516 52.5457L472.056 5.90214C474.729 5.5746 476.905 7.38049 476.905 9.93V14.1792C476.93 15.387 476.459 16.5642 475.573 17.5057C474.687 18.4471 473.442 19.0932 472.056 19.3313V19.3313Z" fill="#999999" stroke="#263238" stroke-linecap="round" stroke-linejoin="round"/>
<path d="M461.726 10.7535L468.502 9.92139" stroke="white" stroke-linecap="round" stroke-linejoin="round"/>
<path d="M443.521 12.9842L453.883 11.7183" stroke="white" stroke-linecap="round" stroke-linejoin="round"/>
<path d="M119.894 52.404L437.409 13.71" stroke="white" stroke-linecap="round" stroke-linejoin="round"/>
<path d="M88.1265 56.2813L111.698 53.4043" stroke="white" stroke-linecap="round" stroke-linejoin="round"/>
<path d="M315.707 264.447L250.909 259.463V181.269L315.759 181.146L315.707 264.447Z" fill="#7E8AF5"/>
<path opacity="0.8" d="M315.707 264.447L250.909 259.463V181.269L315.759 181.146L315.707 264.447Z" fill="white"/>
<path d="M380.558 269.431L315.708 264.447V181.181L380.558 181.065V269.431Z" fill="#7E8AF5"/>
<path opacity="0.6" d="M380.558 269.431L315.708 264.447V181.181L380.558 181.065V269.431Z" fill="white"/>
<path d="M445.397 274.415L380.558 269.431V181.03L445.397 180.906V274.415Z" fill="#7E8AF5"/>
<path opacity="0.4" d="M445.397 274.415L380.558 269.431V181.03L445.397 180.906V274.415Z" fill="white"/>
<path d="M445.397 180.906L250.909 181.269" stroke="#7F7F7F" stroke-linecap="round" stroke-linejoin="round"/>
<path d="M250.909 192.441L445.449 194.265" stroke="#7F7F7F" stroke-linecap="round" stroke-linejoin="round"/>
<path d="M445.397 207.623L250.909 203.613" stroke="#7F7F7F" stroke-linecap="round" stroke-linejoin="round"/>
<path d="M250.909 214.82L445.449 221.017" stroke="#7F7F7F" stroke-linecap="round" stroke-linejoin="round"/>
<path d="M445.397 234.339L250.909 225.947" stroke="#7F7F7F" stroke-linecap="round" stroke-linejoin="round"/>
<path d="M250.909 237.119L445.449 247.698" stroke="#7F7F7F" stroke-linecap="round" stroke-linejoin="round"/>
<path d="M445.397 261.056L250.909 248.291" stroke="#7F7F7F" stroke-linecap="round" stroke-linejoin="round"/>
<path d="M250.909 259.463L445.449 274.415" stroke="#7F7F7F" stroke-linecap="round" stroke-linejoin="round"/>
<path d="M267.073 260.711V181.234" stroke="#7F7F7F" stroke-linecap="round" stroke-linejoin="round"/>
<path d="M250.909 181.269V259.463" stroke="#7F7F7F" stroke-linecap="round" stroke-linejoin="round"/>
<path d="M299.492 263.199V181.181" stroke="#7F7F7F" stroke-linecap="round" stroke-linejoin="round"/>
<path d="M283.288 181.181V261.924" stroke="#7F7F7F" stroke-linecap="round" stroke-linejoin="round"/>
<path d="M331.923 265.695V181.119" stroke="#7F7F7F" stroke-linecap="round" stroke-linejoin="round"/>
<path d="M315.708 181.181V264.482" stroke="#7F7F7F" stroke-linecap="round" stroke-linejoin="round"/>
<path d="M364.342 268.182V181.057" stroke="#7F7F7F" stroke-linecap="round" stroke-linejoin="round"/>
<path d="M348.127 181.083V266.952" stroke="#7F7F7F" stroke-linecap="round" stroke-linejoin="round"/>
<path d="M396.762 270.679V180.995" stroke="#7F7F7F" stroke-linecap="round" stroke-linejoin="round"/>
<path d="M380.558 181.03V269.431" stroke="#7F7F7F" stroke-linecap="round" stroke-linejoin="round"/>
<path d="M429.192 273.167V180.933" stroke="#7F7F7F" stroke-linecap="round" stroke-linejoin="round"/>
<path d="M412.978 180.968V271.927" stroke="#7F7F7F" stroke-linecap="round" stroke-linejoin="round"/>
<path d="M445.397 180.906V274.415" stroke="#7F7F7F" stroke-linecap="round" stroke-linejoin="round"/>
<path d="M250.909 181.269V259.463L445.449 274.415V180.906L250.909 181.269Z" stroke="#263238" stroke-linecap="round" stroke-linejoin="round"/>
<path d="M258.97 259.746L254.101 259.374V236.951L258.97 237.217V259.746Z" fill="#263238"/>
<path d="M263.83 260.127L258.97 259.746V225.965L263.83 226.178V260.127Z" fill="#7E8AF5"/>
<path d="M275.175 260.994L270.315 260.623V220.787L275.175 220.964V260.994Z" fill="#263238"/>
<path d="M280.044 261.366L275.175 260.994V215.218L280.044 215.369V261.366Z" fill="#7E8AF5"/>
<path d="M291.39 262.234L286.531 261.862V227.143L291.39 227.355V262.234Z" fill="#263238"/>
<path d="M296.249 262.623L291.39 262.252V221.53L296.249 221.707V262.623Z" fill="#7E8AF5"/>
<path d="M307.605 263.509L302.735 263.137V239.607L307.605 239.872V263.509Z" fill="#263238" stroke="#263238" stroke-linecap="round" stroke-linejoin="round"/>
<path d="M312.464 263.845L307.605 263.473V235.145L312.464 235.384V263.845Z" fill="#7E8AF5" stroke="#7E8AF5" stroke-linecap="round" stroke-linejoin="round"/>
<path d="M323.81 264.712L318.951 264.34V224.035L323.81 224.221V264.712Z" fill="#263238"/>
<path d="M328.679 265.084L323.81 264.712V231.852L328.679 232.073V265.084Z" fill="#7E8AF5"/>
<path d="M340.015 265.952L335.155 265.58V230.63L340.015 230.843V265.952Z" fill="#263238"/>
<path d="M344.884 266.323L340.025 265.952V224.841L344.884 225.027V266.323Z" fill="#7E8AF5"/>
<path d="M356.24 267.191L351.37 266.819V223.124L356.24 223.301V267.191Z" fill="#263238"/>
<path d="M361.1 267.563L356.24 267.191V226.567L361.1 226.762V267.563Z" fill="#7E8AF5"/>
<path d="M372.445 268.43L367.585 268.059V214.236L372.445 214.377V268.43Z" fill="#263238"/>
<path d="M377.315 268.82L372.445 268.439V207.977L377.315 208.092V268.82Z" fill="#7E8AF5"/>
<path d="M388.711 269.705L383.852 269.333V218.644L388.711 218.795V269.705Z" fill="#263238"/>
<path d="M393.519 215.838V270.05L388.712 269.705V215.705L393.519 215.838Z" fill="#7E8AF5"/>
<path d="M404.875 270.918L400.005 270.546V212.297L404.875 212.421V270.918Z" fill="#263238"/>
<path d="M409.734 271.29L404.875 270.918V213.625L409.734 213.749V271.29Z" fill="#7E8AF5"/>
<path d="M421.08 272.157L416.22 271.786V204.197L421.08 204.286V272.157Z" fill="#263238"/>
<path d="M425.949 272.529L421.08 272.157V200.559L425.949 200.629V272.529Z" fill="#7E8AF5"/>
<path d="M437.295 273.396L432.425 273.025V193.751L437.295 193.795V273.396Z" fill="#263238"/>
<path d="M442.154 273.768L437.295 273.397V190.44H442.154V273.768Z" fill="#7E8AF5"/>
<path d="M317.085 223.097L302.984 222.566C302.212 222.569 301.467 222.327 300.892 221.887C300.318 221.447 299.955 220.84 299.875 220.184V212.501C299.908 212.182 300.014 211.872 300.189 211.588C300.364 211.305 300.603 211.055 300.892 210.852C301.182 210.649 301.516 210.498 301.876 210.407C302.235 210.316 302.612 210.287 302.984 210.323L317.085 210.686C317.861 210.67 318.614 210.907 319.192 211.35C319.77 211.792 320.128 212.407 320.194 213.067V220.91C320.165 221.231 320.062 221.543 319.888 221.829C319.715 222.114 319.476 222.366 319.186 222.571C318.895 222.775 318.56 222.927 318.199 223.017C317.838 223.108 317.459 223.135 317.085 223.097V223.097Z" fill="white" stroke="#263238" stroke-linecap="round" stroke-linejoin="round"/>
<path d="M303.937 219.627C303.46 219.57 303.024 219.362 302.717 219.044C302.41 218.726 302.254 218.321 302.28 217.91V217.476H303.73V218.007C303.73 218.441 304.031 218.636 304.518 218.653C305.004 218.671 305.305 218.494 305.305 218.042C305.305 217.591 305.025 217.157 303.999 216.546C302.756 215.794 302.321 215.218 302.321 214.448C302.304 214.253 302.333 214.058 302.405 213.872C302.477 213.687 302.592 213.515 302.742 213.368C302.892 213.22 303.075 213.1 303.281 213.014C303.486 212.927 303.709 212.876 303.937 212.864V212.253H305.181V212.864C305.656 212.919 306.089 213.126 306.393 213.443C306.696 213.76 306.848 214.163 306.818 214.572V214.82H305.378V214.546C305.389 214.458 305.378 214.368 305.343 214.285C305.309 214.201 305.252 214.125 305.178 214.063C305.105 214.001 305.015 213.954 304.917 213.925C304.818 213.897 304.714 213.888 304.611 213.899C304.124 213.899 303.854 214.068 303.854 214.475C303.854 214.882 304.134 215.298 305.16 215.927C306.403 216.697 306.838 217.263 306.838 218.078C306.858 218.278 306.831 218.48 306.757 218.672C306.684 218.863 306.567 219.04 306.412 219.192C306.258 219.343 306.069 219.467 305.858 219.556C305.646 219.644 305.416 219.696 305.181 219.707V220.415H303.937V219.627Z" fill="#263238"/>
<path d="M315.387 217.237V212.589L312.009 212.492V217.122L309.595 217.051C311.242 218.635 312.061 219.432 313.739 221.025L317.832 217.307L315.387 217.237Z" fill="#999999" stroke="#263238" stroke-linecap="round" stroke-linejoin="round"/>
<path d="M407.061 205.083L392.949 204.808C392.153 204.809 391.386 204.549 390.808 204.081C390.229 203.613 389.883 202.974 389.841 202.294V193.928C389.876 193.254 390.223 192.618 390.806 192.162C391.388 191.705 392.159 191.465 392.949 191.494L407.061 191.6C407.859 191.599 408.627 191.861 409.206 192.331C409.784 192.8 410.129 193.442 410.169 194.123V202.622C410.159 202.959 410.069 203.291 409.907 203.598C409.744 203.905 409.511 204.182 409.221 204.411C408.932 204.64 408.591 204.818 408.22 204.933C407.849 205.048 407.455 205.099 407.061 205.083V205.083Z" fill="white" stroke="#263238" stroke-linecap="round" stroke-linejoin="round"/>
<path d="M393.892 201.586C393.399 201.512 392.956 201.283 392.651 200.943C392.346 200.604 392.201 200.179 392.245 199.753V199.249H393.685V199.833C393.674 199.925 393.687 200.018 393.723 200.105C393.759 200.192 393.817 200.271 393.894 200.336C393.97 200.402 394.063 200.452 394.165 200.483C394.267 200.513 394.375 200.524 394.483 200.515C394.591 200.528 394.701 200.52 394.805 200.49C394.909 200.461 395.003 200.411 395.079 200.345C395.156 200.278 395.213 200.197 395.246 200.108C395.28 200.019 395.288 199.925 395.27 199.833C395.27 199.284 394.991 198.886 393.965 198.239C392.722 197.443 392.286 196.823 392.286 195.991C392.236 195.576 392.374 195.16 392.674 194.83C392.973 194.501 393.409 194.282 393.892 194.22V193.574H395.146V194.247C395.638 194.315 396.081 194.54 396.385 194.877C396.689 195.215 396.832 195.638 396.783 196.062V196.274H395.343V195.973C395.359 195.882 395.351 195.79 395.319 195.702C395.287 195.614 395.232 195.534 395.158 195.467C395.084 195.401 394.993 195.349 394.892 195.317C394.791 195.285 394.683 195.274 394.576 195.283C394.472 195.271 394.367 195.28 394.267 195.309C394.168 195.338 394.078 195.386 394.004 195.449C393.93 195.512 393.874 195.589 393.84 195.674C393.806 195.759 393.796 195.849 393.81 195.938C393.81 196.442 394.089 196.823 395.115 197.487C396.369 198.284 396.804 198.903 396.804 199.78C396.846 200.2 396.697 200.618 396.388 200.948C396.08 201.277 395.635 201.493 395.146 201.55V202.312H393.892V201.586Z" fill="#263238"/>
<path d="M401.974 197.832V202.86L405.352 202.922V197.876H407.766L403.621 193.645L399.529 197.77L401.974 197.832Z" fill="#999999" stroke="#263238" stroke-linecap="round" stroke-linejoin="round"/>
<path d="M345.993 135.971C350.322 136.765 354.747 137.112 359.172 137.007C384.091 136.431 406.719 120.444 406.833 99.561C406.906 79.5456 383.335 64.2663 359.172 67.223V102.119C354.807 113.415 350.414 124.699 345.993 135.971Z" fill="#7E8AF5" stroke="#263238" stroke-linecap="round" stroke-linejoin="round"/>
<path d="M359.172 102.119V67.2231C335.912 69.2592 311.169 84.8484 311.511 104.669C311.801 119.621 327.385 133.183 345.952 135.971C350.407 124.693 354.814 113.409 359.172 102.119Z" fill="#999999" stroke="#263238" stroke-linecap="round" stroke-linejoin="round"/>
<path d="M341.89 87.8758C341.86 87.5619 341.753 87.2568 341.576 86.9804C341.4 86.704 341.157 86.4624 340.864 86.2713C340.571 86.0801 340.234 85.9438 339.875 85.871C339.517 85.7981 339.144 85.7905 338.782 85.8486C338.003 85.8604 337.257 86.1156 336.684 86.5659C336.112 87.0161 335.752 87.6302 335.673 88.2919V89.6906C335.705 90.0043 335.813 90.3089 335.99 90.5849C336.167 90.861 336.41 91.1025 336.702 91.2941C336.995 91.4857 337.331 91.6231 337.689 91.6975C338.047 91.772 338.419 91.7819 338.782 91.7266C339.56 91.7149 340.306 91.4597 340.879 91.0094C341.452 90.5591 341.812 89.945 341.89 89.2834" stroke="#263238" stroke-linecap="round" stroke-linejoin="round"/>
<path d="M333.239 114.787V119.311C333.262 119.521 333.334 119.725 333.452 119.91C333.57 120.096 333.73 120.259 333.924 120.389C334.118 120.52 334.341 120.616 334.579 120.671C334.818 120.726 335.067 120.739 335.311 120.709V120.709C335.822 120.712 336.316 120.554 336.698 120.265C337.081 119.976 337.324 119.576 337.383 119.142V107.749C337.408 107.454 337.557 107.177 337.802 106.968C338.048 106.76 338.374 106.635 338.72 106.616C338.89 106.586 339.067 106.586 339.237 106.618C339.407 106.65 339.567 106.712 339.707 106.801C339.847 106.89 339.964 107.003 340.049 107.133C340.134 107.262 340.186 107.406 340.201 107.555V119.063C340.223 119.274 340.294 119.479 340.412 119.665C340.529 119.851 340.689 120.016 340.883 120.147C341.077 120.279 341.301 120.376 341.54 120.431C341.779 120.487 342.028 120.5 342.274 120.47C342.786 120.473 343.281 120.313 343.664 120.022C344.047 119.731 344.29 119.33 344.346 118.895V107.847" stroke="#263238" stroke-linecap="round" stroke-linejoin="round"/>
<path d="M333.239 111.822V113.15" stroke="#263238" stroke-linecap="round" stroke-linejoin="round"/>
<path d="M344.325 106.236V97.2593C344.343 97.1177 344.422 96.9868 344.546 96.892C344.67 96.7971 344.831 96.7451 344.998 96.7459V96.7459C345.076 96.7346 345.156 96.7374 345.233 96.754C345.31 96.7706 345.382 96.8007 345.444 96.8423C345.506 96.8839 345.558 96.9362 345.595 96.9959C345.633 97.0555 345.655 97.1211 345.661 97.1885V102.5C345.68 102.823 345.847 103.127 346.127 103.346C346.406 103.565 346.775 103.681 347.153 103.669C347.593 103.696 348.027 103.576 348.366 103.335C348.704 103.094 348.919 102.75 348.967 102.376V95.9757C348.967 94.2938 347.091 93.0456 344.77 93.1872L332.793 93.9308C330.472 94.0813 328.648 95.5331 328.648 97.1885V103.385C328.67 103.706 328.839 104.007 329.118 104.222C329.397 104.438 329.765 104.551 330.14 104.536C330.577 104.566 331.01 104.45 331.349 104.212C331.687 103.974 331.904 103.633 331.954 103.261V97.9498C331.971 97.8074 332.05 97.6754 332.174 97.5792C332.298 97.4829 332.459 97.4289 332.627 97.4275V97.4275C332.705 97.4176 332.784 97.4213 332.86 97.4385C332.937 97.4556 333.008 97.4858 333.07 97.5272C333.132 97.5686 333.183 97.6204 333.221 97.6793C333.259 97.7383 333.283 97.8032 333.29 97.8702V110.476" stroke="#263238" stroke-linecap="round" stroke-linejoin="round"/>
<path d="M382.423 86.185C382.64 87.3004 382.961 88.9116 382.961 88.9116L375.563 89.3808C375.563 89.3808 376.247 85.8398 376.299 85.5742C376.422 84.9427 376.775 84.3601 377.306 83.909C377.838 83.4579 378.522 83.1609 379.262 83.0601C379.974 83.0425 380.668 83.248 381.214 83.6378C381.76 84.0276 382.12 84.5748 382.226 85.1759" stroke="#263238" stroke-linecap="round" stroke-linejoin="round"/>
<path d="M388.815 100.225V93.6121C388.815 91.8416 386.93 90.5757 384.619 90.7174" stroke="#263238" stroke-linecap="round" stroke-linejoin="round"/>
<path d="M384.174 110.804V108.591L386.536 108.475C385.593 103.067 385.117 100.358 384.174 94.9666C384.187 94.8225 384.261 94.6875 384.384 94.5877C384.506 94.488 384.668 94.4306 384.837 94.4266C384.916 94.4167 384.997 94.4209 385.075 94.4392C385.152 94.4574 385.224 94.4891 385.287 94.5324C385.349 94.5756 385.4 94.6295 385.437 94.6905C385.474 94.7516 385.495 94.8184 385.5 94.8869V100.384C385.511 100.714 385.674 101.026 385.953 101.253C386.233 101.481 386.606 101.604 386.992 101.597" stroke="#263238" stroke-linecap="round" stroke-linejoin="round"/>
<path d="M384.174 113.663V112.131" stroke="#263238" stroke-linecap="round" stroke-linejoin="round"/>
<path d="M372.269 107.493C372.155 108.148 372.103 108.475 371.989 109.13L374.351 109.015V117.673C374.369 117.887 374.438 118.096 374.553 118.287C374.668 118.477 374.827 118.646 375.021 118.783C375.215 118.919 375.439 119.021 375.68 119.081C375.921 119.142 376.174 119.159 376.423 119.134C376.944 119.135 377.446 118.97 377.83 118.669C378.214 118.369 378.451 117.957 378.496 117.514V108.821L380.029 108.75V117.443C380.047 117.657 380.115 117.866 380.23 118.056C380.346 118.247 380.505 118.416 380.699 118.553C380.892 118.689 381.117 118.791 381.358 118.851C381.599 118.911 381.852 118.929 382.101 118.903C382.623 118.905 383.127 118.738 383.511 118.436C383.895 118.134 384.132 117.719 384.173 117.275V115.203" stroke="#263238" stroke-linecap="round" stroke-linejoin="round"/>
<path d="M381.034 90.939L373.906 91.3816C372.853 91.4129 371.85 91.7723 371.087 92.3921C370.323 93.0118 369.852 93.849 369.761 94.7455V101.199C369.775 101.518 369.932 101.821 370.2 102.044C370.469 102.266 370.827 102.392 371.201 102.394C371.647 102.423 372.089 102.302 372.43 102.055C372.772 101.808 372.985 101.456 373.025 101.075V95.5865C373.04 95.443 373.115 95.3091 373.237 95.2098C373.359 95.1104 373.52 95.0524 373.688 95.0465V95.0465C373.768 95.0366 373.849 95.0408 373.926 95.059C374.003 95.0773 374.076 95.109 374.138 95.1523C374.2 95.1955 374.251 95.2494 374.288 95.3104C374.325 95.3715 374.346 95.4383 374.351 95.5068L372.745 104.802" stroke="#263238" stroke-linecap="round" stroke-linejoin="round"/>
<path d="M424.209 96.3743L418.946 96.6664C418.492 96.7196 418.03 96.6917 417.59 96.5844C417.149 96.4771 416.739 96.2927 416.387 96.043C416.034 95.7933 415.746 95.4837 415.541 95.1339C415.336 94.784 415.218 94.4015 415.195 94.0107V90.0005C415.26 89.1774 415.68 88.4041 416.372 87.8289C417.064 87.2538 417.981 86.9174 418.946 86.8844L424.209 86.5481C424.662 86.4934 425.124 86.5203 425.565 86.6272C426.005 86.734 426.415 86.9184 426.767 87.1685C427.119 87.4186 427.407 87.7288 427.61 88.0793C427.814 88.4299 427.929 88.8129 427.949 89.2038V93.2848C427.886 94.1044 427.467 94.8746 426.776 95.4455C426.085 96.0165 425.17 96.3475 424.209 96.3743Z" fill="#999999" stroke="#263238" stroke-linecap="round" stroke-linejoin="round"/>
<path d="M436.922 93.3466L433.71 93.5325V92.3375C434.943 90.0093 435.554 88.8496 436.818 86.5125L438.652 86.3975V92.0542H439.44V93.2493H438.652V94.7719L436.963 94.8693L436.922 93.3466ZM436.922 92.1515V88.8939C436.269 90.2394 435.938 90.9122 435.274 92.2489L436.922 92.1515Z" fill="#263238"/>
<path d="M440.185 92.656V91.9921L441.771 91.9035V92.656C441.771 93.258 442.113 93.4527 442.651 93.4173C443.19 93.3819 443.522 93.1517 443.522 92.5321V90.6465C443.522 90.0445 443.18 89.8321 442.651 89.8675C442.123 89.9029 441.771 90.1419 441.771 90.7527V90.8235L440.185 90.9209C440.31 89.0354 440.372 88.097 440.486 86.2203L444.92 85.937V87.1409L441.988 87.318C441.936 88.1236 441.905 88.5308 441.854 89.3363C442.01 89.1271 442.224 88.9539 442.477 88.832C442.73 88.71 443.014 88.6431 443.304 88.637C444.537 88.5662 445.169 89.2124 445.169 90.4517V92.355C445.2 92.6483 445.158 92.944 445.045 93.2222C444.932 93.5004 444.75 93.7548 444.513 93.9684C444.276 94.182 443.988 94.35 443.669 94.461C443.349 94.5721 443.006 94.6237 442.662 94.6124C442.339 94.6696 442.004 94.6601 441.687 94.5846C441.369 94.5092 441.077 94.37 440.834 94.1787C440.592 93.9873 440.407 93.7493 440.294 93.4845C440.181 93.2197 440.144 92.9356 440.185 92.656Z" fill="#263238"/>
<path d="M446.257 89.248V87.1411C446.239 86.9519 446.269 86.7616 446.343 86.5828C446.418 86.404 446.536 86.2406 446.689 86.1035C446.843 85.9664 447.029 85.8586 447.235 85.7872C447.441 85.7158 447.662 85.6825 447.884 85.6893C448.092 85.6499 448.308 85.6537 448.514 85.7003C448.721 85.7469 448.911 85.8349 449.069 85.9571C449.227 86.0793 449.349 86.232 449.424 86.4026C449.499 86.5731 449.525 86.7565 449.5 86.9375V89.0532C449.519 89.242 449.491 89.4321 449.418 89.6109C449.345 89.7898 449.228 89.9532 449.075 90.0905C448.922 90.2278 448.737 90.3358 448.532 90.4072C448.326 90.4787 448.105 90.512 447.884 90.5051C447.674 90.5444 447.457 90.5403 447.249 90.4932C447.042 90.4462 446.851 90.3575 446.691 90.2345C446.532 90.1115 446.41 89.9578 446.334 89.7862C446.259 89.6146 446.232 89.4301 446.257 89.248V89.248ZM448.433 89.1772V86.9464C448.433 86.5746 448.215 86.4329 447.884 86.4506C447.552 86.4683 447.324 86.6454 447.324 87.0172V89.248C447.324 89.6198 447.531 89.7615 447.884 89.7437C448.236 89.726 448.433 89.549 448.433 89.1772V89.1772ZM451.759 85.5654L452.795 85.5034C451.137 88.9913 450.308 90.7352 448.65 94.2054L447.614 94.2673C449.272 90.7972 450.101 89.0621 451.759 85.5742V85.5654ZM450.951 92.8421V90.7264C450.931 90.538 450.959 90.3483 451.033 90.1699C451.106 89.9915 451.223 89.8285 451.376 89.6919C451.529 89.5553 451.714 89.4482 451.92 89.3777C452.125 89.3073 452.346 89.2751 452.567 89.2834C452.777 89.242 452.995 89.2445 453.204 89.2908C453.412 89.3371 453.605 89.4257 453.764 89.5491C453.924 89.6726 454.047 89.8272 454.121 89.9998C454.196 90.1724 454.221 90.3579 454.194 90.5405V92.6562C454.211 92.845 454.182 93.0349 454.108 93.2133C454.033 93.3917 453.915 93.5545 453.761 93.691C453.607 93.8274 453.421 93.9344 453.215 94.0047C453.01 94.0751 452.788 94.1073 452.567 94.0991C452.358 94.1389 452.141 94.1351 451.933 94.0881C451.726 94.041 451.536 93.9521 451.377 93.8289C451.219 93.7057 451.097 93.5517 451.023 93.38C450.949 93.2082 450.924 93.0237 450.951 92.8421V92.8421ZM453.126 92.7801V90.5405C453.126 90.1687 452.909 90.027 452.567 90.0447C452.225 90.0624 452.018 90.2306 452.018 90.6113V92.8421C452.018 93.2228 452.225 93.3644 452.567 93.3467C452.909 93.329 453.126 93.1608 453.126 92.7801V92.7801Z" fill="#263238"/>
<path d="M424.209 110.759L418.946 110.99C418.488 111.035 418.024 110.999 417.582 110.885C417.141 110.771 416.732 110.581 416.38 110.326C416.029 110.071 415.742 109.757 415.538 109.404C415.334 109.051 415.217 108.665 415.195 108.272V104.226C415.259 103.408 415.68 102.64 416.374 102.073C417.068 101.506 417.986 101.181 418.946 101.163L424.209 100.889C424.666 100.841 425.13 100.874 425.571 100.987C426.013 101.1 426.422 101.289 426.773 101.544C427.125 101.798 427.411 102.112 427.613 102.466C427.815 102.819 427.93 103.205 427.949 103.598V107.705C427.887 108.522 427.468 109.289 426.776 109.855C426.083 110.421 425.167 110.743 424.209 110.759V110.759Z" fill="#7E8AF5" stroke="#263238" stroke-linecap="round" stroke-linejoin="round"/>
<path d="M434.062 107.484V106.82L435.658 106.749V107.493C435.658 108.095 435.989 108.29 436.528 108.272C437.067 108.254 437.399 108.015 437.399 107.387V105.51C437.399 104.917 437.067 104.704 436.528 104.731C435.989 104.757 435.658 104.996 435.658 105.616V105.687L434.062 105.758L434.373 101.084L438.808 100.854V102.057L435.875 102.199C435.813 103.005 435.793 103.403 435.73 104.2C435.887 103.992 436.102 103.821 436.355 103.702C436.608 103.583 436.892 103.52 437.181 103.518C438.424 103.456 439.046 104.111 439.046 105.342V107.236C439.08 107.528 439.039 107.822 438.926 108.099C438.813 108.376 438.631 108.629 438.393 108.839C438.154 109.05 437.864 109.213 437.544 109.319C437.224 109.424 436.881 109.469 436.539 109.449C436.215 109.507 435.879 109.497 435.56 109.421C435.242 109.345 434.949 109.205 434.706 109.013C434.464 108.821 434.279 108.581 434.167 108.315C434.055 108.049 434.019 107.764 434.062 107.484Z" fill="#263238"/>
<path d="M440.185 107.2V106.545L441.771 106.466V107.227C441.771 107.82 442.113 108.024 442.651 107.997C443.19 107.971 443.522 107.749 443.522 107.112V105.226C443.522 104.624 443.18 104.412 442.651 104.439C442.123 104.465 441.771 104.704 441.771 105.324V105.395L440.185 105.474C440.31 103.589 440.372 102.65 440.486 100.774L444.92 100.543V101.747L441.988 101.889C441.936 102.695 441.905 103.102 441.854 103.907C442.009 103.699 442.224 103.528 442.477 103.409C442.731 103.29 443.015 103.227 443.304 103.226C444.537 103.164 445.169 103.819 445.169 105.058V106.961C445.203 107.254 445.162 107.549 445.049 107.827C444.936 108.104 444.754 108.358 444.516 108.57C444.278 108.782 443.989 108.947 443.669 109.055C443.349 109.162 443.005 109.209 442.662 109.192C442.335 109.251 441.996 109.241 441.675 109.164C441.353 109.087 441.058 108.944 440.815 108.749C440.572 108.553 440.387 108.31 440.278 108.041C440.168 107.771 440.137 107.483 440.185 107.2Z" fill="#263238"/>
<path d="M446.257 103.89V101.783C446.237 101.594 446.266 101.404 446.34 101.225C446.414 101.047 446.532 100.884 446.686 100.748C446.841 100.612 447.028 100.506 447.234 100.437C447.441 100.368 447.662 100.338 447.884 100.349C448.094 100.311 448.311 100.316 448.518 100.364C448.725 100.413 448.915 100.502 449.073 100.626C449.232 100.75 449.353 100.904 449.427 101.076C449.501 101.248 449.526 101.433 449.5 101.615V103.73C449.52 103.918 449.492 104.107 449.419 104.285C449.345 104.462 449.228 104.624 449.074 104.759C448.921 104.895 448.735 105 448.53 105.069C448.324 105.137 448.104 105.167 447.884 105.156C447.674 105.193 447.456 105.188 447.249 105.139C447.041 105.091 446.851 105.002 446.692 104.878C446.533 104.754 446.411 104.6 446.335 104.429C446.26 104.257 446.233 104.072 446.257 103.89ZM448.433 103.846V101.615C448.433 101.234 448.215 101.092 447.884 101.11C447.552 101.128 447.324 101.296 447.324 101.668V103.899C447.324 104.27 447.532 104.421 447.884 104.403C448.236 104.386 448.433 104.217 448.433 103.846V103.846ZM451.759 100.305L452.795 100.251C451.137 103.722 450.308 105.457 448.651 108.909L447.614 108.953C449.272 105.474 450.101 103.739 451.759 100.269V100.305ZM450.951 107.572V105.457C450.931 105.269 450.959 105.08 451.032 104.902C451.106 104.725 451.223 104.563 451.377 104.428C451.53 104.292 451.716 104.187 451.921 104.119C452.127 104.05 452.347 104.021 452.567 104.031C452.778 103.994 452.997 103.999 453.205 104.048C453.413 104.097 453.605 104.187 453.764 104.312C453.923 104.436 454.045 104.592 454.12 104.765C454.194 104.937 454.22 105.123 454.194 105.306V107.431C454.214 107.619 454.186 107.809 454.112 107.987C454.037 108.165 453.919 108.328 453.764 108.463C453.61 108.599 453.423 108.704 453.216 108.772C453.009 108.84 452.788 108.868 452.567 108.856C452.352 108.894 452.129 108.887 451.917 108.836C451.706 108.784 451.512 108.689 451.353 108.559C451.194 108.429 451.075 108.269 451.005 108.091C450.934 107.912 450.916 107.723 450.951 107.537V107.572ZM453.127 107.572V105.333C453.127 104.961 452.909 104.81 452.567 104.828C452.225 104.846 452.018 105.014 452.018 105.386V107.626C452.018 107.997 452.225 108.148 452.567 108.13C452.909 108.112 453.127 107.873 453.127 107.502V107.572Z" fill="#263238"/>
<path d="M170.093 156.606L105.253 157.89V66.9309L170.093 60.5483V156.606Z" fill="#7E8AF5"/>
<path opacity="0.8" d="M170.093 156.606L105.253 157.89V66.9309L170.093 60.5483V156.606Z" fill="white"/>
<path d="M234.984 155.332L170.093 156.606V60.5486L234.943 54.166L234.984 155.332Z" fill="#7E8AF5"/>
<path opacity="0.6" d="M234.984 155.332L170.093 156.606V60.5486L234.943 54.166L234.984 155.332Z" fill="white"/>
<path d="M299.834 154.057L234.984 155.332V54.1658L299.834 47.7832V154.057Z" fill="#7E8AF5"/>
<path opacity="0.4" d="M299.834 154.057L234.984 155.332V54.1658L299.834 47.7832V154.057Z" fill="white"/>
<path d="M299.835 47.7832L105.295 66.931" stroke="#7F7F7F" stroke-linecap="round" stroke-linejoin="round"/>
<path d="M105.295 79.9266L299.835 62.9653" stroke="#7F7F7F" stroke-linecap="round" stroke-linejoin="round"/>
<path d="M299.835 78.147L105.295 92.9217" stroke="#7F7F7F" stroke-linecap="round" stroke-linejoin="round"/>
<path d="M105.295 105.935L299.835 93.3555" stroke="#7F7F7F" stroke-linecap="round" stroke-linejoin="round"/>
<path d="M299.835 108.511L105.295 118.904" stroke="#7F7F7F" stroke-linecap="round" stroke-linejoin="round"/>
<path d="M105.295 131.899L299.835 123.693" stroke="#7F7F7F" stroke-linecap="round" stroke-linejoin="round"/>
<path d="M299.835 138.875L105.295 144.886" stroke="#7F7F7F" stroke-linecap="round" stroke-linejoin="round"/>
<path d="M105.295 157.89L299.835 154.057" stroke="#7F7F7F" stroke-linecap="round" stroke-linejoin="round"/>
<path d="M121.5 157.571V65.3374" stroke="#7F7F7F" stroke-linecap="round" stroke-linejoin="round"/>
<path d="M105.295 66.9312V157.89" stroke="#7F7F7F" stroke-linecap="round" stroke-linejoin="round"/>
<path d="M153.93 156.925V62.1421" stroke="#7F7F7F" stroke-linecap="round" stroke-linejoin="round"/>
<path d="M137.715 63.7354V157.279" stroke="#7F7F7F" stroke-linecap="round" stroke-linejoin="round"/>
<path d="M186.35 156.288V58.9551" stroke="#7F7F7F" stroke-linecap="round" stroke-linejoin="round"/>
<path d="M170.093 60.5483V156.606" stroke="#7F7F7F" stroke-linecap="round" stroke-linejoin="round"/>
<path d="M218.79 155.65V55.7593" stroke="#7F7F7F" stroke-linecap="round" stroke-linejoin="round"/>
<path d="M202.564 57.3613V155.969" stroke="#7F7F7F" stroke-linecap="round" stroke-linejoin="round"/>
<path d="M251.2 155.013V52.5723" stroke="#7F7F7F" stroke-linecap="round" stroke-linejoin="round"/>
<path d="M234.984 54.166V155.332" stroke="#7F7F7F" stroke-linecap="round" stroke-linejoin="round"/>
<path d="M283.62 154.376V49.3857" stroke="#7F7F7F" stroke-linecap="round" stroke-linejoin="round"/>
<path d="M267.404 50.979V154.694" stroke="#7F7F7F" stroke-linecap="round" stroke-linejoin="round"/>
<path d="M299.834 47.7832V154.057" stroke="#7F7F7F" stroke-linecap="round" stroke-linejoin="round"/>
<path d="M105.295 66.9312V157.89L299.835 154.057V47.8276L105.295 66.9312Z" stroke="#263238" stroke-linecap="round" stroke-linejoin="round"/>
<path d="M105.295 144.886H106.455" stroke="#263238" stroke-linecap="round" stroke-linejoin="round"/>
<path d="M108.434 144.797L119.355 144.461" stroke="#263238" stroke-linecap="round" stroke-linejoin="round" stroke-dasharray="1.71 1.71"/>
<path d="M120.36 144.425H121.51L122.328 143.735" stroke="#263238" stroke-linecap="round" stroke-linejoin="round"/>
<path d="M123.945 142.327C128.804 138.211 131.198 136.131 136.088 131.943" stroke="#263238" stroke-linecap="round" stroke-linejoin="round" stroke-dasharray="1.98 1.98"/>
<path d="M136.938 131.244L137.756 130.536C138.088 130.784 138.253 130.916 138.575 131.173" stroke="#263238" stroke-linecap="round" stroke-linejoin="round"/>
<path d="M139.828 132.183L144.356 135.724" stroke="#263238" stroke-linecap="round" stroke-linejoin="round" stroke-dasharray="1.58 1.58"/>
<path d="M144.999 136.263L145.817 136.918C145.972 136.546 146.045 136.361 146.19 135.989" stroke="#263238" stroke-linecap="round" stroke-linejoin="round"/>
<path d="M146.853 134.263C149.402 127.818 150.676 124.578 153.225 118.063" stroke="#263238" stroke-linecap="round" stroke-linejoin="round" stroke-dasharray="1.83 1.83"/>
<path d="M153.515 117.248C153.671 116.868 153.743 116.682 153.888 116.31L155.038 116.248" stroke="#263238" stroke-linecap="round" stroke-linejoin="round"/>
<path d="M157.018 116.142L159.908 115.991" stroke="#263238" stroke-linecap="round" stroke-linejoin="round" stroke-dasharray="1.67 1.67"/>
<path d="M160.872 115.938L162.032 115.876L162.55 114.991" stroke="#263238" stroke-linecap="round" stroke-linejoin="round"/>
<path d="M163.565 113.221L169.119 103.483" stroke="#263238" stroke-linecap="round" stroke-linejoin="round" stroke-dasharray="1.95 1.95"/>
<path d="M169.616 102.624L170.134 101.739L171.295 101.659" stroke="#263238" stroke-linecap="round" stroke-linejoin="round"/>
<path d="M173.284 101.508L184.194 100.8" stroke="#263238" stroke-linecap="round" stroke-linejoin="round" stroke-dasharray="1.71 1.71"/>
<path d="M185.189 100.747L186.349 100.668L187.168 99.915" stroke="#263238" stroke-linecap="round" stroke-linejoin="round"/>
<path d="M188.463 98.72L192.991 94.5151" stroke="#263238" stroke-linecap="round" stroke-linejoin="round" stroke-dasharray="1.58 1.58"/>
<path d="M193.633 93.9133L194.452 93.1431L195.612 93.0635" stroke="#263238" stroke-linecap="round" stroke-linejoin="round"/>
<path d="M197.923 92.9043L210.667 92.0191C213.257 89.567 214.552 88.3453 217.143 85.8755" stroke="#263238" stroke-linecap="round" stroke-linejoin="round" stroke-dasharray="1.99 1.99"/>
<path d="M217.951 85.0872C218.283 84.7685 218.448 84.618 218.77 84.2993L219.588 84.9632" stroke="#263238" stroke-linecap="round" stroke-linejoin="round"/>
<path d="M221.215 86.2646C226.064 90.1951 228.468 92.1781 233.358 96.1794" stroke="#263238" stroke-linecap="round" stroke-linejoin="round" stroke-dasharray="1.98 1.98"/>
<path d="M234.166 96.8524L234.985 97.5252C235.316 97.2153 235.472 97.056 235.803 96.7373" stroke="#263238" stroke-linecap="round" stroke-linejoin="round"/>
<path d="M237.098 95.498C238.911 93.7275 239.813 92.8954 241.626 91.1426" stroke="#263238" stroke-linecap="round" stroke-linejoin="round" stroke-dasharray="1.58 1.58"/>
<path d="M242.269 90.5229L243.087 89.7262L244.248 89.6465" stroke="#263238" stroke-linecap="round" stroke-linejoin="round"/>
<path d="M246.475 89.487L259.302 88.6017C262.545 85.4237 264.161 83.8302 267.404 80.6345L273.238 80.1919" stroke="#263238" stroke-linecap="round" stroke-linejoin="round" stroke-dasharray="1.93 1.93"/>
<path d="M274.356 80.0859L275.517 79.9973L276.035 79.0059" stroke="#263238" stroke-linecap="round" stroke-linejoin="round"/>
<path d="M277.04 77.0669C279.257 72.8 280.376 70.6577 282.594 66.3643" stroke="#263238" stroke-linecap="round" stroke-linejoin="round" stroke-dasharray="1.95 1.95"/>
<path d="M283.102 65.3817L283.62 64.3813" stroke="#263238" stroke-linecap="round" stroke-linejoin="round"/>
<path d="M105.295 131.899L121.5 131.217C127.986 128.305 131.229 126.836 137.715 123.852L145.817 123.463C149.06 117.93 150.687 115.141 153.93 109.538C157.173 106.634 158.789 105.182 162.032 102.243C165.275 96.5779 166.892 93.7274 170.135 87.991C176.621 90.2484 179.864 91.3903 186.35 93.7185C189.593 96.268 191.209 97.5516 194.452 100.145C200.938 94.1258 204.181 91.0805 210.667 84.9192C213.91 78.9969 215.527 76.0668 218.77 70.0294C225.256 75.1727 228.499 77.7841 234.985 83.069C238.228 88.6107 239.844 91.3903 243.087 97.0028L259.302 95.9494C262.545 92.7979 264.161 91.2133 267.404 87.9822C270.647 78.8641 272.274 74.2786 275.517 65.0543C278.75 58.8045 280.377 55.6619 283.62 49.3501" stroke="#263238" stroke-linecap="round" stroke-linejoin="round"/>
<path d="M136.378 168.655C136.045 168.753 135.695 168.801 135.342 168.796C135.028 168.829 134.71 168.801 134.411 168.713C134.113 168.625 133.841 168.48 133.618 168.288C133.395 168.097 133.227 167.865 133.125 167.609C133.023 167.353 132.991 167.081 133.032 166.813V162.591C132.995 162.321 133.03 162.047 133.132 161.79C133.234 161.533 133.401 161.298 133.622 161.102C133.843 160.907 134.112 160.756 134.409 160.659C134.707 160.563 135.025 160.524 135.342 160.546C135.656 160.511 135.974 160.539 136.273 160.625C136.573 160.712 136.845 160.857 137.069 161.047C137.293 161.238 137.463 161.469 137.566 161.725C137.669 161.98 137.702 162.252 137.663 162.52V166.734C137.682 167.2 137.534 167.66 137.238 168.053C137.342 168.212 137.528 168.238 137.808 168.23H138.036V169.372H137.642C137.366 169.4 137.088 169.343 136.856 169.212C136.624 169.08 136.455 168.883 136.378 168.655V168.655ZM136.161 166.884V162.52C136.161 161.944 135.85 161.732 135.363 161.741C134.876 161.75 134.575 161.971 134.575 162.546V166.902C134.575 167.477 134.886 167.69 135.363 167.681C135.839 167.672 136.161 167.433 136.161 166.858V166.884Z" fill="#263238"/>
<path d="M140.854 162.502H139.258V161.617C140.553 161.617 141.009 161.36 141.331 160.572H142.367V168.61H140.833L140.854 162.502Z" fill="#263238"/>
<path d="M200.793 168C200.461 168.104 200.111 168.158 199.757 168.159C199.434 168.182 199.109 168.142 198.807 168.043C198.504 167.944 198.232 167.787 198.01 167.586C197.788 167.384 197.622 167.142 197.524 166.878C197.427 166.614 197.4 166.335 197.446 166.061V161.635C197.402 161.358 197.429 161.076 197.527 160.81C197.624 160.543 197.789 160.298 198.009 160.092C198.23 159.886 198.5 159.724 198.803 159.617C199.105 159.51 199.43 159.462 199.757 159.475C201.259 159.475 202.078 160.209 202.078 161.564V165.99C202.106 166.48 201.957 166.965 201.653 167.38C201.757 167.548 201.943 167.575 202.223 167.566H202.461V168.787H202.057C201.77 168.812 201.482 168.746 201.248 168.6C201.015 168.455 200.853 168.241 200.793 168V168ZM200.575 166.114V161.511C200.575 160.909 200.265 160.679 199.778 160.688C199.291 160.696 198.99 160.935 198.99 161.573V166.132C198.99 166.734 199.301 166.955 199.778 166.955C200.254 166.955 200.575 166.716 200.575 166.132V166.114Z" fill="#263238"/>
<path d="M203.103 167.088C203.091 166.521 203.221 165.959 203.486 165.44C203.75 164.92 204.143 164.456 204.637 164.078C205.797 162.998 206.129 162.307 206.129 161.555C206.129 160.802 205.828 160.59 205.341 160.599C204.854 160.608 204.544 160.847 204.544 161.484V162.369H203.103V161.546C203.103 160.192 203.88 159.404 205.383 159.386C206.885 159.368 207.662 160.121 207.662 161.475C207.662 162.484 207.186 163.387 205.766 164.715C204.854 165.6 204.616 165.999 204.616 166.583V166.769H207.517V167.982L203.103 168.026V167.088Z" fill="#263238"/>
<path d="M265.684 167.344C265.354 167.456 265.003 167.513 264.648 167.512C263.146 167.512 262.327 166.724 262.327 165.308V160.652C262.327 159.235 263.146 158.412 264.648 158.385C266.15 158.359 266.969 159.164 266.969 160.581V165.246C266.992 165.759 266.841 166.266 266.534 166.707C266.648 166.884 266.824 166.91 267.104 166.901H267.342V168.167H266.938C266.646 168.189 266.356 168.116 266.124 167.964C265.892 167.811 265.735 167.59 265.684 167.344V167.344ZM265.456 165.361V160.519C265.456 159.881 265.156 159.634 264.669 159.634C264.182 159.634 263.881 159.89 263.881 160.519V165.361C263.881 165.99 264.182 166.246 264.669 166.246C265.156 166.246 265.415 165.99 265.415 165.361H265.456Z" fill="#263238"/>
<path d="M267.912 165.246V164.521H269.352V165.308C269.352 165.937 269.653 166.194 270.14 166.194C270.627 166.194 270.938 165.964 270.938 165.176V164.45C270.938 163.626 270.627 163.325 269.901 163.334H269.394V162.06H269.943C270.513 162.06 270.865 161.821 270.865 161.104V160.457C270.865 159.82 270.544 159.572 270.098 159.572C269.653 159.572 269.363 159.829 269.363 160.413V160.997H267.922V160.528C267.922 159.103 268.7 158.297 270.15 158.28C271.601 158.262 272.388 159.014 272.388 160.44V160.82C272.388 161.776 272.057 162.369 271.352 162.635C272.171 162.901 272.471 163.52 272.471 164.45V165.246C272.471 166.672 271.694 167.46 270.192 167.468C268.689 167.477 267.912 166.689 267.912 165.246Z" fill="#263238"/>
<path d="M164.001 117.027C164.001 117.027 148.573 105.705 158.82 98.2246C158.82 98.2246 163.762 84.946 179.998 86.8138C196.234 88.6817 188.101 80.8296 188.101 80.8296C188.101 80.8296 197.301 84.946 193.074 88.124C194.344 88.1752 195.606 87.9222 196.718 87.3936C197.829 86.8649 198.745 86.0816 199.363 85.1319C199.363 85.1319 202.192 89.4342 196.908 91.3286C196.908 91.3286 203.818 92.8246 201.974 96.1974C201.974 96.1974 197.063 93.9666 195.757 102.394C194.452 110.822 178.827 109.591 178.827 109.591L164.001 117.027Z" fill="#263238" stroke="#263238" stroke-linecap="round" stroke-linejoin="round"/>
<path d="M164.985 119.834C164.985 119.4 161.317 128.952 168.29 128.146C171.595 127.765 166.891 119.834 166.891 119.834H164.985Z" fill="#263238" stroke="#263238" stroke-linecap="round" stroke-linejoin="round"/>
<path d="M199 94.0197C199 94.0197 194.856 93.4531 194.037 97.5606" stroke="#7F7F7F" stroke-linecap="round" stroke-linejoin="round"/>
<path d="M189.189 93.0371C187.552 94.8607 188.101 97.5696 188.101 97.5696" stroke="#7F7F7F" stroke-linecap="round" stroke-linejoin="round"/>
<path d="M197.829 88.124C196.313 89.8955 194.11 91.1501 191.613 91.665" stroke="#7F7F7F" stroke-linecap="round" stroke-linejoin="round"/>
<path d="M178.796 92.851C178.796 92.851 185.448 91.7267 184.568 97.5693" stroke="#7F7F7F" stroke-linecap="round" stroke-linejoin="round"/>
<path d="M211.413 234.083C211.413 234.083 216.935 258.71 211.413 282.842C205.89 306.974 202.481 384.468 202.481 384.468H168.114V230.232L209.682 228.984L211.413 234.083Z" fill="#999999"/>
<path opacity="0.2" d="M190.991 267.129C190.991 267.129 189.499 275.645 196.949 273.494C204.398 271.343 209.569 272.086 203.352 276.902C197.135 281.718 188.515 289.012 187.137 315.393C185.759 341.773 183.625 384.442 183.625 384.442H168.653L165.544 286.463L179.149 269.351L185.479 267.103L190.991 267.129Z" fill="black"/>
<path d="M211.413 234.083C211.413 234.083 216.935 258.71 211.413 282.842C205.89 306.974 202.481 384.468 202.481 384.468H168.114V230.232L209.682 228.984L211.413 234.083Z" stroke="#263238" stroke-linecap="round" stroke-linejoin="round"/>
<path d="M207.268 273.583C207.268 273.583 199.57 272.184 190.991 280.319" stroke="#263238" stroke-linecap="round" stroke-linejoin="round"/>
<path d="M195.881 236.854C195.881 236.854 195.529 264.297 191.385 274.707C187.24 285.117 181.024 333.965 181.718 384.477H146.19C146.19 384.477 144.117 293.235 142.719 279.762C141.32 266.288 134.088 268.546 144.097 230.241H197.342L195.881 236.854Z" fill="#999999" stroke="#263238" stroke-linecap="round" stroke-linejoin="round"/>
<path d="M189.147 242.732C191.882 242.573 194.379 242.387 196.648 242.192L196.949 246.715C194.587 246.919 191.976 247.114 189.147 247.273V242.732Z" fill="#263238"/>
<path d="M200.513 241.82C204.803 241.386 207.911 240.935 209.589 240.678L210.304 245.149C208.357 245.45 205.02 245.919 200.513 246.379V241.82Z" fill="#263238"/>
<path d="M142.201 246.282L143.009 241.855C148.832 242.413 154.406 242.785 159.721 242.997L159.369 247.486C153.95 247.238 148.21 246.866 142.201 246.282Z" fill="#263238"/>
<path d="M163.762 243.148C171.865 243.369 179.18 243.245 185.521 242.953V247.486C181.501 247.663 177.087 247.778 172.341 247.778C169.544 247.778 166.622 247.733 163.597 247.645L163.762 243.148Z" fill="#263238"/>
<path d="M262.503 194.761L271.248 190.255C271.248 190.255 274.926 182.022 279.537 179.782C284.148 177.543 288.738 175.48 289.898 176.038C291.059 176.595 289.67 178.472 286.676 180.34C284.811 181.508 290.24 179.526 297.203 176.799C301.347 175.152 306.134 172.86 306.87 173.851C309.574 177.454 295.742 182.04 295.742 182.04C295.742 182.04 300.487 181.845 298.643 184.837C298.643 184.837 299.337 187.643 297.721 188.582L295.887 190.494C295.133 192.382 293.677 194.007 291.742 195.124C287.57 197.109 282.927 198.262 278.159 198.496L266.658 205.375L262.503 194.761Z" fill="white" stroke="#263238" stroke-linecap="round" stroke-linejoin="round"/>
<path d="M292.882 182.402C292.882 182.402 283.101 184.084 283.619 185.943C284.138 187.802 287.173 186.492 287.173 186.492C287.173 186.492 283.941 187.431 284.293 188.457C284.645 189.484 286.935 189.467 286.935 189.467C286.935 189.467 283.941 190.051 284.293 191.237C284.645 192.423 286.635 192.831 288.282 192.645C289.929 192.459 291.193 191.981 291.66 192.689C292.126 193.397 287.163 192.264 284.293 193.999" stroke="#263238" stroke-linecap="round" stroke-linejoin="round"/>
<path d="M285.101 180.995C284.948 182.033 284.44 183.009 283.64 183.801C282.449 184.74 283.485 187.918 279.112 191.379" stroke="#263238" stroke-linecap="round" stroke-linejoin="round"/>
<path d="M295.037 185.625L289.598 186.183" stroke="#263238" stroke-linecap="round" stroke-linejoin="round"/>
<path d="M294.602 189.13L289.598 189.484" stroke="#263238" stroke-linecap="round" stroke-linejoin="round"/>
<path d="M241.791 199.514C249.386 197.744 258.566 192.901 262.98 190.396C263.234 190.246 263.529 190.154 263.836 190.128C264.143 190.101 264.454 190.142 264.738 190.245C265.022 190.348 265.271 190.511 265.462 190.719C265.653 190.926 265.779 191.171 265.829 191.432C266.327 194.858 267.901 200.691 273.206 202.276C280.801 204.56 273.548 208.083 268.72 209.27C263.892 210.456 229.348 224.761 218.987 222.805C208.626 220.848 205.175 219.432 200.337 210.881C195.498 202.329 197.912 161.077 197.912 161.077L212.418 157.987C212.418 157.987 216.21 160.891 218.054 180.34C219.899 199.789 222.934 202.223 222.934 202.223C222.934 202.223 232.145 196.407 229.731 202.028C229.71 202.028 239.18 200.116 241.791 199.514Z" fill="#7E8AF5" stroke="#263238" stroke-linecap="round" stroke-linejoin="round"/>
<path d="M224.872 205.366C224.872 205.366 221.131 216.042 218.313 215.227C215.495 214.413 216.241 211.5 220.903 205.366" stroke="#263238" stroke-linecap="round" stroke-linejoin="round"/>
<path d="M212.449 157.988C205.725 152.526 195.871 147.046 175.512 145.922C155.152 144.797 126.815 149.011 125.779 155.748C124.743 162.485 136.482 198.594 136.482 230.941C136.482 235.712 137.176 241.041 148.915 241.041C160.654 241.041 214.511 244.405 215.226 233.464C215.941 222.522 212.47 211.58 213.506 195.867C214.542 180.154 217.63 162.201 212.449 157.988Z" fill="#7E8AF5" stroke="#263238" stroke-linecap="round" stroke-linejoin="round"/>
<path d="M131.498 151.083C131.498 151.083 123.043 153.234 121.199 164.087C119.355 174.94 111.304 199.435 114.298 200.001C117.293 200.568 107.16 204.861 110.838 211.226C114.516 217.591 131.094 238.155 140.761 235.915C150.428 233.676 149.961 220.946 146.977 218.706C143.993 216.467 133.829 211.766 133.829 211.766C133.829 211.766 136.813 210.27 133.135 207.464C129.457 204.657 135.798 208.88 137.735 199.417C140.035 188.201 148.096 172.107 143.258 162.387" fill="#7E8AF5"/>
<path d="M131.498 151.083C131.498 151.083 123.043 153.234 121.199 164.087C119.355 174.94 111.304 199.435 114.298 200.001C117.293 200.568 107.16 204.861 110.838 211.226C114.516 217.591 131.094 238.155 140.761 235.915C150.428 233.676 149.961 220.946 146.977 218.706C143.993 216.467 133.829 211.766 133.829 211.766C133.829 211.766 136.813 210.27 133.135 207.464C129.457 204.657 135.798 208.88 137.735 199.417C140.035 188.201 148.096 172.107 143.258 162.387" stroke="#263238" stroke-linecap="round" stroke-linejoin="round"/>
<path d="M132.016 201.666C132.016 201.666 118.899 199.01 115.438 203.534C111.978 208.057 120.888 202.604 129.436 204.472" stroke="#263238" stroke-linecap="round" stroke-linejoin="round"/>
<path d="M150.997 222.991C148.925 221.725 143.983 219.53 140.761 222.106C137.538 224.682 129.83 226.213 130.285 228.178C130.741 230.144 133.622 230.71 138.802 228.559C143.983 226.408 139.704 229.117 140.636 233.419C141.569 237.721 142.325 241.634 146.376 240.899C146.376 240.899 146.739 242.767 150.427 241.926C150.427 241.926 153.183 243.856 157.556 242.148C157.556 242.148 159.98 244.263 163.545 240.616C167.109 236.969 164.912 236.066 164.912 236.066C164.912 236.066 163.306 231.843 159.732 236.066C159.732 236.066 160.353 230.843 156.748 227.568C154.96 225.927 153.039 224.398 150.997 222.991V222.991Z" fill="white" stroke="#263238" stroke-linecap="round" stroke-linejoin="round"/>
<path d="M147.93 239.607C147.93 239.607 153.764 236.429 152.5 234.561C151.236 232.693 146.511 236.615 146.511 236.615C146.511 236.615 147.205 235.606 145.827 234.057" stroke="#263238" stroke-linecap="round" stroke-linejoin="round"/>
<path d="M152.147 240.66C152.147 240.66 160.965 238.314 158.944 236.066C157.152 234.083 153.36 236.358 153.36 236.358" stroke="#263238" stroke-linecap="round" stroke-linejoin="round"/>
<path d="M163.876 236.854C163.876 236.854 162.944 239.103 158.81 241.28" stroke="#263238" stroke-linecap="round" stroke-linejoin="round"/>
<path d="M149.247 230.232C150.494 231.876 152.233 233.205 154.282 234.083" stroke="#263238" stroke-linecap="round" stroke-linejoin="round"/>
<path d="M132.016 210.881C132.016 210.881 124.598 207.791 118.899 210.173" stroke="#263238" stroke-linecap="round" stroke-linejoin="round"/>
<path d="M188.111 151.676L182.184 149.852L175.512 151.676C175.512 151.676 179.998 157.43 181.811 157.704C181.811 157.704 188.308 200.798 190.359 220.919C192.411 241.041 191.737 242.9 191.737 242.9L200.71 249.176L207.268 241.262C207.268 241.262 203.818 209.615 199.332 190.803C196.551 179.302 192.266 168.104 186.557 157.421C186.557 157.421 189.199 154.526 188.111 151.676Z" fill="#7E8AF5"/>
<path opacity="0.3" d="M188.111 151.676L182.184 149.852L175.512 151.676C175.512 151.676 179.998 157.43 181.811 157.704C181.811 157.704 188.308 200.798 190.359 220.919C192.411 241.041 191.737 242.9 191.737 242.9L200.71 249.176L207.268 241.262C207.268 241.262 203.818 209.615 199.332 190.803C196.551 179.302 192.266 168.104 186.557 157.421C186.557 157.421 189.199 154.526 188.111 151.676Z" fill="black"/>
<path d="M188.111 151.676L182.184 149.852L175.512 151.676C175.512 151.676 179.998 157.43 181.811 157.704C181.811 157.704 188.308 200.798 190.359 220.919C192.411 241.041 191.737 242.9 191.737 242.9L200.71 249.176L207.268 241.262C207.268 241.262 203.818 209.615 199.332 190.803C196.551 179.302 192.266 168.104 186.557 157.421C186.557 157.421 189.199 154.526 188.111 151.676Z" stroke="#263238" stroke-linecap="round" stroke-linejoin="round"/>
<path d="M188.815 136.919C188.815 136.919 187.645 143.39 190.556 147.825C190.556 147.825 184.257 150.18 181.552 150.481C178.848 150.782 164.975 143.717 164.975 143.717C166.788 136.281 167.436 128.672 166.902 121.09C166.011 108.609 182.578 128.889 182.578 128.889L190.546 135.086L188.815 136.919Z" fill="white"/>
<path d="M191.385 137.512C191.385 137.512 191.551 141.717 184.567 141.575C177.584 141.433 170.642 132.563 169.471 130.35C168.3 128.137 166.912 117.727 166.912 117.727L184.526 121.958L193.074 136.919L191.385 137.512Z" fill="#263238" stroke="#263238" stroke-linecap="round" stroke-linejoin="round"/>
<path d="M188.815 136.919C188.815 136.919 187.645 143.39 190.556 147.825C190.556 147.825 184.257 150.18 181.552 150.481C178.848 150.782 164.975 143.717 164.975 143.717C166.788 136.281 167.436 128.672 166.902 121.09C166.011 108.609 182.578 128.889 182.578 128.889L190.546 135.086L188.815 136.919Z" stroke="#263238" stroke-linecap="round" stroke-linejoin="round"/>
<path d="M189.551 144.612C189.551 144.612 186.101 149.666 182.184 149.852C178.268 150.038 165.15 139.229 162.394 140.876C160.677 141.984 159.423 143.537 158.82 145.302L170.549 157.173C170.549 157.173 179.138 150.906 182.588 151.092C186.038 151.277 193.457 157.173 193.457 157.173V148.577C193.457 148.577 191.177 142.655 189.551 144.612Z" fill="#7E8AF5" stroke="#263238" stroke-linecap="round" stroke-linejoin="round"/>
<path d="M194.555 99.2251C194.555 99.2251 199.384 111.326 198.43 114.407C198.43 114.407 202.927 137.344 192.214 139.194C183.759 140.628 175.398 133.688 172.206 130.642C171.338 129.81 170.673 128.838 170.248 127.783L168.176 122.596C168.176 122.596 163.959 122.861 161.389 118.028C158.82 113.194 164.052 108.502 168.103 115.823C168.103 115.823 171.274 108.423 171.036 105.448C170.797 102.474 175.367 103.2 176.309 100.261C176.309 100.243 187.147 101.739 194.555 99.2251Z" fill="white"/>
<path d="M194.555 99.2251C194.555 99.2251 199.384 111.326 198.43 114.407C198.43 114.407 202.927 137.344 192.214 139.194C183.759 140.628 175.398 133.688 172.206 130.642C171.338 129.81 170.673 128.838 170.248 127.783L168.176 122.596C168.176 122.596 163.959 122.861 161.389 118.028C158.82 113.194 164.052 108.502 168.103 115.823C168.103 115.823 171.274 108.423 171.036 105.448C170.797 102.474 175.367 103.2 176.309 100.261C176.309 100.243 187.147 101.739 194.555 99.2251Z" stroke="#263238" stroke-linecap="round" stroke-linejoin="round"/>
<path d="M194.037 116.496L199.756 122.649C199.89 122.796 199.981 122.968 200.02 123.151C200.059 123.334 200.046 123.523 199.982 123.701C199.918 123.879 199.805 124.041 199.652 124.174C199.499 124.307 199.311 124.406 199.104 124.463L195.042 125.685" fill="white"/>
<path d="M194.037 116.496L199.756 122.649C199.89 122.796 199.981 122.968 200.02 123.151C200.059 123.334 200.046 123.523 199.982 123.701C199.918 123.879 199.805 124.041 199.652 124.174C199.499 124.307 199.311 124.406 199.104 124.463L195.042 125.685" stroke="#263238" stroke-linecap="round" stroke-linejoin="round"/>
<path d="M185.717 128.146C185.717 128.146 187.489 131.262 193.416 128.509" stroke="#263238" stroke-linecap="round" stroke-linejoin="round"/>
<path d="M193.063 116.248C193.239 119.311 191.478 121.861 189.136 121.949C186.795 122.038 184.754 119.63 184.578 116.576C184.401 113.522 186.163 112.637 188.504 112.548C190.846 112.459 192.887 113.185 193.063 116.248Z" stroke="#263238" stroke-linecap="round" stroke-linejoin="round"/>
<path d="M203.85 115.558C204.026 118.621 202.617 121.161 200.741 121.232C198.866 121.303 197.136 118.886 196.96 115.823C196.783 112.76 198.213 111.902 200.13 111.822C202.047 111.742 203.673 112.495 203.85 115.558Z" fill="white" stroke="#263238" stroke-linecap="round" stroke-linejoin="round"/>
<path d="M184.599 111.796C184.599 111.796 187.147 108.609 191.665 111.043" stroke="#263238" stroke-linecap="round" stroke-linejoin="round"/>
<path d="M197.032 111.034C197.836 110.246 198.934 109.721 200.14 109.547" stroke="#263238" stroke-linecap="round" stroke-linejoin="round"/>
<path d="M184.598 116.558C183.103 116.915 181.568 117.141 180.019 117.231C176.506 116.939 166.933 112.964 166.933 112.964" stroke="#263238" stroke-linecap="round" stroke-linejoin="round"/>
<path d="M196.908 115.319L193.24 115.859" stroke="#263238" stroke-linecap="round" stroke-linejoin="round"/>
<path d="M191.002 116.62C190.898 117.567 190.235 118.284 189.51 118.231C188.785 118.178 188.298 117.346 188.391 116.461C188.484 115.576 189.168 114.797 189.883 114.85C190.598 114.903 191.105 115.673 191.002 116.62Z" fill="#263238"/>
<path d="M199.933 115.584C199.829 116.47 199.332 117.222 198.814 117.178C198.296 117.134 197.964 116.372 198.068 115.452C198.171 114.531 198.658 113.823 199.176 113.858C199.694 113.894 200.026 114.673 199.933 115.584Z" fill="#263238"/>
<path d="M158.996 222.212C160.809 218.211 172.984 218.875 172.984 218.875" stroke="#263238" stroke-linecap="round" stroke-linejoin="round"/>
<path d="M188.038 224.23C175.139 226.886 161.099 228.789 159.245 225.045" stroke="#263238" stroke-linecap="round" stroke-linejoin="round"/>
<path d="M210.304 218.875C210.304 218.875 208.957 219.246 206.709 219.839" stroke="#263238" stroke-linecap="round" stroke-linejoin="round"/>
<path d="M475.331 384.468H20.251V332.699C20.251 332.699 108.434 303.486 222.292 303.486C361.1 303.53 475.331 384.468 475.331 384.468Z" fill="#7E8AF5" stroke="#263238" stroke-linecap="round" stroke-linejoin="round"/>
<path opacity="0.2" d="M287.826 317.969L234.104 311.781L179.459 319.668L233.182 325.865L287.826 317.969Z" fill="black"/>
<path d="M281.247 317.535L231.327 311.781L180.547 319.111L230.467 324.865L281.247 317.535Z" fill="white" stroke="#263238" stroke-linecap="round" stroke-linejoin="round"/>
<path d="M287.826 315.808L237.906 310.054L187.126 317.384L237.046 323.138L287.826 315.808Z" fill="white" stroke="#263238" stroke-linecap="round" stroke-linejoin="round"/>
<path opacity="0.2" d="M185.261 347.668C194.732 347.668 202.409 346.329 202.409 344.676C202.409 343.024 194.732 341.684 185.261 341.684C175.791 341.684 168.114 343.024 168.114 344.676C168.114 346.329 175.791 347.668 185.261 347.668Z" fill="black"/>
<path d="M195.177 343.862C195.177 344.694 189.644 345.367 182.806 345.367C175.968 345.367 170.445 344.694 170.445 343.862V324.032C170.445 323.2 175.978 322.527 182.806 322.527C189.634 322.527 195.177 323.2 195.177 324.032V343.862Z" fill="white" stroke="#263238" stroke-linecap="round" stroke-linejoin="round"/>
<path d="M195.177 324.032C195.177 324.864 189.644 325.537 182.806 325.537C175.968 325.537 170.445 324.864 170.445 324.032C170.445 323.2 175.978 322.527 182.806 322.527C189.634 322.527 195.177 323.2 195.177 324.032Z" fill="white" stroke="#263238" stroke-linecap="round" stroke-linejoin="round"/>
<path d="M193.685 341.985C193.358 341.991 193.04 341.895 192.788 341.716C192.537 341.538 192.37 341.287 192.317 341.011C192.294 340.861 192.307 340.708 192.354 340.562C192.401 340.416 192.482 340.279 192.592 340.161C192.703 340.042 192.84 339.943 192.995 339.87C193.151 339.797 193.322 339.752 193.499 339.736C193.809 339.736 201.311 338.745 201.311 332.973C201.311 331.521 200.855 330.539 199.964 330.043C198.296 329.158 195.177 329.848 194.213 330.176C193.876 330.29 193.5 330.29 193.162 330.175C192.825 330.06 192.552 329.838 192.4 329.556C192.334 329.418 192.301 329.269 192.303 329.119C192.305 328.969 192.343 328.821 192.413 328.684C192.484 328.547 192.586 328.423 192.714 328.321C192.841 328.218 192.992 328.139 193.157 328.087C193.685 327.91 198.337 326.44 201.508 328.175C203.217 329.114 204.088 330.725 204.088 332.973C204.088 339.17 197.415 341.569 193.882 341.976L193.685 341.985Z" fill="white" stroke="#263238" stroke-linecap="round" stroke-linejoin="round"/>
<path d="M211.454 329.079C210.636 329.752 210.076 330.389 210.221 330.513C210.366 330.637 211.154 330.176 211.983 329.504C212.811 328.831 213.361 328.194 213.216 328.078C213.07 327.963 212.283 328.415 211.454 329.079Z" fill="#263238" stroke="#263238" stroke-linecap="round" stroke-linejoin="round"/>
<path d="M215.91 322.997C212.522 325.75 210.574 328.627 211.558 329.424C212.542 330.22 216.096 328.645 219.484 325.883L241.315 308.134C244.703 305.38 246.651 302.495 245.667 301.698C244.682 300.901 241.139 302.477 237.751 305.239L215.91 322.997Z" fill="#7E8AF5" stroke="#263238" stroke-linecap="round" stroke-linejoin="round"/>
<path d="M238.114 310.745L237.212 311.48C236.58 311.046 235.958 310.595 235.358 310.09C234.757 309.586 234.176 309.09 233.648 308.585L234.549 307.851C235.078 308.355 235.648 308.86 236.259 309.356C236.87 309.851 237.492 310.312 238.114 310.745Z" fill="#263238" stroke="#263238" stroke-linecap="round" stroke-linejoin="round"/>
<path d="M242.983 301.99C242.983 301.99 241.47 301.194 238.01 303.371C234.549 305.549 231.327 309.311 229.721 309.187" stroke="#263238" stroke-linecap="round" stroke-linejoin="round"/>
<path d="M200.938 338.639C200.938 338.639 203.456 333.443 203.456 330.787C203.456 328.131 210.004 319.182 214.853 317.606C219.702 316.03 236.031 309.453 237.222 312.117C238.414 314.782 231.068 318.084 229.524 318.704C227.807 319.625 226.191 320.676 224.696 321.846C224.696 321.846 232.166 320.571 232.985 318.553C233.803 316.535 236.093 313.844 237.336 315.57C238.58 317.296 238.01 321.687 236.072 325.06V327.335C236.072 327.335 238.196 329.99 235.886 332.195L234.104 333.762C234.104 333.762 237.212 336.417 232.985 338.63C232.985 338.63 234.922 340.985 231.441 343.331C231.441 343.331 224.105 346.314 219.474 347.253C214.843 348.191 210.791 353.848 210.791 353.848L200.938 338.639Z" fill="white" stroke="#263238" stroke-linecap="round" stroke-linejoin="round"/>
<path d="M59.0635 248.654L71.1652 225.576L63.3737 206.242L62.5966 184.067L83.9197 173.851L102.746 171.142L110.423 174.94L113.615 181.26C113.615 181.26 123.188 197.797 121.707 200.975C120.225 204.153 119.127 207.172 119.127 207.172C119.127 207.172 123.644 215.758 126.317 218.485C128.99 221.212 120.702 219.556 119.728 224.469C118.754 229.382 119.914 242.422 112.806 243.015C105.699 243.608 101.409 241.723 100.756 246.848C100.104 251.974 92.8095 264.987 92.8095 264.987L59.0635 248.654Z" fill="white" stroke="#263238" stroke-linecap="round" stroke-linejoin="round"/>
<path d="M118.432 156.394C117.396 153.42 107.418 157.554 106.382 163.928C106.382 163.928 105.108 154.19 101.813 153.26C98.9327 152.455 94.954 156.872 96.3942 162.113C96.3942 162.113 85.6291 157.279 82.1581 158.404C79.5885 159.236 78.6871 163.52 84.2303 167.256C84.2303 167.256 50.5775 160.865 52.5461 185.908C52.5461 185.908 34.0412 197.691 68.2742 231.162C68.2742 231.162 76.3973 229.622 78.6353 228.506C79.9305 227.86 90.7578 220.539 90.7578 220.539C87.6495 219.592 82.241 216.883 80.7697 213.616C78.9047 209.482 81.4017 204.543 85.9503 203.879C88.6752 203.48 90.219 204.516 92.1669 206.375C92.1669 206.375 87.6806 201.533 87.9603 199.656C88.3126 197.31 95.0887 194.823 95.5861 192.494C95.814 191.397 92.7989 189.237 93.5967 188.325C97.6583 183.695 117.065 189.06 115.075 173.709C113.086 158.359 119.883 160.564 118.432 156.394Z" fill="#263238" stroke="#263238" stroke-linecap="round" stroke-linejoin="round"/>
<path d="M117.718 205.968C117.718 207.181 117.438 208.172 116.982 208.181C116.526 208.19 116.143 207.216 116.101 206.003C116.06 204.79 116.381 203.799 116.827 203.79C117.272 203.781 117.676 204.773 117.718 205.968Z" fill="#263238"/>
<path d="M114.319 201.613C114.319 201.613 115.501 198.505 117.873 198.302" stroke="#263238" stroke-linecap="round" stroke-linejoin="round"/>
<path d="M88.8931 177.702C100.518 178.49 90.9031 163.91 90.9031 163.91" stroke="#7F7F7F" stroke-linecap="round" stroke-linejoin="round"/>
<path d="M59.4053 184.527C59.4053 184.527 68.5541 173.161 85.4012 177.135" stroke="#7F7F7F" stroke-linecap="round" stroke-linejoin="round"/>
<path d="M104.818 171.187C105.958 176.232 104.818 182.978 91.2451 183.792" stroke="#7F7F7F" stroke-linecap="round" stroke-linejoin="round"/>
<path d="M102.497 165.583C102.968 166.349 103.376 167.142 103.72 167.955" stroke="#7F7F7F" stroke-linecap="round" stroke-linejoin="round"/>
<path d="M115.055 384.469C115.055 384.469 125.54 292.208 113.107 274.796C100.674 257.383 63.5084 236.951 50.2152 245.804C4.08761 276.664 3.93219 303.017 1 384.451L115.055 384.469Z" fill="#263238" stroke="#263238" stroke-linecap="round" stroke-linejoin="round"/>
<path d="M104.932 271.476C104.932 271.476 119.593 274.769 127.726 293.607C135.217 310.896 148.832 333.691 157.919 345.049C158.637 345.92 159.629 346.6 160.781 347.01C161.932 347.42 163.195 347.544 164.425 347.368C168.425 346.828 176.05 346.412 183.355 343.022C190.121 339.879 196.099 336.435 203.621 337.374C211.143 338.312 215.858 344.287 214.646 352.919C213.485 361.151 170.165 382.565 144.584 382.565C123.717 382.565 104.642 333.629 98.2698 319.04C91.8977 304.451 85.2459 272.441 104.932 271.476Z" fill="#263238" stroke="#263238" stroke-linecap="round" stroke-linejoin="round"/>
<path d="M97.2129 273.441C99.1209 272.236 101.41 271.551 103.782 271.476" stroke="#7F7F7F" stroke-linecap="round" stroke-linejoin="round"/>
<path d="M92.105 280.328C92.5043 279.16 93.0497 278.033 93.7317 276.964" stroke="#7F7F7F" stroke-linecap="round" stroke-linejoin="round"/>
<path d="M113.532 349.909C107.336 339.909 101.856 329.598 97.12 319.031C93.1517 309.94 89.0694 294.094 91.3178 283.214" stroke="#7F7F7F" stroke-linecap="round" stroke-linejoin="round"/>
<path d="M104.445 268.209C104.445 268.209 110.237 260.995 104.445 255.028C98.6533 249.062 72.2222 236.172 62.3377 239.35C61.5922 239.559 60.9039 239.895 60.3144 240.338C59.7248 240.78 59.2462 241.32 58.9073 241.924C58.5685 242.529 58.3765 243.186 58.3428 243.856C58.3091 244.526 58.4344 245.194 58.7113 245.822C58.7113 245.822 78.5839 246.565 104.445 268.209Z" fill="#263238" stroke="#263238" stroke-linecap="round" stroke-linejoin="round"/>
<path d="M101.233 266.165C102.052 266.82 102.881 267.492 103.71 268.192" stroke="#7F7F7F" stroke-linecap="round" stroke-linejoin="round"/>
<path d="M65.4976 247.149C72.367 248.92 83.474 253.089 96.6844 262.712" stroke="#7F7F7F" stroke-linecap="round" stroke-linejoin="round"/>
<path d="M58.0068 245.804C59.1715 245.879 60.3281 246.027 61.4674 246.246" stroke="#7F7F7F" stroke-linecap="round" stroke-linejoin="round"/>
<path d="M163.69 359.496C163.69 359.496 163.69 354.326 160.509 352.909C157.328 351.493 159.929 359.496 156.748 366.091" stroke="#7F7F7F" stroke-linecap="round" stroke-linejoin="round"/>
<path d="M130.109 303.035C130.109 303.035 132.72 303.265 135.031 324.909" stroke="#7F7F7F" stroke-linecap="round" stroke-linejoin="round"/>
<path d="M90.7063 220.486L92.9236 220.84C92.9969 223.504 93.7352 226.123 95.0891 228.524C97.1613 231.817 100.104 232.445 107.015 238.855C113.459 244.821 116.423 240.935 116.796 240.377C116.447 241.08 115.892 241.694 115.184 242.159C114.476 242.625 113.639 242.926 112.755 243.033C105.657 243.626 101.358 241.741 100.705 246.866C99.5651 242.9 95.8558 238.129 92.9236 232.162C91.1421 228.468 90.3833 224.472 90.7063 220.486V220.486Z" fill="#263238" stroke="#263238" stroke-linecap="round" stroke-linejoin="round"/>
<path opacity="0.3" d="M93.7319 216.759C94.5504 212.678 89.5875 204.366 92.1881 206.295C94.7887 208.225 98.1768 215.343 102.228 218.052C106.279 220.76 105.896 227.108 111.688 224.443C114.212 223.241 117.184 222.924 119.977 223.558C119.845 223.843 119.751 224.14 119.697 224.443C118.733 229.383 119.883 242.396 112.776 242.989C110.728 243.119 108.674 243.157 106.621 243.104C102.601 239.51 96.861 234.172 94.6644 231.073C91.1106 226.107 92.9237 220.84 93.7319 216.759Z" fill="#263238"/>
<path d="M118.381 228.559C118.381 228.559 114.744 227.205 114.817 225.257" stroke="#263238" stroke-linecap="round" stroke-linejoin="round"/>
</svg>
