<svg width="375" height="237" viewBox="0 0 375 237" fill="none" xmlns="http://www.w3.org/2000/svg">
<path d="M336.548 220.358H311.773V220.518H336.548V220.358Z" fill="#EBEBEB"/>
<path d="M247.77 222.097H241.269V222.256H247.77V222.097Z" fill="#EBEBEB"/>
<path d="M311.025 214.427H296.669V214.587H311.025V214.427Z" fill="#EBEBEB"/>
<path d="M71.551 215.501H39.2427V215.661H71.551V215.501Z" fill="#EBEBEB"/>
<path d="M82.9515 215.501H78.2163V215.661H82.9515V215.501Z" fill="#EBEBEB"/>
<path d="M168.424 218.198H98.3462V218.358H168.424V218.198Z" fill="#EBEBEB"/>
<path d="M177.288 181.569H32.8544C31.7215 181.569 30.6351 181.185 29.8341 180.501C29.033 179.816 28.583 178.888 28.583 177.92V4.44096C28.5929 3.47862 29.0472 2.55856 29.8472 1.88106C30.6472 1.20355 31.728 0.823449 32.8544 0.823486H177.288C178.421 0.823486 179.507 1.20798 180.308 1.89238C181.109 2.57678 181.559 3.50503 181.559 4.47292V177.92C181.559 178.888 181.109 179.816 180.308 180.501C179.507 181.185 178.421 181.569 177.288 181.569V181.569ZM32.8544 0.951313C31.7717 0.953002 30.734 1.3212 29.9685 1.97527C29.203 2.62934 28.772 3.51597 28.77 4.44096V177.92C28.772 178.845 29.203 179.732 29.9685 180.386C30.734 181.04 31.7717 181.408 32.8544 181.41H177.288C178.371 181.408 179.408 181.04 180.174 180.386C180.939 179.732 181.37 178.845 181.372 177.92V4.44096C181.37 3.51597 180.939 2.62934 180.174 1.97527C179.408 1.3212 178.371 0.953002 177.288 0.951313H32.8544Z" fill="#EBEBEB"/>
<path d="M339.099 181.569H194.65C193.518 181.568 192.433 181.183 191.632 180.499C190.832 179.815 190.381 178.887 190.379 177.92V4.44096C190.391 3.47914 190.846 2.56005 191.645 1.8829C192.445 1.20576 193.524 0.825115 194.65 0.823486H339.099C340.223 0.826813 341.3 1.2084 342.096 1.88555C342.893 2.56269 343.346 3.48083 343.355 4.44096V177.92C343.355 178.886 342.907 179.812 342.11 180.496C341.312 181.18 340.229 181.566 339.099 181.569V181.569ZM194.65 0.951313C193.568 0.953002 192.53 1.3212 191.764 1.97527C190.999 2.62934 190.568 3.51597 190.566 4.44096V177.92C190.568 178.845 190.999 179.732 191.764 180.386C192.53 181.04 193.568 181.408 194.65 181.41H339.099C340.182 181.408 341.219 181.04 341.985 180.386C342.75 179.732 343.181 178.845 343.183 177.92V4.44096C343.181 3.51597 342.75 2.62934 341.985 1.97527C341.219 1.3212 340.182 0.953002 339.099 0.951313H194.65Z" fill="#EBEBEB"/>
<path d="M374.026 210.075H0V210.234H374.026V210.075Z" fill="#EBEBEB"/>
<path d="M311.75 26.1777H218.401V111.112H311.75V26.1777Z" fill="#EBEBEB"/>
<path d="M306.14 30.9712H224.011V106.318H306.14V30.9712Z" fill="#F5F5F5"/>
<path d="M256.245 106.318H280.931L304.105 30.9712H279.42L256.245 106.318Z" fill="#FAFAFA"/>
<path d="M267.952 30.9712L244.777 106.318H250.762L273.936 30.9712H267.952Z" fill="#FAFAFA"/>
<path d="M312.925 30.1723H217.219L215.199 26.1458H314.944L312.925 30.1723Z" fill="#F5F5F5"/>
<path d="M312.925 32.5053H217.219L215.199 28.4788H314.944L312.925 32.5053Z" fill="#F0F0F0"/>
<path d="M312.925 34.838H217.219L215.199 30.8115H314.944L312.925 34.838Z" fill="#E6E6E6"/>
<path d="M312.925 37.1708H217.219L215.199 33.1443H314.944L312.925 37.1708Z" fill="#E0E0E0"/>
<path d="M318.43 21.103H211.721V26.4717H318.43V21.103Z" fill="#E0E0E0"/>
<path d="M212.813 75.1479C212.526 75.1479 212.25 75.0503 212.046 74.8765C211.843 74.7027 211.729 74.4669 211.729 74.2212V42.9038C211.729 42.658 211.843 42.4223 212.046 42.2485C212.25 42.0747 212.526 41.9771 212.813 41.9771V41.9771C213.101 41.9771 213.377 42.0747 213.58 42.2485C213.784 42.4223 213.898 42.658 213.898 42.9038V74.2212C213.898 74.4669 213.784 74.7027 213.58 74.8765C213.377 75.0503 213.101 75.1479 212.813 75.1479V75.1479Z" fill="#E0E0E0"/>
<path d="M213.202 25.3979H212.417V43.9966H213.202V25.3979Z" fill="#E0E0E0"/>
<path d="M67.7137 24.5352H66.3672V114.25H67.7137V24.5352Z" fill="#E0E0E0"/>
<path d="M151.533 24.5352H150.186V114.25H151.533V24.5352Z" fill="#E0E0E0"/>
<path d="M156.814 30.1723H61.0935L59.0737 26.1458H158.826L156.814 30.1723Z" fill="#F5F5F5"/>
<path d="M156.814 35.7008H61.0935L59.0737 31.6743H158.826L156.814 35.7008Z" fill="#F5F5F5"/>
<path d="M156.814 41.2294H61.0935L59.0737 37.2029H158.826L156.814 41.2294Z" fill="#F5F5F5"/>
<path d="M156.814 46.7577H61.0935L59.0737 42.7312H158.826L156.814 46.7577Z" fill="#F5F5F5"/>
<path d="M156.814 52.2863H61.0935L59.0737 48.2598H158.826L156.814 52.2863Z" fill="#F5F5F5"/>
<path d="M156.814 57.8146H61.0935L59.0737 53.7881H158.826L156.814 57.8146Z" fill="#F5F5F5"/>
<path d="M156.814 63.3432H61.0935L59.0737 59.3167H158.826L156.814 63.3432Z" fill="#F5F5F5"/>
<path d="M156.814 68.8717H61.0935L59.0737 64.8452H158.826L156.814 68.8717Z" fill="#F5F5F5"/>
<path d="M156.814 74.4H61.0935L59.0737 70.3735H158.826L156.814 74.4Z" fill="#F5F5F5"/>
<path d="M156.814 79.9286H61.0935L59.0737 75.9021H158.826L156.814 79.9286Z" fill="#F5F5F5"/>
<path d="M156.814 85.4572H61.0935L59.0737 81.4307H158.826L156.814 85.4572Z" fill="#F5F5F5"/>
<path d="M156.814 90.9792H61.0935L59.0737 86.9526H158.826L156.814 90.9792Z" fill="#F5F5F5"/>
<path d="M156.814 96.5139H61.0935L59.0737 92.481H158.826L156.814 96.5139Z" fill="#F5F5F5"/>
<path d="M156.814 102.036H61.0935L59.0737 98.0095H158.826L156.814 102.036Z" fill="#F5F5F5"/>
<path d="M156.814 107.565H61.0935L59.0737 103.538H158.826L156.814 107.565Z" fill="#F5F5F5"/>
<path d="M156.814 113.093H61.0935L59.0737 109.067H158.826L156.814 113.093Z" fill="#F5F5F5"/>
<path d="M158.826 113.093H59.0737V115.394H158.826V113.093Z" fill="#E0E0E0"/>
<path d="M162.305 21.103H55.5952V26.4717H162.305V21.103Z" fill="#E0E0E0"/>
<path d="M56.695 75.1479C56.4074 75.1479 56.1315 75.0503 55.928 74.8765C55.7246 74.7027 55.6104 74.4669 55.6104 74.2212V42.9038C55.6104 42.658 55.7246 42.4223 55.928 42.2485C56.1315 42.0747 56.4074 41.9771 56.695 41.9771V41.9771C56.9827 41.9771 57.2586 42.0747 57.462 42.2485C57.6654 42.4223 57.7797 42.658 57.7797 42.9038V74.2212C57.7797 74.4669 57.6654 74.7027 57.462 74.8765C57.2586 75.0503 56.9827 75.1479 56.695 75.1479V75.1479Z" fill="#E0E0E0"/>
<path d="M57.0838 25.3979H56.2983V43.9966H57.0838V25.3979Z" fill="#E0E0E0"/>
<path d="M66.8159 171.714C66.7262 171.797 67.2273 172.398 65.1777 172.136C60.1283 171.497 51.3387 169.739 48.8926 165.304C45.3992 158.97 56.231 161.283 55.857 158.043C55.4829 154.803 43.1401 155.365 41.846 150.616C40.5518 145.868 48.9001 148.13 49.0123 145.816C49.1245 143.503 39.4896 144.934 37.5746 139.809C35.6596 134.683 42.9456 138.46 42.1078 136.325C41.27 134.191 33.1312 124.559 37.5522 123.441C41.9731 122.322 49.4611 132.209 52.3636 133.609C55.266 135.009 57.8094 126.937 61.2504 130.35C64.6914 133.762 59.2307 145.689 63.6143 147.996C66.8832 149.722 65.9631 144.973 70.2719 145.861C76.0992 147.063 74.1319 164.722 66.8159 171.714Z" fill="#EBEBEB"/>
<path d="M51.2339 145.842C52.7196 145.936 54.1851 146.191 55.595 146.603C54.6603 145.403 53.6226 144.264 52.4906 143.196C52.4298 143.134 52.3984 143.056 52.4027 142.975C52.407 142.895 52.4467 142.819 52.5138 142.762C52.5809 142.706 52.6705 142.673 52.7646 142.67C52.8588 142.668 52.9506 142.696 53.0217 142.749C55.4617 145.086 57.55 147.676 59.238 150.456C60.8314 142.282 56.8218 135.117 56.777 135.066C56.7531 135.01 56.7545 134.948 56.7809 134.892C56.8073 134.837 56.8569 134.791 56.9202 134.765C56.9834 134.739 57.0557 134.734 57.1232 134.75C57.1907 134.767 57.2485 134.804 57.2856 134.855C57.3305 134.932 61.6019 142.557 59.6644 151.134C60.1806 151.971 60.7042 152.872 61.2129 153.837C63.0229 157.278 64.4529 160.856 65.4843 164.524C67.3526 161.512 68.3769 158.171 68.4765 154.764C68.4774 154.733 68.4856 154.703 68.5004 154.674C68.5152 154.646 68.5364 154.62 68.5628 154.599C68.5892 154.577 68.6203 154.561 68.6542 154.55C68.6882 154.539 68.7244 154.533 68.7607 154.534C68.7981 154.535 68.8348 154.542 68.869 154.555C68.9031 154.568 68.9339 154.587 68.9596 154.61C68.9853 154.633 69.0054 154.66 69.0188 154.69C69.0321 154.72 69.0385 154.752 69.0375 154.783C68.9477 158.437 67.7988 162.014 65.6937 165.195C67.6025 172.413 68.2404 179.834 67.5863 187.213C67.5834 187.255 67.5709 187.296 67.5494 187.334C67.5279 187.372 67.4979 187.405 67.4611 187.433C67.4242 187.461 67.3813 187.483 67.3348 187.496C67.2882 187.51 67.239 187.516 67.1898 187.513H67.1449C67.0544 187.499 66.9734 187.457 66.9179 187.394C66.8625 187.331 66.8367 187.253 66.8457 187.174C67.7658 175.67 65.7611 166.46 62.9783 159.468C61.4341 157.94 59.3207 156.913 56.9939 156.56C56.9218 156.548 56.8579 156.513 56.8149 156.462C56.7719 156.411 56.753 156.348 56.762 156.285C56.7666 156.254 56.7784 156.224 56.7967 156.197C56.8151 156.17 56.8396 156.146 56.8689 156.127C56.8981 156.108 56.9315 156.094 56.9671 156.086C57.0027 156.078 57.0398 156.076 57.0762 156.081C59.1167 156.382 61.0097 157.186 62.522 158.394C60.9054 154.504 58.7667 150.788 56.1486 147.318C54.5709 146.755 52.8952 146.418 51.189 146.321C51.1149 146.316 51.046 146.287 50.9971 146.239C50.9482 146.191 50.9231 146.129 50.9272 146.066C50.929 146.033 50.9385 146.002 50.9552 145.973C50.9718 145.944 50.9952 145.918 51.024 145.897C51.0527 145.876 51.0861 145.861 51.1222 145.851C51.1583 145.842 51.1963 145.838 51.2339 145.842V145.842Z" fill="#F5F5F5"/>
<path d="M73.3091 174.162C77.5057 174.226 84.672 170.896 87.5221 167.662C90.3721 164.428 82.3455 166.384 83.1684 163.827C83.9913 161.271 93.8954 163.156 95.7207 159.456C97.5459 155.755 90.4095 156.611 90.6938 154.72C90.978 152.828 98.3763 153.218 100.748 149.287C103.119 145.356 96.6184 147.561 97.6357 145.932C98.6531 144.302 106.814 137.45 103.403 136.025C99.9921 134.6 92.3395 141.733 89.7812 142.531C87.2228 143.33 86.6169 138.396 83.2806 140.755C79.9443 143.113 82.4428 153.416 78.523 154.777C75.5981 155.793 76.8399 151.07 73.4737 152.265C67.5192 154.355 71.5811 174.13 73.3091 174.162Z" fill="#E0E0E0"/>
<g opacity="0.3">
<path opacity="0.3" d="M73.3091 174.162C77.5057 174.226 84.672 170.896 87.5221 167.662C90.3721 164.428 82.3455 166.384 83.1684 163.827C83.9913 161.271 93.8954 163.156 95.7207 159.456C97.5459 155.755 90.4095 156.611 90.6938 154.72C90.978 152.828 98.3763 153.218 100.748 149.287C103.119 145.356 96.6184 147.561 97.6357 145.932C98.6531 144.302 106.814 137.45 103.403 136.025C99.9921 134.6 92.3395 141.733 89.7812 142.531C87.2228 143.33 86.6169 138.396 83.2806 140.755C79.9443 143.113 82.4428 153.416 78.523 154.777C75.5981 155.793 76.8399 151.07 73.4737 152.265C67.5192 154.355 71.5811 174.13 73.3091 174.162Z" fill="#E0E0E0"/>
</g>
<path d="M74.6706 169.861C74.6072 169.841 74.5541 169.802 74.5209 169.752C72.9216 166.752 72.2715 163.447 72.6359 160.165C72.6333 160.13 72.6396 160.096 72.6542 160.063C72.6688 160.031 72.6913 160.001 72.7204 159.977C72.7494 159.952 72.7843 159.934 72.8226 159.922C72.8608 159.91 72.9017 159.905 72.9422 159.908C72.9828 159.911 73.0222 159.921 73.0578 159.938C73.0934 159.955 73.1243 159.978 73.1485 160.006C73.1726 160.034 73.1894 160.066 73.1978 160.1C73.2061 160.134 73.2058 160.169 73.1969 160.203C72.8835 163.318 73.4665 166.452 74.895 169.33C76.6295 165.332 78.767 161.47 81.2833 157.787C80.5353 150.118 85.1582 143.791 85.2031 143.727C85.2428 143.673 85.3057 143.635 85.3779 143.622C85.4502 143.608 85.5259 143.619 85.5884 143.653C85.6509 143.687 85.695 143.741 85.7112 143.802C85.7273 143.864 85.7141 143.929 85.6744 143.982C83.0007 147.95 81.6574 152.469 81.792 157.046C84.8081 152.625 88.4073 148.514 92.519 144.794C92.5529 144.761 92.5944 144.734 92.6409 144.715C92.6875 144.696 92.7381 144.686 92.7896 144.684C92.8411 144.683 92.8924 144.691 92.9403 144.707C92.9881 144.723 93.0315 144.748 93.0677 144.779C93.1039 144.811 93.1321 144.848 93.1505 144.889C93.169 144.93 93.1773 144.974 93.175 145.018C93.1726 145.062 93.1597 145.105 93.1369 145.145C93.1141 145.184 93.0821 145.219 93.0427 145.248C90.0049 147.979 87.2633 150.939 84.8515 154.093C87.3785 153.28 90.0582 152.869 92.7584 152.879C92.8325 152.882 92.9021 152.91 92.9524 152.957C93.0028 153.003 93.0298 153.065 93.0277 153.128C93.0258 153.19 92.9958 153.248 92.9441 153.291C92.8924 153.334 92.8231 153.358 92.7509 153.358C89.8482 153.338 86.9705 153.818 84.2905 154.771C82.6381 156.938 81.1151 159.176 79.7274 161.475C80.8543 160.807 82.1376 160.356 83.4885 160.153C84.8394 159.95 86.2258 160 87.552 160.299C87.6241 160.316 87.6857 160.356 87.7235 160.411C87.7613 160.466 87.7722 160.531 87.754 160.593C87.7445 160.624 87.728 160.652 87.7054 160.677C87.6829 160.702 87.6548 160.723 87.6228 160.738C87.5907 160.754 87.5554 160.763 87.5188 160.767C87.4823 160.771 87.4452 160.768 87.4099 160.759C85.9722 160.443 84.4655 160.434 83.0227 160.733C81.58 161.032 80.2453 161.629 79.1364 162.472C74.3133 170.641 71.5629 179.588 71.0649 188.728C71.0611 188.81 71.02 188.888 70.9502 188.946C70.8805 189.003 70.7876 189.035 70.6909 189.035C70.5943 189.035 70.5013 189.003 70.4316 188.946C70.3619 188.888 70.3208 188.81 70.3169 188.728C70.6308 182.286 72.0991 175.923 74.6706 169.861V169.861Z" fill="#F5F5F5"/>
<path d="M61.4824 209.18C57.4803 202.75 54.8472 193.457 54.8472 189.367C54.8665 187.699 55.3148 186.055 56.1602 184.552C57.0057 183.049 58.2276 181.723 59.7394 180.668H80.2435C81.7553 181.723 82.9773 183.049 83.8227 184.552C84.6681 186.055 85.1164 187.699 85.1358 189.367C85.1358 193.444 82.5026 202.737 78.5005 209.18H61.4824Z" fill="#F0F0F0"/>
<path d="M183.407 236.477C263.51 236.477 328.447 233.238 328.447 229.242C328.447 225.246 263.51 222.007 183.407 222.007C103.304 222.007 38.3677 225.246 38.3677 229.242C38.3677 233.238 103.304 236.477 183.407 236.477Z" fill="#F5F5F5"/>
<path d="M218.917 42.1369H200.964C200.379 42.1475 199.816 42.3251 199.363 42.6413C198.91 42.9576 198.594 43.3942 198.466 43.8817L198.346 44.3611C198.036 45.5503 197.267 46.6159 196.162 47.3867C195.058 48.1575 193.683 48.5888 192.257 48.6113H175.201C173.848 48.6371 172.539 48.2047 171.558 47.4084C170.577 46.6121 170.004 45.5167 169.965 44.3611V43.8817C169.951 43.4082 169.718 42.9586 169.317 42.6315C168.916 42.3045 168.38 42.1266 167.825 42.1369H149.872C146.924 42.1817 144.096 43.1482 141.925 44.8535C139.754 46.5588 138.39 48.8848 138.09 51.3915L123.683 192.345C123.531 193.524 123.674 194.716 124.104 195.844C124.533 196.971 125.239 198.008 126.174 198.884C127.109 199.76 128.252 200.456 129.526 200.926C130.8 201.395 132.177 201.627 133.565 201.606H202.587C205.537 201.56 208.364 200.592 210.535 198.886C212.706 197.179 214.07 194.852 214.369 192.345L228.807 51.3915C228.958 50.2129 228.813 49.0203 228.383 47.8932C227.952 46.766 227.246 45.7302 226.31 44.8546C225.374 43.979 224.231 43.2837 222.956 42.8151C221.682 42.3465 220.305 42.1153 218.917 42.1369V42.1369Z" fill="#407BFF"/>
<path opacity="0.7" d="M218.917 42.1369H200.964C200.379 42.1475 199.816 42.3251 199.363 42.6413C198.91 42.9576 198.594 43.3942 198.466 43.8817L198.346 44.3611C198.036 45.5503 197.267 46.6159 196.162 47.3867C195.058 48.1575 193.683 48.5888 192.257 48.6113H175.201C173.848 48.6371 172.539 48.2047 171.558 47.4084C170.577 46.6121 170.004 45.5167 169.965 44.3611V43.8817C169.951 43.4082 169.718 42.9586 169.317 42.6315C168.916 42.3045 168.38 42.1266 167.825 42.1369H149.872C146.924 42.1817 144.096 43.1482 141.925 44.8535C139.754 46.5588 138.39 48.8848 138.09 51.3915L123.683 192.345C123.531 193.524 123.674 194.716 124.104 195.844C124.533 196.971 125.239 198.008 126.174 198.884C127.109 199.76 128.252 200.456 129.526 200.926C130.8 201.395 132.177 201.627 133.565 201.606H202.587C205.537 201.56 208.364 200.592 210.535 198.886C212.706 197.179 214.07 194.852 214.369 192.345L228.807 51.3915C228.958 50.2129 228.813 49.0203 228.383 47.8932C227.952 46.766 227.246 45.7302 226.31 44.8546C225.374 43.979 224.231 43.2837 222.956 42.8151C221.682 42.3465 220.305 42.1153 218.917 42.1369V42.1369Z" fill="white"/>
<path d="M211.923 106.97H175.268C174.96 106.974 174.654 106.923 174.371 106.818C174.088 106.714 173.834 106.559 173.626 106.365C173.418 106.17 173.261 105.94 173.165 105.69C173.069 105.439 173.036 105.174 173.069 104.912L175.829 77.9473C175.895 77.3899 176.198 76.8725 176.681 76.4932C177.163 76.1138 177.792 75.899 178.448 75.8893H215.102C215.411 75.884 215.717 75.9351 216.001 76.0392C216.285 76.1432 216.539 76.2978 216.747 76.4927C216.955 76.6875 217.113 76.918 217.208 77.1689C217.304 77.4197 217.335 77.6851 217.301 77.9473L214.541 104.912C214.474 105.469 214.17 105.986 213.688 106.365C213.206 106.744 212.578 106.959 211.923 106.97Z" fill="white"/>
<path d="M199.73 191.284H138.39C137.623 191.296 136.863 191.169 136.158 190.91C135.454 190.651 134.823 190.267 134.306 189.783C133.789 189.299 133.399 188.727 133.162 188.104C132.924 187.481 132.845 186.822 132.929 186.171V186.171C133.095 184.787 133.849 183.502 135.048 182.56C136.247 181.618 137.808 181.084 139.437 181.058H200.777C201.544 181.046 202.305 181.174 203.009 181.433C203.713 181.691 204.345 182.076 204.861 182.559C205.378 183.043 205.768 183.616 206.005 184.238C206.243 184.861 206.322 185.52 206.238 186.171V186.171C206.074 187.556 205.32 188.842 204.121 189.784C202.921 190.726 201.359 191.26 199.73 191.284V191.284Z" fill="white"/>
<path d="M204.614 68.4754H148.339C147.907 68.4865 147.478 68.4177 147.081 68.2738C146.683 68.1299 146.327 67.9142 146.037 67.6416C145.746 67.369 145.528 67.0459 145.397 66.6945C145.266 66.3431 145.226 65.9716 145.279 65.6057L145.735 61.1318C145.83 60.3561 146.254 59.6369 146.926 59.1095C147.598 58.5821 148.473 58.283 149.386 58.2685H205.662C206.091 58.2619 206.518 58.3334 206.912 58.4783C207.307 58.6232 207.661 58.8382 207.951 59.109C208.241 59.3798 208.461 59.7002 208.595 60.0489C208.729 60.3977 208.774 60.7668 208.729 61.1318L208.265 65.6057C208.172 66.3825 207.749 67.1033 207.077 67.632C206.404 68.1607 205.528 68.4607 204.614 68.4754V68.4754Z" fill="white"/>
<path d="M216.06 60.9785C216.034 61.195 215.917 61.396 215.729 61.5432C215.542 61.6905 215.297 61.7738 215.043 61.7774C214.923 61.7789 214.804 61.7587 214.695 61.7181C214.585 61.6775 214.486 61.6175 214.406 61.5419C214.325 61.4664 214.264 61.3772 214.227 61.28C214.19 61.1829 214.177 61.0801 214.19 60.9785C214.216 60.7626 214.334 60.5624 214.521 60.4162C214.709 60.27 214.953 60.188 215.207 60.186C215.326 60.1836 215.445 60.203 215.555 60.2428C215.665 60.2827 215.763 60.3421 215.844 60.4171C215.925 60.4922 215.986 60.5811 216.023 60.6779C216.06 60.7747 216.073 60.8772 216.06 60.9785V60.9785Z" fill="white"/>
<path d="M215.813 63.3688C215.789 63.5848 215.673 63.7857 215.486 63.933C215.3 64.0804 215.057 64.164 214.803 64.1677C214.683 64.1692 214.565 64.149 214.455 64.1084C214.345 64.0678 214.247 64.0078 214.166 63.9322C214.085 63.8567 214.024 63.7675 213.987 63.6703C213.95 63.5732 213.937 63.4704 213.95 63.3688C213.974 63.1528 214.09 62.952 214.276 62.8046C214.463 62.6572 214.706 62.5737 214.96 62.5699C215.08 62.5684 215.198 62.5886 215.308 62.6292C215.418 62.6698 215.516 62.7299 215.597 62.8054C215.677 62.8809 215.738 62.9702 215.776 63.0673C215.813 63.1644 215.825 63.2672 215.813 63.3688V63.3688Z" fill="white"/>
<path d="M215.574 65.7526C215.548 65.9691 215.43 66.1701 215.243 66.3173C215.055 66.4646 214.811 66.5479 214.556 66.5515C214.437 66.553 214.318 66.5328 214.208 66.4922C214.099 66.4516 214 66.3916 213.919 66.316C213.839 66.2405 213.778 66.1513 213.741 66.0541C213.703 65.957 213.691 65.8542 213.704 65.7526C213.729 65.5361 213.847 65.3351 214.034 65.1879C214.222 65.0406 214.466 64.9573 214.721 64.9537C214.84 64.9522 214.959 64.9724 215.069 65.013C215.179 65.0536 215.277 65.1137 215.358 65.1892C215.438 65.2647 215.499 65.354 215.536 65.4511C215.574 65.5482 215.586 65.651 215.574 65.7526V65.7526Z" fill="white"/>
<path d="M207.367 151.454H138.898C138.589 151.459 138.283 151.408 137.999 151.304C137.716 151.2 137.461 151.045 137.253 150.85C137.045 150.655 136.888 150.425 136.792 150.174C136.696 149.923 136.665 149.658 136.699 149.396L139.886 118.621C139.951 118.064 140.254 117.547 140.737 117.167C141.219 116.788 141.848 116.573 142.504 116.563H210.95C211.258 116.559 211.564 116.611 211.847 116.715C212.13 116.82 212.383 116.975 212.591 117.169C212.798 117.364 212.954 117.594 213.05 117.845C213.145 118.095 213.176 118.36 213.142 118.621L209.993 149.396C209.927 149.954 209.623 150.472 209.139 150.852C208.655 151.231 208.024 151.445 207.367 151.454Z" fill="white"/>
<path d="M157.734 157.883H136.415C136.34 157.885 136.266 157.872 136.197 157.847C136.129 157.822 136.067 157.785 136.017 157.737C135.966 157.69 135.929 157.634 135.906 157.573C135.883 157.513 135.875 157.448 135.884 157.385V157.385C135.899 157.249 135.972 157.122 136.089 157.029C136.206 156.935 136.36 156.883 136.52 156.88H157.839C157.915 156.879 157.989 156.891 158.059 156.917C158.128 156.942 158.19 156.98 158.24 157.028C158.291 157.076 158.329 157.133 158.351 157.194C158.373 157.256 158.38 157.321 158.37 157.385C158.354 157.52 158.28 157.645 158.163 157.737C158.046 157.829 157.893 157.881 157.734 157.883V157.883Z" fill="white"/>
<path d="M184.38 157.883H161.497C161.422 157.886 161.347 157.874 161.277 157.849C161.208 157.824 161.145 157.787 161.094 157.74C161.043 157.692 161.004 157.636 160.981 157.575C160.957 157.514 160.95 157.449 160.959 157.385C160.973 157.249 161.046 157.122 161.164 157.029C161.281 156.935 161.434 156.883 161.594 156.88H184.485C184.56 156.879 184.635 156.891 184.704 156.917C184.774 156.942 184.836 156.98 184.886 157.028C184.936 157.076 184.974 157.133 184.997 157.194C185.019 157.256 185.026 157.321 185.016 157.385C184.999 157.52 184.926 157.645 184.809 157.737C184.691 157.829 184.539 157.881 184.38 157.883V157.883Z" fill="white"/>
<path d="M150.358 162.325H135.966C135.89 162.327 135.815 162.314 135.745 162.289C135.676 162.263 135.613 162.225 135.562 162.177C135.511 162.129 135.473 162.073 135.45 162.011C135.426 161.95 135.419 161.885 135.427 161.82V161.82C135.443 161.685 135.517 161.559 135.634 161.466C135.751 161.373 135.903 161.319 136.063 161.315H150.485C150.561 161.315 150.635 161.328 150.704 161.354C150.773 161.38 150.835 161.418 150.886 161.466C150.937 161.513 150.975 161.569 150.999 161.63C151.023 161.692 151.031 161.756 151.024 161.82V161.82C151.007 161.96 150.93 162.09 150.806 162.184C150.683 162.277 150.523 162.328 150.358 162.325V162.325Z" fill="white"/>
<path d="M177.767 162.325H154.144C154.068 162.327 153.993 162.314 153.923 162.289C153.854 162.263 153.791 162.225 153.74 162.177C153.689 162.13 153.651 162.073 153.627 162.011C153.604 161.95 153.596 161.885 153.605 161.82V161.82C153.621 161.684 153.696 161.557 153.814 161.464C153.933 161.371 154.087 161.318 154.248 161.316H177.864C177.94 161.314 178.015 161.327 178.085 161.352C178.154 161.378 178.217 161.416 178.268 161.464C178.319 161.511 178.357 161.568 178.38 161.63C178.404 161.691 178.411 161.756 178.403 161.82V161.82C178.388 161.957 178.315 162.084 178.198 162.177C178.081 162.27 177.927 162.323 177.767 162.325Z" fill="white"/>
<path d="M173.952 166.761H135.51C135.434 166.763 135.359 166.751 135.29 166.727C135.22 166.702 135.158 166.664 135.107 166.617C135.056 166.57 135.017 166.514 134.994 166.452C134.97 166.391 134.963 166.326 134.971 166.262V166.262C134.988 166.125 135.062 165.999 135.181 165.905C135.299 165.812 135.454 165.76 135.615 165.757H174.057C174.132 165.757 174.207 165.77 174.276 165.796C174.345 165.822 174.407 165.86 174.458 165.908C174.508 165.955 174.547 166.011 174.571 166.072C174.594 166.133 174.603 166.198 174.596 166.262V166.262C174.577 166.398 174.502 166.523 174.384 166.615C174.265 166.707 174.112 166.759 173.952 166.761V166.761Z" fill="white"/>
<path d="M180.281 166.761H177.745C177.669 166.763 177.594 166.751 177.525 166.727C177.455 166.702 177.393 166.665 177.342 166.617C177.29 166.57 177.252 166.514 177.228 166.452C177.205 166.391 177.197 166.326 177.206 166.262V166.262C177.221 166.126 177.294 165.999 177.411 165.906C177.528 165.813 177.682 165.76 177.842 165.757H180.385C180.461 165.756 180.536 165.768 180.605 165.794C180.674 165.82 180.736 165.858 180.787 165.906C180.837 165.954 180.875 166.01 180.897 166.072C180.92 166.133 180.926 166.198 180.916 166.262C180.9 166.397 180.826 166.523 180.709 166.615C180.592 166.706 180.44 166.758 180.281 166.761V166.761Z" fill="white"/>
<path d="M152.999 171.203H135.046C134.971 171.203 134.896 171.19 134.827 171.164C134.758 171.138 134.696 171.1 134.645 171.053C134.595 171.005 134.556 170.949 134.532 170.888C134.509 170.827 134.5 170.762 134.507 170.698V170.698C134.524 170.561 134.598 170.434 134.717 170.341C134.835 170.248 134.99 170.195 135.151 170.193H153.104C153.18 170.192 153.255 170.204 153.324 170.23C153.394 170.255 153.456 170.293 153.507 170.341C153.558 170.389 153.597 170.445 153.62 170.507C153.643 170.568 153.651 170.634 153.643 170.698V170.698C153.626 170.835 153.552 170.962 153.433 171.055C153.315 171.148 153.16 171.2 152.999 171.203V171.203Z" fill="white"/>
<path d="M179.114 171.203H156.762C156.686 171.203 156.612 171.19 156.543 171.164C156.474 171.138 156.412 171.1 156.361 171.053C156.31 171.005 156.272 170.949 156.248 170.888C156.224 170.827 156.216 170.762 156.223 170.698V170.698C156.24 170.561 156.314 170.434 156.433 170.341C156.551 170.248 156.706 170.195 156.867 170.193H179.211C179.287 170.192 179.362 170.204 179.431 170.23C179.501 170.255 179.563 170.293 179.614 170.341C179.665 170.389 179.704 170.445 179.727 170.507C179.75 170.568 179.758 170.634 179.749 170.698V170.698C179.733 170.834 179.66 170.96 179.543 171.053C179.426 171.145 179.273 171.199 179.114 171.203Z" fill="white"/>
<path d="M156.702 175.638H134.597C134.522 175.64 134.447 175.627 134.377 175.602C134.308 175.576 134.246 175.538 134.196 175.49C134.145 175.442 134.108 175.386 134.085 175.324C134.063 175.262 134.056 175.197 134.066 175.134V175.134C134.082 174.998 134.156 174.873 134.273 174.781C134.39 174.689 134.543 174.637 134.702 174.635H156.799C156.875 174.633 156.95 174.644 157.019 174.669C157.089 174.694 157.151 174.731 157.202 174.779C157.253 174.826 157.292 174.882 157.315 174.943C157.339 175.005 157.346 175.07 157.338 175.134V175.134C157.323 175.27 157.25 175.397 157.133 175.49C157.015 175.583 156.862 175.636 156.702 175.638Z" fill="white"/>
<path d="M178.261 175.638H160.457C160.382 175.64 160.307 175.627 160.238 175.602C160.168 175.576 160.106 175.538 160.056 175.49C160.006 175.442 159.968 175.386 159.945 175.324C159.923 175.262 159.917 175.197 159.926 175.134V175.134C159.943 174.998 160.016 174.873 160.134 174.781C160.251 174.689 160.403 174.637 160.562 174.635H178.366C178.441 174.633 178.516 174.644 178.586 174.669C178.655 174.694 178.718 174.731 178.769 174.779C178.82 174.826 178.859 174.882 178.882 174.943C178.905 175.005 178.913 175.07 178.904 175.134V175.134C178.888 175.27 178.813 175.397 178.695 175.49C178.576 175.583 178.422 175.636 178.261 175.638V175.638Z" fill="white"/>
<path d="M211.055 104.414C210.99 104.478 210.911 104.53 210.822 104.567C210.734 104.605 210.637 104.627 210.538 104.632C210.439 104.637 210.34 104.626 210.247 104.598C210.153 104.571 210.067 104.528 209.993 104.471L179.375 79.5068C179.236 79.387 179.158 79.2251 179.158 79.0562C179.158 78.8874 179.236 78.7254 179.375 78.6056V78.6056C179.44 78.5418 179.519 78.4896 179.608 78.4522C179.697 78.4147 179.793 78.3926 179.892 78.3873C179.991 78.3819 180.09 78.3934 180.184 78.421C180.277 78.4486 180.364 78.4918 180.437 78.5481L211.055 103.513C211.195 103.632 211.273 103.794 211.273 103.963C211.273 104.132 211.195 104.294 211.055 104.414V104.414Z" fill="#407BFF"/>
<path d="M176.667 104.407C176.607 104.339 176.562 104.262 176.537 104.179C176.512 104.096 176.507 104.01 176.521 103.925C176.536 103.841 176.57 103.759 176.622 103.686C176.674 103.613 176.743 103.55 176.824 103.5L192.444 92.5899C192.592 92.4801 192.785 92.4246 192.981 92.4354C193.177 92.4462 193.36 92.5223 193.491 92.6474V92.6474C193.551 92.7151 193.594 92.7923 193.619 92.8745C193.643 92.9567 193.648 93.0422 193.633 93.1261C193.619 93.21 193.585 93.2905 193.533 93.363C193.482 93.4356 193.414 93.4986 193.334 93.5486L177.715 104.465C177.566 104.575 177.373 104.63 177.177 104.619C176.981 104.609 176.798 104.532 176.667 104.407Z" fill="#407BFF"/>
<path d="M196.85 90.3017C196.79 90.234 196.747 90.1568 196.722 90.0746C196.698 89.9924 196.693 89.9069 196.707 89.823C196.722 89.7392 196.756 89.6586 196.807 89.5861C196.859 89.5136 196.927 89.4505 197.007 89.4006L212.656 78.4715C212.805 78.3617 212.998 78.3062 213.194 78.317C213.389 78.3278 213.573 78.4039 213.703 78.529C213.763 78.5967 213.806 78.6739 213.831 78.7561C213.855 78.8383 213.86 78.9238 213.846 79.0077C213.831 79.0916 213.797 79.1721 213.746 79.2446C213.694 79.3172 213.626 79.3802 213.546 79.4302L197.897 90.3593C197.749 90.469 197.556 90.5245 197.36 90.5137C197.164 90.503 196.981 90.4268 196.85 90.3017V90.3017Z" fill="#407BFF"/>
<g opacity="0.7">
<path opacity="0.7" d="M211.055 104.414C210.99 104.478 210.911 104.53 210.822 104.567C210.734 104.605 210.637 104.627 210.538 104.632C210.439 104.637 210.34 104.626 210.247 104.598C210.153 104.571 210.067 104.528 209.993 104.471L179.375 79.5068C179.236 79.387 179.158 79.2251 179.158 79.0562C179.158 78.8874 179.236 78.7254 179.375 78.6056V78.6056C179.44 78.5418 179.519 78.4896 179.608 78.4522C179.697 78.4147 179.793 78.3926 179.892 78.3873C179.991 78.3819 180.09 78.3934 180.184 78.421C180.277 78.4486 180.364 78.4918 180.437 78.5481L211.055 103.513C211.195 103.632 211.273 103.794 211.273 103.963C211.273 104.132 211.195 104.294 211.055 104.414V104.414Z" fill="white"/>
</g>
<g opacity="0.7">
<path opacity="0.7" d="M176.667 104.407C176.607 104.339 176.562 104.262 176.537 104.179C176.512 104.096 176.507 104.01 176.521 103.925C176.536 103.841 176.57 103.759 176.622 103.686C176.674 103.613 176.743 103.55 176.824 103.5L192.444 92.5899C192.592 92.4801 192.785 92.4246 192.981 92.4354C193.177 92.4462 193.36 92.5223 193.491 92.6474V92.6474C193.551 92.7151 193.594 92.7923 193.619 92.8745C193.643 92.9567 193.648 93.0422 193.633 93.1261C193.619 93.21 193.585 93.2905 193.533 93.363C193.482 93.4356 193.414 93.4986 193.334 93.5486L177.715 104.465C177.566 104.575 177.373 104.63 177.177 104.619C176.981 104.609 176.798 104.532 176.667 104.407Z" fill="white"/>
</g>
<g opacity="0.7">
<path opacity="0.7" d="M196.85 90.3017C196.79 90.234 196.747 90.1568 196.722 90.0746C196.698 89.9924 196.693 89.9069 196.707 89.823C196.722 89.7392 196.756 89.6586 196.807 89.5861C196.859 89.5136 196.927 89.4505 197.007 89.4006L212.656 78.4715C212.805 78.3617 212.998 78.3062 213.194 78.317C213.389 78.3278 213.573 78.4039 213.703 78.529C213.763 78.5967 213.806 78.6739 213.831 78.7561C213.855 78.8383 213.86 78.9238 213.846 79.0077C213.831 79.0916 213.797 79.1721 213.746 79.2446C213.694 79.3172 213.626 79.3802 213.546 79.4302L197.897 90.3593C197.749 90.469 197.556 90.5245 197.36 90.5137C197.164 90.503 196.981 90.4268 196.85 90.3017V90.3017Z" fill="white"/>
</g>
<path d="M123.982 39.0691H114.257C113.315 39.0725 112.414 39.3945 111.749 39.9647C111.085 40.5349 110.711 41.3067 110.711 42.1114V50.4201C110.711 51.2269 111.087 52.0007 111.754 52.5713C112.422 53.1418 113.328 53.4623 114.272 53.4623H123.997C124.941 53.4623 125.847 53.1418 126.515 52.5713C127.182 52.0007 127.558 51.2269 127.558 50.4201V42.1114C127.558 41.7108 127.465 41.3141 127.285 40.9442C127.105 40.5743 126.842 40.2383 126.509 39.9556C126.177 39.673 125.783 39.4492 125.349 39.297C124.915 39.1449 124.451 39.0674 123.982 39.0691V39.0691ZM119.142 42.0091C120.601 42.0091 121.386 43.0253 121.386 44.2716C121.386 45.5179 120.601 46.5342 119.142 46.5342C117.683 46.5342 116.898 45.5243 116.898 44.2716C116.898 43.0189 117.676 42.0091 119.142 42.0091ZM124.984 50.4904H113.292C113.245 50.4905 113.198 50.4826 113.155 50.4673C113.111 50.4519 113.071 50.4294 113.038 50.4009L113.786 48.6561C114.019 48.1058 114.445 47.6303 115.006 47.2941C115.567 46.958 116.235 46.7774 116.92 46.777H121.341C122.027 46.777 122.697 46.9573 123.259 47.2935C123.821 47.6296 124.248 48.1053 124.483 48.6561L125.231 50.4009C125.199 50.4292 125.161 50.4517 125.118 50.467C125.076 50.4824 125.03 50.4903 124.984 50.4904Z" fill="#407BFF"/>
<path opacity="0.7" d="M123.982 39.0691H114.257C113.315 39.0725 112.414 39.3945 111.749 39.9647C111.085 40.5349 110.711 41.3067 110.711 42.1114V50.4201C110.711 51.2269 111.087 52.0007 111.754 52.5713C112.422 53.1418 113.328 53.4623 114.272 53.4623H123.997C124.941 53.4623 125.847 53.1418 126.515 52.5713C127.182 52.0007 127.558 51.2269 127.558 50.4201V42.1114C127.558 41.7108 127.465 41.3141 127.285 40.9442C127.105 40.5743 126.842 40.2383 126.509 39.9556C126.177 39.673 125.783 39.4492 125.349 39.297C124.915 39.1449 124.451 39.0674 123.982 39.0691V39.0691ZM119.142 42.0091C120.601 42.0091 121.386 43.0253 121.386 44.2716C121.386 45.5179 120.601 46.5342 119.142 46.5342C117.683 46.5342 116.898 45.5243 116.898 44.2716C116.898 43.0189 117.676 42.0091 119.142 42.0091ZM124.984 50.4904H113.292C113.245 50.4905 113.198 50.4826 113.155 50.4673C113.111 50.4519 113.071 50.4294 113.038 50.4009L113.786 48.6561C114.019 48.1058 114.445 47.6303 115.006 47.2941C115.567 46.958 116.235 46.7774 116.92 46.777H121.341C122.027 46.777 122.697 46.9573 123.259 47.2935C123.821 47.6296 124.248 48.1053 124.483 48.6561L125.231 50.4009C125.199 50.4292 125.161 50.4517 125.118 50.467C125.076 50.4824 125.03 50.4903 124.984 50.4904Z" fill="white"/>
<path d="M89.5118 73.1221H82.151C81.5216 73.1212 80.8983 73.2264 80.3166 73.4316C79.7348 73.6368 79.2062 73.938 78.7608 74.3179C78.3155 74.6978 77.9622 75.149 77.7211 75.6457C77.48 76.1424 77.356 76.6748 77.356 77.2125V83.5015C77.356 84.5881 77.8611 85.6301 78.7604 86.3984C79.6596 87.1667 80.8792 87.5984 82.151 87.5984H89.5118C90.1411 87.5984 90.7643 87.4924 91.3456 87.2864C91.927 87.0804 92.4551 86.7786 92.8997 86.3981C93.3444 86.0175 93.6969 85.5659 93.937 85.0688C94.1772 84.5718 94.3003 84.0392 94.2993 83.5015V77.2125C94.3003 76.6751 94.1771 76.1428 93.9369 75.6462C93.6966 75.1495 93.344 74.6983 92.8993 74.3183C92.4545 73.9383 91.9264 73.637 91.3451 73.4317C90.7638 73.2265 90.1408 73.1212 89.5118 73.1221ZM85.8314 83.7892C85.8314 83.7892 82.8392 80.9834 82.8392 79.5517C82.8392 78.8661 83.158 78.2085 83.7254 77.7237C84.2929 77.2388 85.0625 76.9664 85.865 76.9664C86.6675 76.9664 87.4372 77.2388 88.0046 77.7237C88.5721 78.2085 88.8909 78.8661 88.8909 79.5517C88.8535 80.9834 85.8314 83.7892 85.8314 83.7892Z" fill="#407BFF"/>
<path d="M85.8313 78.3757C85.557 78.3745 85.2884 78.4429 85.0596 78.5724C84.8309 78.7018 84.6524 78.8864 84.5467 79.1027C84.441 79.319 84.413 79.5573 84.4662 79.7872C84.5193 80.0172 84.6513 80.2285 84.8453 80.3942C85.0393 80.5599 85.2865 80.6727 85.5557 80.7181C85.8248 80.7635 86.1037 80.7396 86.3569 80.6493C86.61 80.559 86.8261 80.4065 86.9776 80.211C87.1291 80.0156 87.2092 79.7861 87.2077 79.5517C87.2077 79.2399 87.0627 78.9407 86.8046 78.7202C86.5464 78.4997 86.1963 78.3757 85.8313 78.3757Z" fill="#407BFF"/>
<g opacity="0.7">
<path opacity="0.7" d="M89.5118 73.1221H82.151C81.5216 73.1212 80.8983 73.2264 80.3166 73.4316C79.7348 73.6368 79.2062 73.938 78.7608 74.3179C78.3155 74.6978 77.9622 75.149 77.7211 75.6457C77.48 76.1424 77.356 76.6748 77.356 77.2125V83.5015C77.356 84.5881 77.8611 85.6301 78.7604 86.3984C79.6596 87.1667 80.8792 87.5984 82.151 87.5984H89.5118C90.1411 87.5984 90.7643 87.4924 91.3456 87.2864C91.927 87.0804 92.4551 86.7786 92.8997 86.3981C93.3444 86.0175 93.6969 85.5659 93.937 85.0688C94.1772 84.5718 94.3003 84.0392 94.2993 83.5015V77.2125C94.3003 76.6751 94.1771 76.1428 93.9369 75.6462C93.6966 75.1495 93.344 74.6983 92.8993 74.3183C92.4545 73.9383 91.9264 73.637 91.3451 73.4317C90.7638 73.2265 90.1408 73.1212 89.5118 73.1221ZM85.8314 83.7892C85.8314 83.7892 82.8392 80.9834 82.8392 79.5517C82.8392 78.8661 83.158 78.2085 83.7254 77.7237C84.2929 77.2388 85.0625 76.9664 85.865 76.9664C86.6675 76.9664 87.4372 77.2388 88.0046 77.7237C88.5721 78.2085 88.8909 78.8661 88.8909 79.5517C88.8535 80.9834 85.8314 83.7892 85.8314 83.7892Z" fill="white"/>
<path opacity="0.7" d="M85.8313 78.3757C85.557 78.3745 85.2884 78.4429 85.0596 78.5724C84.8309 78.7018 84.6524 78.8864 84.5467 79.1027C84.441 79.319 84.413 79.5573 84.4662 79.7872C84.5193 80.0172 84.6513 80.2285 84.8453 80.3942C85.0393 80.5599 85.2865 80.6727 85.5557 80.7181C85.8248 80.7635 86.1037 80.7396 86.3569 80.6493C86.61 80.559 86.8261 80.4065 86.9776 80.211C87.1291 80.0156 87.2092 79.7861 87.2077 79.5517C87.2077 79.2399 87.0627 78.9407 86.8046 78.7202C86.5464 78.4997 86.1963 78.3757 85.8313 78.3757Z" fill="white"/>
</g>
<path d="M251.121 55.2967L256.05 52.5741L251.121 49.845V55.2967Z" fill="#407BFF"/>
<path d="M257.472 45.1409H248.076C247.015 45.1409 245.997 45.5011 245.246 46.1424C244.496 46.7836 244.074 47.6534 244.074 48.5602V56.5877C244.076 57.494 244.498 58.3628 245.249 59.0037C245.999 59.6446 247.015 60.0054 248.076 60.007H257.472C258.533 60.007 259.551 59.6468 260.302 59.0055C261.052 58.3643 261.474 57.4946 261.474 56.5877V48.5602C261.475 48.111 261.372 47.6659 261.171 47.2507C260.97 46.8355 260.676 46.4582 260.304 46.1405C259.932 45.8228 259.491 45.571 259.005 45.3994C258.519 45.2279 257.998 45.14 257.472 45.1409V45.1409ZM252.774 57.9235C251.535 57.9235 250.325 57.6096 249.295 57.0215C248.265 56.4334 247.462 55.5975 246.989 54.6197C246.515 53.6418 246.392 52.5658 246.634 51.528C246.876 50.4901 247.473 49.5369 248.349 48.789C249.226 48.0411 250.342 47.5321 251.557 47.3265C252.772 47.1208 254.031 47.2276 255.175 47.6335C256.319 48.0394 257.297 48.726 257.984 49.6066C258.671 50.4871 259.037 51.522 259.035 52.5803C259.034 53.282 258.872 53.9766 258.556 54.6246C258.241 55.2725 257.78 55.8611 257.198 56.3566C256.617 56.8522 255.927 57.2451 255.168 57.5128C254.409 57.7806 253.595 57.9179 252.774 57.9171V57.9235Z" fill="#407BFF"/>
<g opacity="0.7">
<path opacity="0.7" d="M251.121 55.2965L256.051 52.5738L251.121 49.8447V55.2965Z" fill="white"/>
<path opacity="0.7" d="M257.472 45.1409H248.076C247.015 45.1409 245.997 45.5011 245.246 46.1424C244.496 46.7836 244.074 47.6534 244.074 48.5602V56.5877C244.076 57.494 244.498 58.3628 245.249 59.0037C245.999 59.6446 247.015 60.0054 248.076 60.007H257.472C258.533 60.007 259.551 59.6468 260.302 59.0055C261.052 58.3643 261.474 57.4946 261.474 56.5877V48.5602C261.475 48.111 261.372 47.6659 261.171 47.2507C260.97 46.8355 260.676 46.4582 260.304 46.1405C259.932 45.8228 259.491 45.571 259.005 45.3994C258.519 45.2279 257.998 45.14 257.472 45.1409V45.1409ZM252.774 57.9235C251.535 57.9235 250.325 57.6096 249.295 57.0215C248.265 56.4334 247.462 55.5975 246.989 54.6197C246.515 53.6418 246.392 52.5658 246.634 51.528C246.876 50.4901 247.473 49.5369 248.349 48.789C249.226 48.0411 250.342 47.5321 251.557 47.3265C252.772 47.1208 254.031 47.2276 255.175 47.6335C256.319 48.0394 257.297 48.726 257.984 49.6066C258.671 50.4871 259.037 51.522 259.035 52.5803C259.034 53.282 258.872 53.9766 258.556 54.6246C258.241 55.2725 257.78 55.8611 257.198 56.3566C256.617 56.8522 255.927 57.2451 255.168 57.5128C254.409 57.7806 253.595 57.9179 252.774 57.9171V57.9235Z" fill="white"/>
</g>
<path d="M266.695 75.9277C266.695 75.7615 266.695 75.5953 266.695 75.4355L267.825 74.8987C267.742 74.4417 267.602 73.9938 267.406 73.5629H266.119C265.955 73.2628 265.76 72.9762 265.536 72.7064L266.201 71.7669C265.86 71.4063 265.477 71.0765 265.057 70.7827L263.95 71.3515C263.635 71.1631 263.303 70.9984 262.955 70.8594V69.7537C262.449 69.5903 261.925 69.4704 261.391 69.3958L260.763 70.3608C260.576 70.3608 260.382 70.3608 260.187 70.3608C259.993 70.3608 259.806 70.3608 259.611 70.3608L258.983 69.3958C258.449 69.472 257.926 69.5919 257.419 69.7537V70.8594C257.071 70.997 256.738 71.1617 256.424 71.3515L255.317 70.7827C254.893 71.0747 254.507 71.4046 254.165 71.7669L254.831 72.7064C254.612 72.9778 254.419 73.2643 254.255 73.5629H252.968C252.773 73.9945 252.63 74.4421 252.542 74.8987L253.672 75.4355C253.672 75.5953 253.672 75.7615 253.672 75.9277C253.672 76.0938 253.672 76.26 253.672 76.4198L252.542 76.9567C252.629 77.4134 252.772 77.8611 252.968 78.2924H254.255C254.419 78.5911 254.612 78.8775 254.831 79.1489L254.165 80.0948C254.509 80.4535 254.895 80.7812 255.317 81.0727L256.424 80.5038C256.736 80.6959 257.069 80.8608 257.419 80.996V82.1017C257.925 82.2664 258.449 82.3863 258.983 82.4596L259.611 81.4945C259.806 81.4945 259.993 81.4945 260.187 81.4945C260.382 81.4945 260.576 81.4945 260.763 81.4945L261.391 82.4596C261.926 82.388 262.45 82.268 262.955 82.1017V80.996C263.304 80.8594 263.637 80.6946 263.95 80.5038L265.057 81.0727C265.475 80.7794 265.858 80.4519 266.201 80.0948L265.536 79.1489C265.76 78.8791 265.955 78.5925 266.119 78.2924H267.406C267.603 77.8618 267.743 77.4138 267.825 76.9567L266.695 76.4198C266.68 76.2408 266.695 76.0938 266.695 75.9277ZM260.172 79.7113C259.296 79.7113 258.44 79.4894 257.712 79.0737C256.984 78.6579 256.416 78.067 256.081 77.3756C255.746 76.6842 255.658 75.9235 255.829 75.1895C256 74.4556 256.421 73.7814 257.041 73.2522C257.66 72.7231 258.449 72.3627 259.308 72.2167C260.167 72.0707 261.058 72.1457 261.867 72.432C262.676 72.7184 263.368 73.2034 263.854 73.8256C264.341 74.4478 264.601 75.1793 264.601 75.9277C264.601 76.9311 264.134 77.8935 263.304 78.6031C262.473 79.3127 261.347 79.7113 260.172 79.7113V79.7113Z" fill="#407BFF"/>
<path opacity="0.7" d="M266.695 75.9277C266.695 75.7615 266.695 75.5953 266.695 75.4355L267.825 74.8987C267.742 74.4417 267.602 73.9938 267.406 73.5629H266.119C265.955 73.2628 265.76 72.9762 265.536 72.7064L266.201 71.7669C265.86 71.4063 265.477 71.0765 265.057 70.7827L263.95 71.3515C263.635 71.1631 263.303 70.9984 262.955 70.8594V69.7537C262.449 69.5903 261.925 69.4704 261.391 69.3958L260.763 70.3608C260.576 70.3608 260.382 70.3608 260.187 70.3608C259.993 70.3608 259.806 70.3608 259.611 70.3608L258.983 69.3958C258.449 69.472 257.926 69.5919 257.419 69.7537V70.8594C257.071 70.997 256.738 71.1617 256.424 71.3515L255.317 70.7827C254.893 71.0747 254.507 71.4046 254.165 71.7669L254.831 72.7064C254.612 72.9778 254.419 73.2643 254.255 73.5629H252.968C252.773 73.9945 252.63 74.4421 252.542 74.8987L253.672 75.4355C253.672 75.5953 253.672 75.7615 253.672 75.9277C253.672 76.0938 253.672 76.26 253.672 76.4198L252.542 76.9567C252.629 77.4134 252.772 77.8611 252.968 78.2924H254.255C254.419 78.5911 254.612 78.8775 254.831 79.1489L254.165 80.0948C254.509 80.4535 254.895 80.7812 255.317 81.0727L256.424 80.5038C256.736 80.6959 257.069 80.8608 257.419 80.996V82.1017C257.925 82.2664 258.449 82.3863 258.983 82.4596L259.611 81.4945C259.806 81.4945 259.993 81.4945 260.187 81.4945C260.382 81.4945 260.576 81.4945 260.763 81.4945L261.391 82.4596C261.926 82.388 262.45 82.268 262.955 82.1017V80.996C263.304 80.8594 263.637 80.6946 263.95 80.5038L265.057 81.0727C265.475 80.7794 265.858 80.4519 266.201 80.0948L265.536 79.1489C265.76 78.8791 265.955 78.5925 266.119 78.2924H267.406C267.603 77.8618 267.743 77.4138 267.825 76.9567L266.695 76.4198C266.68 76.2408 266.695 76.0938 266.695 75.9277ZM260.172 79.7113C259.296 79.7113 258.44 79.4894 257.712 79.0737C256.984 78.6579 256.416 78.067 256.081 77.3756C255.746 76.6842 255.658 75.9235 255.829 75.1895C256 74.4556 256.421 73.7814 257.041 73.2522C257.66 72.7231 258.449 72.3627 259.308 72.2167C260.167 72.0707 261.058 72.1457 261.867 72.432C262.676 72.7184 263.368 73.2034 263.854 73.8256C264.341 74.4478 264.601 75.1793 264.601 75.9277C264.601 76.9311 264.134 77.8935 263.304 78.6031C262.473 79.3127 261.347 79.7113 260.172 79.7113V79.7113Z" fill="white"/>
<path d="M249.647 94.9288C249.647 94.6796 249.647 94.4367 249.61 94.1938L251.3 93.3949C251.173 92.7091 250.962 92.0365 250.672 91.388L248.742 91.42C248.498 90.9725 248.208 90.5447 247.874 90.1417L248.869 88.7293C248.359 88.1916 247.785 87.701 247.156 87.2656L245.503 88.1093C245.029 87.8287 244.529 87.5828 244.007 87.3743V85.7253C243.251 85.4763 242.466 85.2963 241.665 85.1885L240.73 86.6329C240.446 86.6329 240.162 86.6329 239.87 86.6329C239.578 86.6329 239.294 86.6329 239.01 86.6329L238.097 85.1885C237.297 85.2979 236.512 85.4779 235.756 85.7253V87.3743C235.233 87.5825 234.733 87.8284 234.26 88.1093L232.644 87.2656C232.012 87.7009 231.435 88.1915 230.923 88.7293L231.918 90.1417C231.587 90.5448 231.299 90.9727 231.058 91.42L229.128 91.388C228.834 92.0356 228.623 92.7085 228.5 93.3949L230.19 94.1938C230.13 94.6825 230.13 95.1751 230.19 95.6638L228.5 96.4691C228.624 97.1533 228.835 97.824 229.128 98.4696L231.058 98.4376C231.297 98.8857 231.585 99.3137 231.918 99.7159L230.923 101.128C231.435 101.666 232.012 102.157 232.644 102.592L234.297 101.748C234.768 102.032 235.269 102.278 235.793 102.483V104.132C236.549 104.383 237.334 104.563 238.134 104.669L239.077 103.225C239.649 103.276 240.226 103.276 240.797 103.225L241.733 104.669C242.534 104.564 243.319 104.384 244.074 104.132V102.483C244.598 102.277 245.098 102.031 245.57 101.748L247.223 102.592C247.853 102.157 248.427 101.666 248.936 101.128L247.941 99.7159C248.277 99.3138 248.567 98.8859 248.809 98.4376L250.739 98.4696C251.029 97.8231 251.239 97.1527 251.367 96.4691L249.677 95.6638C249.632 95.4146 249.647 95.1781 249.647 94.9288ZM239.922 98.2139C239.162 98.2139 238.418 98.0213 237.786 97.6603C237.154 97.2993 236.661 96.7863 236.37 96.186C236.079 95.5857 236.003 94.9252 236.151 94.2879C236.3 93.6507 236.666 93.0653 237.203 92.6059C237.741 92.1464 238.426 91.8336 239.172 91.7068C239.918 91.5801 240.691 91.6451 241.394 91.8938C242.096 92.1424 242.697 92.5635 243.119 93.1037C243.542 93.6439 243.767 94.2791 243.767 94.9288C243.767 95.3618 243.667 95.7906 243.472 96.1904C243.278 96.5902 242.993 96.9533 242.633 97.2586C242.274 97.5639 241.847 97.8054 241.378 97.9694C240.909 98.1334 240.407 98.2165 239.9 98.2139H239.922Z" fill="#407BFF"/>
<path opacity="0.7" d="M249.647 94.9288C249.647 94.6796 249.647 94.4367 249.61 94.1938L251.3 93.3949C251.173 92.7091 250.962 92.0365 250.672 91.388L248.742 91.42C248.498 90.9725 248.208 90.5447 247.874 90.1417L248.869 88.7293C248.359 88.1916 247.785 87.701 247.156 87.2656L245.503 88.1093C245.029 87.8287 244.529 87.5828 244.007 87.3743V85.7253C243.251 85.4763 242.466 85.2963 241.665 85.1885L240.73 86.6329C240.446 86.6329 240.162 86.6329 239.87 86.6329C239.578 86.6329 239.294 86.6329 239.01 86.6329L238.097 85.1885C237.297 85.2979 236.512 85.4779 235.756 85.7253V87.3743C235.233 87.5825 234.733 87.8284 234.26 88.1093L232.644 87.2656C232.012 87.7009 231.435 88.1915 230.923 88.7293L231.918 90.1417C231.587 90.5448 231.299 90.9727 231.058 91.42L229.128 91.388C228.834 92.0356 228.623 92.7085 228.5 93.3949L230.19 94.1938C230.13 94.6825 230.13 95.1751 230.19 95.6638L228.5 96.4691C228.624 97.1533 228.835 97.824 229.128 98.4696L231.058 98.4376C231.297 98.8857 231.585 99.3137 231.918 99.7159L230.923 101.128C231.435 101.666 232.012 102.157 232.644 102.592L234.297 101.748C234.768 102.032 235.269 102.278 235.793 102.483V104.132C236.549 104.383 237.334 104.563 238.134 104.669L239.077 103.225C239.649 103.276 240.226 103.276 240.797 103.225L241.733 104.669C242.534 104.564 243.319 104.384 244.074 104.132V102.483C244.598 102.277 245.098 102.031 245.57 101.748L247.223 102.592C247.853 102.157 248.427 101.666 248.936 101.128L247.941 99.7159C248.277 99.3138 248.567 98.8859 248.809 98.4376L250.739 98.4696C251.029 97.8231 251.239 97.1527 251.367 96.4691L249.677 95.6638C249.632 95.4146 249.647 95.1781 249.647 94.9288ZM239.922 98.2139C239.162 98.2139 238.418 98.0213 237.786 97.6603C237.154 97.2993 236.661 96.7863 236.37 96.186C236.079 95.5857 236.003 94.9252 236.151 94.2879C236.3 93.6507 236.666 93.0653 237.203 92.6059C237.741 92.1464 238.426 91.8336 239.172 91.7068C239.918 91.5801 240.691 91.6451 241.394 91.8938C242.096 92.1424 242.697 92.5635 243.119 93.1037C243.542 93.6439 243.767 94.2791 243.767 94.9288C243.767 95.3618 243.667 95.7906 243.472 96.1904C243.278 96.5902 242.993 96.9533 242.633 97.2586C242.274 97.5639 241.847 97.8054 241.378 97.9694C240.909 98.1334 240.407 98.2165 239.9 98.2139H239.922Z" fill="white"/>
<path d="M222.171 57.872V61.2211L218.431 62.902C218.285 62.9687 218.164 63.0678 218.079 63.1887C217.994 63.3097 217.95 63.4481 217.95 63.5891C217.95 63.73 217.994 63.8684 218.079 63.9894C218.164 64.1104 218.285 64.2095 218.431 64.2761L222.171 65.957V69.3061C222.171 69.6637 222.337 70.0068 222.633 70.2597C222.929 70.5126 223.331 70.6546 223.749 70.6546H237.132C237.551 70.6546 237.954 70.5128 238.251 70.26C238.548 70.0073 238.716 69.6643 238.718 69.3061V57.872C238.718 57.5127 238.551 57.1681 238.253 56.914C237.956 56.6598 237.553 56.5171 237.132 56.5171H223.727C223.311 56.5221 222.914 56.6673 222.623 56.9211C222.331 57.1748 222.169 57.5166 222.171 57.872V57.872Z" fill="#407BFF"/>
<g opacity="0.9">
<path opacity="0.9" d="M226.75 61.3617H234.357C234.605 61.3617 234.843 61.2776 235.018 61.1277C235.194 60.9779 235.292 60.7747 235.292 60.5628C235.292 60.3509 235.194 60.1477 235.018 59.9979C234.843 59.8481 234.605 59.7639 234.357 59.7639H226.75C226.502 59.7639 226.264 59.8481 226.088 59.9979C225.913 60.1477 225.814 60.3509 225.814 60.5628C225.814 60.7747 225.913 60.9779 226.088 61.1277C226.264 61.2776 226.502 61.3617 226.75 61.3617V61.3617Z" fill="white"/>
<path opacity="0.9" d="M234.357 62.8188H226.75C226.502 62.8188 226.264 62.903 226.088 63.0528C225.913 63.2027 225.814 63.4059 225.814 63.6178C225.814 63.8296 225.913 64.0328 226.088 64.1827C226.264 64.3325 226.502 64.4167 226.75 64.4167H234.357C234.605 64.4167 234.843 64.3325 235.018 64.1827C235.194 64.0328 235.292 63.8296 235.292 63.6178C235.292 63.4059 235.194 63.2027 235.018 63.0528C234.843 62.903 234.605 62.8188 234.357 62.8188Z" fill="white"/>
<path opacity="0.9" d="M234.357 65.8164H226.75C226.502 65.8164 226.264 65.9006 226.088 66.0504C225.913 66.2002 225.814 66.4034 225.814 66.6153C225.814 66.8272 225.913 67.0304 226.088 67.1802C226.264 67.3301 226.502 67.4142 226.75 67.4142H234.357C234.605 67.4142 234.843 67.3301 235.018 67.1802C235.194 67.0304 235.292 66.8272 235.292 66.6153C235.292 66.4034 235.194 66.2002 235.018 66.0504C234.843 65.9006 234.605 65.8164 234.357 65.8164Z" fill="white"/>
</g>
<path d="M146.543 52.593H149.737L151.383 55.2581C151.492 55.4319 151.653 55.5772 151.851 55.6785C152.049 55.7798 152.275 55.8334 152.505 55.8334C152.736 55.8334 152.962 55.7798 153.16 55.6785C153.357 55.5772 153.519 55.4319 153.627 55.2581L155.273 52.593H158.467C158.77 52.593 159.071 52.5418 159.351 52.4425C159.631 52.3432 159.885 52.1976 160.099 52.0141C160.313 51.8307 160.483 51.6129 160.598 51.3733C160.713 51.1338 160.772 50.8771 160.771 50.618V40.4495C160.771 39.9274 160.528 39.4267 160.096 39.0575C159.664 38.6884 159.078 38.481 158.467 38.481H146.543C146.24 38.4801 145.94 38.5305 145.66 38.6291C145.38 38.7277 145.126 38.8727 144.912 39.0557C144.698 39.2386 144.528 39.456 144.413 39.6952C144.297 39.9344 144.238 40.1907 144.239 40.4495V50.6756C144.255 51.1887 144.504 51.6764 144.935 52.0346C145.365 52.3928 145.942 52.5931 146.543 52.593Z" fill="#407BFF"/>
<path opacity="0.9" d="M152.513 41.5295L148.833 43.3702V48.7517H151.57V45.1406H153.463V48.7517H156.201V43.3702L152.513 41.5295Z" fill="white"/>
<path d="M182.375 198.82H179.532L177.7 195.841C177.609 195.697 177.474 195.577 177.309 195.493C177.144 195.409 176.956 195.364 176.764 195.364C176.573 195.364 176.385 195.409 176.22 195.493C176.055 195.577 175.92 195.697 175.829 195.841L173.997 198.82H171.079C170.383 198.82 169.715 199.056 169.223 199.477C168.73 199.897 168.454 200.468 168.454 201.063V210.714C168.454 211.309 168.73 211.879 169.223 212.3C169.715 212.721 170.383 212.957 171.079 212.957H182.375C183.071 212.957 183.739 212.721 184.231 212.3C184.724 211.879 185 211.309 185 210.714V201.063C185 200.468 184.724 199.897 184.231 199.477C183.739 199.056 183.071 198.82 182.375 198.82Z" fill="#407BFF"/>
<path opacity="0.9" d="M178.328 202.507C177.78 202.038 177.086 201.713 176.329 201.568C175.571 201.424 174.782 201.467 174.052 201.692C173.322 201.917 172.682 202.316 172.208 202.84C171.733 203.365 171.443 203.994 171.372 204.654C171.301 205.314 171.451 205.978 171.806 206.568C172.16 207.158 172.704 207.649 173.373 207.985C174.043 208.32 174.81 208.485 175.586 208.462C176.361 208.438 177.113 208.226 177.752 207.851C177.783 208.009 177.869 208.156 177.999 208.272L180.542 210.439C180.714 210.586 180.947 210.668 181.189 210.668C181.432 210.668 181.665 210.586 181.837 210.439C182.008 210.292 182.105 210.093 182.105 209.886C182.105 209.679 182.008 209.48 181.837 209.333L179.301 207.167C179.164 207.051 178.989 206.975 178.799 206.949C179.337 206.277 179.584 205.467 179.498 204.656C179.412 203.845 178.999 203.086 178.328 202.507V202.507ZM177.46 206.706C177.06 207.048 176.549 207.281 175.993 207.375C175.438 207.47 174.862 207.421 174.339 207.236C173.815 207.05 173.368 206.737 173.053 206.334C172.739 205.932 172.571 205.458 172.571 204.974C172.571 204.49 172.739 204.017 173.053 203.615C173.368 203.212 173.815 202.899 174.339 202.713C174.862 202.528 175.438 202.479 175.993 202.573C176.549 202.668 177.06 202.9 177.46 203.242C177.727 203.47 177.938 203.74 178.082 204.037C178.227 204.334 178.301 204.653 178.301 204.974C178.301 205.296 178.227 205.615 178.082 205.912C177.938 206.209 177.727 206.479 177.46 206.706Z" fill="white"/>
<path d="M303.178 134.549C303.178 134.549 297.081 147.459 291.112 148.852C285.142 150.246 276.151 149.114 276.151 149.114L273.368 149.754L270.638 149.408H270.54L267.466 149.345C267.355 149.352 267.244 149.333 267.145 149.289C267.047 149.244 266.965 149.177 266.91 149.094C266.855 149.012 266.829 148.917 266.835 148.822C266.84 148.727 266.878 148.636 266.942 148.558L268.042 147.28C268.134 147.175 268.262 147.097 268.408 147.056L271.341 146.251C271.457 146.229 271.577 146.229 271.692 146.251L276.181 146.858C276.181 146.858 288.636 145.113 289.907 144.129C291.179 143.145 294.927 132.823 294.927 132.823L303.178 134.549Z" fill="#EEC1BB"/>
<path opacity="0.1" d="M276.457 146.775L276.166 146.814L271.677 146.206C271.562 146.184 271.441 146.184 271.326 146.206L268.393 147.012C268.247 147.052 268.119 147.13 268.027 147.235L266.927 148.514C266.863 148.591 266.825 148.683 266.82 148.778C266.814 148.873 266.84 148.967 266.895 149.05C266.95 149.132 267.032 149.2 267.13 149.244C267.229 149.288 267.34 149.308 267.451 149.3L270.525 149.364H270.623L272.455 149.594C274.018 148.921 275.386 147.958 276.457 146.775Z" fill="black"/>
<path d="M306.858 121.76C302.43 120.52 296.198 123.364 293.812 135.277L303.006 137.597C303.006 137.597 313.187 123.536 306.858 121.76Z" fill="#407BFF"/>
<path d="M281.095 106.19C281.095 106.587 281.342 106.9 281.641 106.9C281.941 106.9 282.202 106.561 282.18 106.178C282.157 105.794 281.933 105.475 281.634 105.481C281.335 105.487 281.095 105.801 281.095 106.19Z" fill="#263238"/>
<path d="M282.905 106.58L280.729 109.655C280.729 109.655 281.477 110.383 283.115 109.846L282.905 106.58Z" fill="#D4827D"/>
<path d="M283.317 103.724C283.29 103.749 283.256 103.769 283.218 103.78C283.18 103.791 283.14 103.794 283.1 103.787C282.806 103.744 282.503 103.762 282.218 103.839C281.933 103.915 281.674 104.049 281.462 104.228C281.416 104.265 281.356 104.285 281.293 104.285C281.231 104.285 281.171 104.265 281.125 104.228C281.082 104.188 281.058 104.136 281.058 104.081C281.058 104.027 281.082 103.975 281.125 103.934C281.389 103.703 281.715 103.531 282.075 103.432C282.435 103.333 282.817 103.31 283.19 103.366C283.221 103.369 283.252 103.377 283.279 103.391C283.307 103.404 283.331 103.422 283.351 103.443C283.37 103.465 283.385 103.489 283.393 103.515C283.401 103.542 283.403 103.569 283.399 103.596V103.596C283.388 103.645 283.359 103.689 283.317 103.724V103.724Z" fill="#263238"/>
<path d="M298.697 103.404C299.033 108.6 299.31 110.799 296.625 113.751C292.338 116.915 285.037 117.42 282.883 112.416C280.946 107.942 280.721 100.189 286.346 97.511C287.301 97.0567 288.35 96.7676 289.435 96.6602C290.52 96.5528 291.62 96.6292 292.67 96.885C293.721 97.1409 294.702 97.5712 295.557 98.1512C296.413 98.7313 297.127 99.4498 297.657 100.266C298.279 101.23 298.635 102.304 298.697 103.404V103.404Z" fill="#EEC1BB"/>
<path d="M290.222 114.774L291.763 122.475L299.273 120.993L296.647 113.131L290.222 114.774Z" fill="#EEC1BB"/>
<path d="M284.813 103.787C285.194 100.413 283.833 104.311 282.008 99.8567C280.183 95.402 288.808 91.7845 290.184 92.6154C291.56 93.4462 290.775 94.7181 295.338 95.4403C296.583 95.6092 297.713 96.1599 298.517 96.9892C299.321 97.8185 299.744 98.8697 299.707 99.9462C299.707 99.9462 302.332 100.982 301.397 105.801C300.711 108.888 299.172 111.792 296.909 114.269C296.909 114.269 295.181 112.748 292.421 114.148C291.343 113.547 290.432 112.753 289.75 111.821C288.523 110.249 288.142 108.753 286.459 108.626C282.943 108.351 284.686 104.899 284.813 103.787Z" fill="#263238"/>
<path d="M299.221 100.528C299.221 100.528 302.961 98.572 301.3 96.5204C299.64 94.4688 300.44 98.7829 299.221 100.528Z" fill="#263238"/>
<path d="M285.883 105.749C285.053 106.542 284.626 107.583 284.694 108.645C284.798 110.051 286.414 110.3 287.686 109.533C288.957 108.766 290.162 107.271 289.429 106.037C289.266 105.768 289.027 105.538 288.733 105.368C288.44 105.199 288.101 105.095 287.748 105.066C287.395 105.038 287.039 105.085 286.713 105.205C286.387 105.324 286.102 105.511 285.883 105.749V105.749Z" fill="#FFC3BD"/>
<path opacity="0.1" d="M290.364 115.503L290.977 118.558C290.923 117.801 291.045 117.043 291.335 116.327C291.625 115.61 292.078 114.95 292.668 114.384C292.21 114.409 291.764 114.523 291.365 114.717C290.966 114.91 290.624 115.179 290.364 115.503V115.503Z" fill="black"/>
<path d="M237.559 135.367H235.412V146.187H237.559V135.367Z" fill="#407BFF"/>
<path opacity="0.7" d="M237.559 135.367H235.412V146.187H237.559V135.367Z" fill="white"/>
<path d="M222.807 113.879H217.459C216.496 113.879 215.574 114.206 214.893 114.787C214.213 115.368 213.831 116.157 213.831 116.979V138.153C213.831 138.56 213.924 138.963 214.107 139.34C214.289 139.716 214.556 140.057 214.893 140.345C215.23 140.633 215.63 140.861 216.07 141.017C216.51 141.173 216.982 141.253 217.459 141.253H222.807V113.879Z" fill="#407BFF"/>
<path d="M255.519 113.879H219.329C217.325 113.879 215.701 115.267 215.701 116.979V138.147C215.701 139.859 217.325 141.247 219.329 141.247H255.519C257.523 141.247 259.147 139.859 259.147 138.147V116.979C259.147 115.267 257.523 113.879 255.519 113.879Z" fill="#407BFF"/>
<path opacity="0.5" d="M255.519 113.879H219.329C217.325 113.879 215.701 115.267 215.701 116.979V138.147C215.701 139.859 217.325 141.247 219.329 141.247H255.519C257.523 141.247 259.147 139.859 259.147 138.147V116.979C259.147 115.267 257.523 113.879 255.519 113.879Z" fill="white"/>
<path d="M255.519 115.157H219.329C218.151 115.157 217.197 115.973 217.197 116.979V138.147C217.197 139.153 218.151 139.968 219.329 139.968H255.519C256.697 139.968 257.651 139.153 257.651 138.147V116.979C257.651 115.973 256.697 115.157 255.519 115.157Z" fill="#263238"/>
<path d="M228.672 150.725C228.735 148.99 229.585 147.345 231.044 146.136C232.502 144.928 234.454 144.253 236.485 144.253C238.517 144.253 240.468 144.928 241.927 146.136C243.385 147.345 244.236 148.99 244.299 150.725H228.672Z" fill="#407BFF"/>
<path d="M247.111 148.45H231.484V150.616H262.738V149.728L247.111 148.45Z" fill="#407BFF"/>
<path opacity="0.8" d="M247.111 148.45H231.484V150.616H262.738V149.728L247.111 148.45Z" fill="white"/>
<path d="M247.111 150.616H231.484V148.45L247.111 149.728V150.616Z" fill="#407BFF"/>
<path opacity="0.6" d="M247.111 150.616H231.484V148.45L247.111 149.728V150.616Z" fill="white"/>
<path d="M281.566 225.209H249.333C248.69 225.21 248.053 225.103 247.458 224.893C246.864 224.683 246.324 224.375 245.869 223.987C245.414 223.599 245.053 223.138 244.806 222.63C244.56 222.123 244.433 221.579 244.433 221.029V157.704C244.433 157.155 244.56 156.611 244.806 156.103C245.053 155.596 245.414 155.135 245.869 154.746C246.324 154.358 246.864 154.05 247.458 153.841C248.053 153.631 248.69 153.524 249.333 153.524H281.566C281.914 153.524 282.247 153.642 282.492 153.852C282.738 154.062 282.875 154.346 282.875 154.643C282.875 154.94 282.738 155.224 282.492 155.434C282.247 155.644 281.914 155.761 281.566 155.761H249.333C249.035 155.757 248.739 155.804 248.463 155.898C248.186 155.992 247.934 156.133 247.722 156.312C247.509 156.49 247.341 156.703 247.226 156.938C247.11 157.172 247.051 157.424 247.051 157.679V221.004C247.051 221.258 247.11 221.51 247.226 221.745C247.341 221.98 247.509 222.192 247.722 222.371C247.934 222.549 248.186 222.69 248.463 222.784C248.739 222.879 249.035 222.925 249.333 222.921H281.566C281.914 222.921 282.247 223.039 282.492 223.249C282.738 223.458 282.875 223.743 282.875 224.04C282.884 224.191 282.856 224.342 282.794 224.483C282.731 224.625 282.636 224.754 282.514 224.864C282.391 224.973 282.244 225.06 282.082 225.119C281.919 225.179 281.743 225.209 281.566 225.209V225.209Z" fill="#263238"/>
<g opacity="0.5">
<path opacity="0.5" d="M281.566 225.209H249.333C248.69 225.21 248.053 225.103 247.458 224.893C246.864 224.683 246.324 224.375 245.869 223.987C245.414 223.599 245.053 223.138 244.806 222.63C244.56 222.123 244.433 221.579 244.433 221.029V157.704C244.433 157.155 244.56 156.611 244.806 156.103C245.053 155.596 245.414 155.135 245.869 154.746C246.324 154.358 246.864 154.05 247.458 153.841C248.053 153.631 248.69 153.524 249.333 153.524H281.566C281.914 153.524 282.247 153.642 282.492 153.852C282.738 154.062 282.875 154.346 282.875 154.643C282.875 154.94 282.738 155.224 282.492 155.434C282.247 155.644 281.914 155.761 281.566 155.761H249.333C249.035 155.757 248.739 155.804 248.463 155.898C248.186 155.992 247.934 156.133 247.722 156.312C247.509 156.49 247.341 156.703 247.226 156.938C247.11 157.172 247.051 157.424 247.051 157.679V221.004C247.051 221.258 247.11 221.51 247.226 221.745C247.341 221.98 247.509 222.192 247.722 222.371C247.934 222.549 248.186 222.69 248.463 222.784C248.739 222.879 249.035 222.925 249.333 222.921H281.566C281.914 222.921 282.247 223.039 282.492 223.249C282.738 223.458 282.875 223.743 282.875 224.04C282.884 224.191 282.856 224.342 282.794 224.483C282.731 224.625 282.636 224.754 282.514 224.864C282.391 224.973 282.244 225.06 282.082 225.119C281.919 225.179 281.743 225.209 281.566 225.209V225.209Z" fill="white"/>
</g>
<path d="M249.206 150.616H203.433V153.895H249.206V150.616Z" fill="#407BFF"/>
<path opacity="0.2" d="M249.206 150.616H203.433V153.895H249.206V150.616Z" fill="white"/>
<path d="M286.152 150.616H247.111V153.895H286.152V150.616Z" fill="#407BFF"/>
<path opacity="0.5" d="M286.152 150.616H247.111V153.895H286.152V150.616Z" fill="white"/>
<path d="M272.463 201.977L274.625 220.652H269.448L264.264 202.463L272.463 201.977Z" fill="#EEC1BB"/>
<path d="M268.962 219.406L275.567 219.502C275.688 219.504 275.804 219.542 275.896 219.608C275.989 219.674 276.052 219.765 276.076 219.866L277.183 224.474C277.23 224.67 277.185 224.873 277.057 225.041C276.93 225.208 276.731 225.326 276.502 225.369H276.315C273.929 225.299 271.827 225.158 268.835 225.113C265.341 225.062 266.217 225.433 262.102 225.427C259.626 225.427 259.222 223.004 260.27 222.902C265.095 222.455 265.618 221.221 267.503 219.777C267.92 219.505 268.439 219.373 268.962 219.406V219.406Z" fill="#263238"/>
<path opacity="0.1" d="M274.064 215.776L272.463 201.977L264.264 202.463L268.057 215.776H274.064Z" fill="black"/>
<path d="M307.906 158.919L286.676 159.558C286.676 159.558 258.078 168.103 257.33 174.667C256.507 181.429 266.112 212.497 266.112 212.497H274.647C274.647 212.497 272.291 189.699 271.393 182.72C270.495 175.741 301.158 178.048 306.484 172.098C311.354 166.639 307.906 158.919 307.906 158.919Z" fill="#263238"/>
<path opacity="0.2" d="M307.906 158.919L286.676 159.558C286.676 159.558 258.078 168.103 257.33 174.667C256.507 181.429 266.112 212.497 266.112 212.497H274.647C274.647 212.497 272.291 189.699 271.393 182.72C270.495 175.741 301.158 178.048 306.484 172.098C311.354 166.639 307.906 158.919 307.906 158.919Z" fill="black"/>
<path d="M276.068 211.474L276.255 214.05H265.708L264.675 211.474H276.068Z" fill="#407BFF"/>
<path d="M252.707 202.865L253.275 220.652H248.188L245.174 202.865H252.707Z" fill="#EEC1BB"/>
<path d="M247.485 219.406L254.091 219.502C254.211 219.504 254.327 219.542 254.42 219.608C254.512 219.674 254.576 219.765 254.599 219.866L255.706 224.474C255.753 224.67 255.708 224.873 255.581 225.041C255.453 225.208 255.254 225.326 255.026 225.369H254.839C252.452 225.299 250.35 225.158 247.358 225.113C243.857 225.062 244.74 225.433 240.626 225.427C238.15 225.427 237.746 223.004 238.793 222.902C243.618 222.455 244.142 221.221 246.027 219.777C246.443 219.504 246.962 219.371 247.485 219.406V219.406Z" fill="#263238"/>
<path opacity="0.1" d="M253.118 215.763L252.707 202.865H245.174L247.366 215.776C249.004 215.782 251.255 215.769 253.118 215.763Z" fill="black"/>
<path d="M298.674 160.421C298.674 160.421 300.44 174.213 284.02 174.859C267.6 175.504 254.779 177.108 254.405 182.1C254.031 187.092 254.405 212.523 254.405 212.523H245.481C245.481 212.523 242.01 196.442 240.656 186.472C239.339 176.789 236.915 169.765 248.563 166.486C260.928 162.996 282.906 159.775 282.906 159.775L298.734 158.919L298.674 160.421Z" fill="#263238"/>
<path d="M255.721 211.474L255.16 214.05H245.361L244.329 211.474H255.721Z" fill="#407BFF"/>
<path d="M302.213 120.852C302.213 120.852 302.213 117.746 294.859 118.104C287.05 118.487 288.523 121.466 288.523 121.466L302.213 120.852Z" fill="#407BFF"/>
<path opacity="0.3" d="M302.213 120.852C302.213 120.852 302.213 117.746 294.859 118.104C287.05 118.487 288.523 121.466 288.523 121.466L302.213 120.852Z" fill="black"/>
<path d="M309.065 134.785C308.571 140.927 308.743 159.404 308.743 159.404C308.743 159.404 293.034 160.286 280.706 159.941L279.277 124.399C279.283 123.771 279.51 123.158 279.929 122.642C280.348 122.126 280.939 121.729 281.626 121.504C285.112 120.347 293.296 119.037 306.095 120.475C310.508 120.98 309.648 127.525 309.065 134.785Z" fill="#407BFF"/>
<path d="M281.799 134.549C281.799 134.549 275.694 147.459 269.732 148.852C263.77 150.246 254.771 149.114 254.771 149.114L251.989 149.754L249.266 149.408H249.169L246.087 149.345C245.976 149.352 245.864 149.333 245.766 149.289C245.668 149.244 245.586 149.177 245.531 149.094C245.476 149.012 245.45 148.917 245.455 148.822C245.461 148.727 245.498 148.636 245.563 148.558L246.67 147.28C246.762 147.175 246.89 147.097 247.037 147.056L249.961 146.251C250.08 146.229 250.202 146.229 250.321 146.251L254.809 146.858C254.809 146.858 267.264 145.113 268.528 144.129C269.792 143.145 273.555 132.823 273.555 132.823L281.799 134.549Z" fill="#EEC1BB"/>
<path opacity="0.1" d="M281.642 128.541C281.642 128.541 280.692 129.506 279.54 130.899L279.951 141.189C284.537 139.457 286.354 129.372 286.354 129.372L283.362 127.569L281.642 128.541Z" fill="black"/>
<path d="M285.479 121.76C281.05 120.52 274.812 123.364 272.425 135.277L281.626 137.572C281.626 137.572 291.807 123.536 285.479 121.76Z" fill="#407BFF"/>
<path d="M291.336 181.55H284.417V198.877H291.336V181.55Z" fill="#263238"/>
<path opacity="0.6" d="M291.336 181.55H284.417V198.877H291.336V181.55Z" fill="white"/>
<path d="M292.406 214.574V192.562H283.339V214.574L262.701 217.022V219.47L287.873 217.636L313.045 219.47V217.022L292.406 214.574Z" fill="#263238"/>
<path d="M262.401 225.471C263.909 225.471 265.132 224.427 265.132 223.138C265.132 221.85 263.909 220.806 262.401 220.806C260.893 220.806 259.671 221.85 259.671 223.138C259.671 224.427 260.893 225.471 262.401 225.471Z" fill="#407BFF"/>
<path d="M313.044 225.471C314.552 225.471 315.775 224.427 315.775 223.138C315.775 221.85 314.552 220.806 313.044 220.806C311.536 220.806 310.314 221.85 310.314 223.138C310.314 224.427 311.536 225.471 313.044 225.471Z" fill="#407BFF"/>
<path d="M287.872 225.471C289.38 225.471 290.603 224.427 290.603 223.138C290.603 221.85 289.38 220.806 287.872 220.806C286.365 220.806 285.142 221.85 285.142 223.138C285.142 224.427 286.365 225.471 287.872 225.471Z" fill="#407BFF"/>
<path opacity="0.3" d="M291.336 181.55H284.417V185.832H291.336V181.55Z" fill="black"/>
<path d="M315.229 142.276H292.683C290.91 142.277 289.202 142.843 287.892 143.863C286.582 144.883 285.764 146.284 285.598 147.792L283.698 165.195C283.488 167.113 282.476 168.902 280.848 170.235C279.221 171.568 277.086 172.357 274.834 172.456L253.073 173.389C251.8 173.444 250.6 173.916 249.722 174.706C248.843 175.495 248.353 176.543 248.353 177.633V178.022C248.353 178.956 248.787 179.852 249.56 180.513C250.333 181.173 251.382 181.544 252.475 181.544H318.745L322.313 148.948C322.409 148.104 322.297 147.252 321.985 146.447C321.672 145.641 321.166 144.901 320.499 144.272C319.832 143.644 319.019 143.142 318.111 142.798C317.203 142.454 316.222 142.276 315.229 142.276V142.276Z" fill="#407BFF"/>
<path opacity="0.3" d="M315.229 142.276H292.683C290.91 142.277 289.202 142.843 287.892 143.863C286.582 144.883 285.764 146.284 285.598 147.792L283.698 165.195C283.488 167.113 282.476 168.902 280.848 170.235C279.221 171.568 277.086 172.357 274.834 172.456L253.073 173.389C251.8 173.444 250.6 173.916 249.722 174.706C248.843 175.495 248.353 176.543 248.353 177.633V178.022C248.353 178.956 248.787 179.852 249.56 180.513C250.333 181.173 251.382 181.544 252.475 181.544H318.745L322.313 148.948C322.409 148.104 322.297 147.252 321.985 146.447C321.672 145.641 321.166 144.901 320.499 144.272C319.832 143.644 319.019 143.142 318.111 142.798C317.203 142.454 316.222 142.276 315.229 142.276V142.276Z" fill="white"/>
<path d="M263.479 161.884H266.583V175.76C266.583 176.099 266.425 176.424 266.145 176.664C265.864 176.903 265.484 177.038 265.087 177.038H264.975C264.578 177.038 264.197 176.903 263.917 176.664C263.636 176.424 263.479 176.099 263.479 175.76V161.884Z" fill="#263238"/>
<path opacity="0.2" d="M263.479 161.884H266.583V175.76C266.583 176.099 266.425 176.424 266.145 176.664C265.864 176.903 265.484 177.038 265.087 177.038H264.975C264.578 177.038 264.197 176.903 263.917 176.664C263.636 176.424 263.479 176.099 263.479 175.76V161.884Z" fill="white"/>
<path d="M278.447 157.903H271.542V162.792H278.462C278.85 162.809 279.238 162.758 279.602 162.643C279.967 162.528 280.3 162.351 280.582 162.122C280.863 161.893 281.088 161.618 281.241 161.313C281.394 161.008 281.473 160.679 281.473 160.347C281.473 160.015 281.394 159.687 281.241 159.382C281.088 159.077 280.863 158.801 280.582 158.573C280.3 158.344 279.967 158.167 279.602 158.052C279.238 157.936 278.85 157.886 278.462 157.903H278.447Z" fill="#407BFF"/>
<path opacity="0.5" d="M278.447 157.903H271.542V162.792H278.462C278.85 162.809 279.238 162.758 279.602 162.643C279.967 162.528 280.3 162.351 280.582 162.122C280.863 161.893 281.088 161.618 281.241 161.313C281.394 161.008 281.473 160.679 281.473 160.347C281.473 160.015 281.394 159.687 281.241 159.382C281.088 159.077 280.863 158.801 280.582 158.573C280.3 158.344 279.967 158.167 279.602 158.052C279.238 157.936 278.85 157.886 278.462 157.903H278.447Z" fill="white"/>
<path d="M275.687 157.902H251.502C249.978 157.902 248.742 158.958 248.742 160.261V160.44C248.742 161.742 249.978 162.798 251.502 162.798H275.687C277.211 162.798 278.447 161.742 278.447 160.44V160.261C278.447 158.958 277.211 157.902 275.687 157.902Z" fill="#407BFF"/>
<path opacity="0.3" d="M275.687 157.902H251.502C249.978 157.902 248.742 158.958 248.742 160.261V160.44C248.742 161.742 249.978 162.798 251.502 162.798H275.687C277.211 162.798 278.447 161.742 278.447 160.44V160.261C278.447 158.958 277.211 157.902 275.687 157.902Z" fill="white"/>
<path d="M320.3 181.55H287.154L290.85 147.824C291.015 146.316 291.833 144.915 293.143 143.895C294.453 142.875 296.161 142.309 297.934 142.308H320.48C321.47 142.309 322.449 142.486 323.355 142.828C324.26 143.17 325.072 143.67 325.739 144.296C326.405 144.921 326.912 145.659 327.226 146.461C327.54 147.263 327.656 148.112 327.564 148.955L324.34 178.444C324.235 179.297 323.764 180.086 323.018 180.66C322.272 181.233 321.304 181.55 320.3 181.55Z" fill="#407BFF"/>
<path opacity="0.5" d="M320.3 181.55H287.154L290.85 147.824C291.015 146.316 291.833 144.915 293.143 143.895C294.453 142.875 296.161 142.309 297.934 142.308H320.48C321.47 142.309 322.449 142.486 323.355 142.828C324.26 143.17 325.072 143.67 325.739 144.296C326.405 144.921 326.912 145.659 327.226 146.461C327.54 147.263 327.656 148.112 327.564 148.955L324.34 178.444C324.235 179.297 323.764 180.086 323.018 180.66C322.272 181.233 321.304 181.55 320.3 181.55Z" fill="white"/>
<path d="M242.87 225.209H210.637C209.993 225.21 209.356 225.103 208.762 224.893C208.168 224.683 207.627 224.375 207.172 223.987C206.717 223.599 206.356 223.138 206.11 222.63C205.864 222.123 205.737 221.579 205.737 221.029V157.704C205.737 157.155 205.864 156.611 206.11 156.103C206.356 155.596 206.717 155.135 207.172 154.746C207.627 154.358 208.168 154.05 208.762 153.841C209.356 153.631 209.993 153.524 210.637 153.524H242.87C243.217 153.524 243.55 153.642 243.796 153.852C244.041 154.062 244.179 154.346 244.179 154.643V154.643C244.179 154.94 244.041 155.224 243.796 155.434C243.55 155.644 243.217 155.761 242.87 155.761H210.637C210.339 155.757 210.043 155.804 209.766 155.898C209.49 155.992 209.238 156.133 209.025 156.312C208.813 156.49 208.644 156.703 208.529 156.938C208.414 157.172 208.355 157.424 208.355 157.679V221.004C208.355 221.258 208.414 221.51 208.529 221.745C208.644 221.98 208.813 222.192 209.025 222.371C209.238 222.549 209.49 222.69 209.766 222.784C210.043 222.879 210.339 222.925 210.637 222.921H242.87C243.217 222.921 243.55 223.039 243.796 223.249C244.041 223.458 244.179 223.743 244.179 224.04V224.04C244.187 224.191 244.159 224.342 244.097 224.483C244.035 224.625 243.94 224.754 243.818 224.864C243.695 224.973 243.548 225.06 243.385 225.119C243.222 225.179 243.047 225.209 242.87 225.209V225.209Z" fill="#263238"/>
<g opacity="0.5">
<path opacity="0.5" d="M242.87 225.209H210.637C209.993 225.21 209.356 225.103 208.762 224.893C208.168 224.683 207.627 224.375 207.172 223.987C206.717 223.599 206.356 223.138 206.11 222.63C205.864 222.123 205.737 221.579 205.737 221.029V157.704C205.737 157.155 205.864 156.611 206.11 156.103C206.356 155.596 206.717 155.135 207.172 154.746C207.627 154.358 208.168 154.05 208.762 153.841C209.356 153.631 209.993 153.524 210.637 153.524H242.87C243.217 153.524 243.55 153.642 243.796 153.852C244.041 154.062 244.179 154.346 244.179 154.643V154.643C244.179 154.94 244.041 155.224 243.796 155.434C243.55 155.644 243.217 155.761 242.87 155.761H210.637C210.339 155.757 210.043 155.804 209.766 155.898C209.49 155.992 209.238 156.133 209.025 156.312C208.813 156.49 208.644 156.703 208.529 156.938C208.414 157.172 208.355 157.424 208.355 157.679V221.004C208.355 221.258 208.414 221.51 208.529 221.745C208.644 221.98 208.813 222.192 209.025 222.371C209.238 222.549 209.49 222.69 209.766 222.784C210.043 222.879 210.339 222.925 210.637 222.921H242.87C243.217 222.921 243.55 223.039 243.796 223.249C244.041 223.458 244.179 223.743 244.179 224.04V224.04C244.187 224.191 244.159 224.342 244.097 224.483C244.035 224.625 243.94 224.754 243.818 224.864C243.695 224.973 243.548 225.06 243.385 225.119C243.222 225.179 243.047 225.209 242.87 225.209V225.209Z" fill="white"/>
</g>
<path d="M221.565 120.207L219.321 118.928C219.264 118.897 219.217 118.854 219.184 118.803C219.152 118.753 219.135 118.696 219.135 118.638C219.135 118.58 219.152 118.523 219.184 118.472C219.217 118.421 219.264 118.378 219.321 118.347L221.565 117.069C221.648 117.022 221.748 117.006 221.845 117.022C221.942 117.039 222.027 117.088 222.081 117.158V117.158C222.133 117.228 222.151 117.312 222.132 117.393C222.112 117.474 222.057 117.546 221.977 117.593L220.114 118.647L221.977 119.702C222.057 119.749 222.112 119.82 222.132 119.901C222.151 119.982 222.133 120.066 222.081 120.136C222.022 120.202 221.936 120.246 221.84 120.259C221.744 120.272 221.646 120.253 221.565 120.207Z" fill="white"/>
<path d="M226.533 120.117C226.488 120.047 226.476 119.965 226.5 119.888C226.523 119.811 226.581 119.744 226.66 119.702L228.522 118.647L226.66 117.573C226.579 117.527 226.524 117.455 226.506 117.373C226.488 117.292 226.508 117.207 226.563 117.139V117.139C226.589 117.104 226.623 117.075 226.663 117.051C226.703 117.028 226.748 117.012 226.795 117.004C226.842 116.995 226.891 116.995 226.938 117.003C226.986 117.011 227.031 117.027 227.071 117.049L229.315 118.328C229.372 118.359 229.42 118.402 229.452 118.453C229.485 118.503 229.502 118.56 229.502 118.618C229.502 118.676 229.485 118.733 229.452 118.784C229.42 118.835 229.372 118.878 229.315 118.909L227.071 120.187C227.031 120.214 226.985 120.234 226.935 120.245C226.886 120.256 226.835 120.258 226.784 120.252C226.734 120.245 226.685 120.23 226.642 120.207C226.599 120.183 226.562 120.153 226.533 120.117Z" fill="white"/>
<path d="M223.458 120.98C223.411 120.968 223.368 120.948 223.331 120.921C223.294 120.894 223.263 120.862 223.241 120.825C223.219 120.788 223.205 120.748 223.201 120.706C223.197 120.665 223.203 120.623 223.218 120.584L224.767 116.404C224.78 116.365 224.803 116.328 224.834 116.296C224.864 116.264 224.902 116.238 224.944 116.219C224.987 116.2 225.033 116.189 225.081 116.185C225.129 116.182 225.177 116.187 225.223 116.199V116.199C225.269 116.211 225.312 116.23 225.349 116.256C225.386 116.283 225.417 116.315 225.439 116.351C225.462 116.387 225.475 116.427 225.479 116.468C225.483 116.509 225.477 116.55 225.462 116.589L223.921 120.776C223.907 120.815 223.884 120.852 223.852 120.884C223.821 120.915 223.783 120.942 223.74 120.961C223.697 120.98 223.649 120.991 223.601 120.995C223.553 120.998 223.504 120.993 223.458 120.98V120.98Z" fill="white"/>
<path d="M236.16 124.176H219.501C219.45 124.176 219.4 124.167 219.353 124.15C219.306 124.133 219.264 124.109 219.228 124.078C219.193 124.047 219.165 124.01 219.146 123.97C219.127 123.93 219.118 123.887 219.119 123.843C219.118 123.8 219.127 123.757 219.146 123.717C219.165 123.676 219.193 123.64 219.228 123.609C219.264 123.578 219.306 123.553 219.353 123.536C219.4 123.52 219.45 123.511 219.501 123.511H236.16C236.263 123.511 236.362 123.546 236.435 123.608C236.508 123.671 236.549 123.755 236.549 123.843V123.843C236.549 123.887 236.539 123.93 236.519 123.971C236.5 124.011 236.471 124.047 236.435 124.078C236.399 124.109 236.356 124.134 236.309 124.15C236.261 124.167 236.211 124.176 236.16 124.176V124.176Z" fill="white"/>
<path d="M255.295 124.176H238.628C238.577 124.176 238.527 124.167 238.479 124.15C238.432 124.134 238.389 124.109 238.353 124.078C238.317 124.047 238.288 124.011 238.269 123.97C238.249 123.93 238.239 123.887 238.239 123.843V123.843C238.247 123.76 238.291 123.681 238.363 123.625C238.435 123.568 238.53 123.536 238.628 123.536H255.28C255.383 123.536 255.482 123.571 255.555 123.634C255.628 123.696 255.669 123.781 255.669 123.869V123.869C255.662 123.95 255.619 124.027 255.55 124.083C255.481 124.14 255.39 124.173 255.295 124.176V124.176Z" fill="white"/>
<path d="M229.023 127.103H219.501C219.45 127.103 219.4 127.094 219.353 127.077C219.306 127.061 219.264 127.036 219.228 127.005C219.193 126.974 219.165 126.938 219.146 126.897C219.127 126.857 219.118 126.814 219.119 126.771C219.119 126.684 219.159 126.601 219.231 126.54C219.302 126.479 219.4 126.445 219.501 126.445H229.023C229.125 126.445 229.223 126.479 229.296 126.54C229.369 126.601 229.41 126.684 229.412 126.771V126.771C229.412 126.859 229.371 126.943 229.298 127.006C229.226 127.068 229.127 127.103 229.023 127.103Z" fill="white"/>
<path d="M247.096 127.103H231.499C231.449 127.103 231.398 127.094 231.352 127.077C231.305 127.061 231.262 127.036 231.227 127.005C231.191 126.974 231.163 126.938 231.145 126.897C231.126 126.857 231.117 126.814 231.118 126.771C231.118 126.684 231.158 126.601 231.229 126.54C231.301 126.479 231.398 126.445 231.499 126.445H247.096C247.197 126.445 247.294 126.479 247.366 126.54C247.437 126.601 247.478 126.684 247.478 126.771V126.771C247.479 126.814 247.47 126.857 247.451 126.897C247.432 126.938 247.404 126.974 247.369 127.005C247.333 127.036 247.291 127.061 247.244 127.077C247.197 127.094 247.147 127.103 247.096 127.103Z" fill="white"/>
<path d="M244.875 130.037H219.501C219.399 130.035 219.302 129.999 219.23 129.937C219.159 129.875 219.119 129.791 219.119 129.704V129.704C219.118 129.661 219.127 129.618 219.146 129.577C219.165 129.537 219.193 129.5 219.228 129.47C219.264 129.439 219.306 129.414 219.353 129.397C219.4 129.38 219.45 129.372 219.501 129.372H244.875C244.978 129.372 245.077 129.407 245.15 129.469C245.223 129.532 245.264 129.616 245.264 129.704V129.704C245.264 129.792 245.223 129.877 245.15 129.939C245.077 130.002 244.978 130.037 244.875 130.037V130.037Z" fill="white"/>
<path d="M252.654 130.037H247.358C247.255 130.037 247.156 130.002 247.083 129.939C247.01 129.877 246.969 129.792 246.969 129.704V129.704C246.969 129.616 247.01 129.532 247.083 129.469C247.156 129.407 247.255 129.372 247.358 129.372H252.654C252.758 129.372 252.857 129.407 252.929 129.469C253.002 129.532 253.043 129.616 253.043 129.704V129.704C253.043 129.792 253.002 129.877 252.929 129.939C252.857 130.002 252.758 130.037 252.654 130.037V130.037Z" fill="white"/>
<path d="M231.35 132.964H219.501C219.45 132.964 219.4 132.955 219.353 132.938C219.306 132.921 219.264 132.897 219.228 132.866C219.193 132.835 219.165 132.798 219.146 132.758C219.127 132.718 219.118 132.675 219.119 132.631C219.118 132.588 219.127 132.545 219.146 132.504C219.165 132.464 219.193 132.427 219.228 132.397C219.264 132.366 219.306 132.341 219.353 132.324C219.4 132.307 219.45 132.299 219.501 132.299H231.35C231.453 132.299 231.552 132.334 231.625 132.396C231.698 132.459 231.739 132.543 231.739 132.631V132.631C231.739 132.719 231.698 132.804 231.625 132.866C231.552 132.929 231.453 132.964 231.35 132.964V132.964Z" fill="white"/>
<path d="M248.577 132.964H233.833C233.73 132.964 233.631 132.929 233.558 132.866C233.485 132.804 233.444 132.719 233.444 132.631V132.631C233.444 132.543 233.485 132.459 233.558 132.396C233.631 132.334 233.73 132.299 233.833 132.299H248.577C248.681 132.299 248.78 132.334 248.852 132.396C248.925 132.459 248.966 132.543 248.966 132.631V132.631C248.966 132.719 248.925 132.804 248.852 132.866C248.78 132.929 248.681 132.964 248.577 132.964V132.964Z" fill="white"/>
<path d="M236.16 135.891H219.501C219.45 135.891 219.4 135.882 219.353 135.865C219.306 135.849 219.264 135.824 219.228 135.793C219.193 135.762 219.165 135.725 219.146 135.685C219.127 135.645 219.118 135.602 219.119 135.558C219.119 135.472 219.159 135.389 219.231 135.328C219.302 135.267 219.4 135.232 219.501 135.232H236.16C236.211 135.232 236.261 135.239 236.308 135.255C236.355 135.271 236.398 135.295 236.434 135.326C236.471 135.356 236.499 135.392 236.519 135.432C236.539 135.472 236.549 135.515 236.549 135.558C236.549 135.647 236.508 135.731 236.435 135.793C236.362 135.856 236.263 135.891 236.16 135.891V135.891Z" fill="white"/>
<path d="M250.395 135.891H238.628C238.525 135.891 238.426 135.856 238.353 135.793C238.28 135.731 238.239 135.647 238.239 135.558V135.558C238.239 135.515 238.249 135.472 238.269 135.432C238.289 135.392 238.317 135.356 238.354 135.326C238.39 135.295 238.433 135.271 238.48 135.255C238.527 135.239 238.578 135.232 238.628 135.232H250.38C250.481 135.232 250.578 135.267 250.65 135.328C250.721 135.389 250.762 135.472 250.762 135.558V135.558C250.764 135.644 250.726 135.726 250.658 135.789C250.589 135.851 250.495 135.887 250.395 135.891Z" fill="white"/>
<path d="M105.827 78.6824C106.133 81.6927 105.37 87.1445 102.715 88.9085C107.046 90.2442 111.639 92.5451 114.571 95.581C117.481 91.9635 114.175 89.8991 114.175 89.8991C110.435 88.7614 110.831 86.3391 111.796 84.1086L105.827 78.6824Z" fill="#B97964"/>
<path d="M119.988 76.0875C119.943 76.4646 120.152 76.7905 120.444 76.8161C120.736 76.8417 120.997 76.5477 121.042 76.177C121.087 75.8063 120.878 75.4739 120.586 75.4484C120.294 75.4228 120.04 75.7104 119.988 76.0875Z" fill="#263238"/>
<path d="M120.474 75.4548L121.558 75.2759C121.558 75.2759 120.937 75.9597 120.474 75.4548Z" fill="#263238"/>
<path d="M120.137 76.4902C120.442 77.3892 120.888 78.2491 121.461 79.0468C121.219 79.1666 120.948 79.2401 120.67 79.2622C120.391 79.2842 120.109 79.2543 119.845 79.1746L120.137 76.4902Z" fill="#A24E3F"/>
<path d="M121.244 74.0996C121.313 74.0903 121.377 74.061 121.424 74.0166C121.47 73.974 121.496 73.9181 121.496 73.86C121.496 73.8019 121.47 73.7459 121.424 73.7034C121.116 73.4634 120.746 73.29 120.344 73.1977C119.941 73.1054 119.519 73.0969 119.112 73.1729C119.055 73.2067 119.015 73.2577 118.999 73.3157C118.984 73.3738 118.995 73.4346 119.03 73.4861C119.053 73.5189 119.086 73.5458 119.126 73.5638C119.165 73.5818 119.21 73.5903 119.254 73.5883C119.578 73.5355 119.911 73.5479 120.228 73.6244C120.545 73.701 120.836 73.8396 121.08 74.0293C121.123 74.0686 121.181 74.0934 121.244 74.0996V74.0996Z" fill="#263238"/>
<path d="M105.476 73.6842C105.304 78.3563 105.117 80.344 107.555 82.9516C111.228 86.8695 117.878 86.013 119.659 81.4624C121.259 77.3656 121.274 70.3863 116.24 68.1238C111.206 65.8613 105.633 68.9994 105.476 73.6842Z" fill="#B97964"/>
<path d="M105.715 82.5107C100.336 81.7245 101.877 78.8293 101.877 78.8293C96.5812 77.9153 100.673 75.7039 100.673 75.7039C96.2671 74.0806 100.673 72.6233 100.673 72.6233C96.4241 69.613 102.483 68.5713 102.483 68.5713C100.987 63.8737 106.224 65.8038 106.224 65.8038C109.066 61.7645 111.52 65.6185 111.52 65.6185C116.502 59.8663 117.714 64.7173 117.714 64.7173C122.808 63.5733 120.855 68.1494 120.855 68.1494C125.045 69.1081 121.753 70.9232 121.753 70.9232C123.369 72.6681 117.527 72.9685 117.527 72.9685C117.527 72.9685 120.309 76.8032 117.527 77.8578L110.45 82.4915C110.45 82.4915 107.181 81.3539 105.715 82.5107Z" fill="#263238"/>
<path d="M111.003 78.7399C111.003 78.7399 114.744 71.0704 111.819 64.5257L114.287 63.8035C114.287 63.8035 117.511 73.3201 111.003 78.7399Z" fill="#407BFF"/>
<path d="M114.736 77.8962C115.35 78.9955 115.589 79.4748 116.472 79.8136C116.744 79.9472 117.057 80.0094 117.371 79.9922C117.684 79.9751 117.985 79.8795 118.236 79.7173C118.486 79.5551 118.675 79.3335 118.779 79.0801C118.883 78.8267 118.898 78.5528 118.821 78.2925C118.589 77.1931 117.601 75.5761 116.233 75.5442C115.912 75.5456 115.599 75.6203 115.324 75.7607C115.049 75.9011 114.823 76.102 114.671 76.3423C114.518 76.5826 114.443 76.8536 114.455 77.1269C114.466 77.4003 114.564 77.6659 114.736 77.8962V77.8962Z" fill="#B97964"/>
<path d="M110.869 93.8617C110.869 93.8617 115.933 97.0573 117.99 98.3356L132.644 92.43C132.624 91.7359 132.848 91.0525 133.288 90.4688C133.729 89.8851 134.365 89.4283 135.113 89.1577L136.16 88.787L138.367 87.9433C138.778 87.7864 139.231 87.7251 139.679 87.7655C140.127 87.8059 140.554 87.9466 140.918 88.1734V88.1734C141.345 88.4396 141.666 88.8121 141.836 89.24C142.006 89.6679 142.017 90.1303 141.868 90.5638V90.5638C141.56 91.4625 140.985 92.2777 140.198 92.9296C139.412 93.5816 138.44 94.0481 137.38 94.2835L135.24 94.7628C135.24 94.7628 122.68 102.893 118.192 103.084C113.704 103.276 107.128 99.5116 107.128 99.5116L110.869 93.8617Z" fill="#B97964"/>
<path d="M98.6904 88.4739C102.558 88.4739 106.882 90.5319 113.651 94.3027C112.679 97.0211 110.871 99.4667 108.415 101.384C108.415 101.384 104.675 100.528 99.7077 96.5333C93.7233 91.6951 96.3191 88.4803 98.6904 88.4739Z" fill="#263238"/>
<path d="M172.149 98.0479H135.495C135.187 98.0521 134.881 98.0003 134.598 97.8959C134.314 97.7915 134.06 97.6369 133.852 97.4423C133.645 97.2477 133.487 97.0176 133.391 96.7672C133.295 96.5168 133.263 96.2519 133.296 95.9899L136.056 69.0314C136.122 68.474 136.425 67.9566 136.907 67.5773C137.39 67.1979 138.018 66.9831 138.674 66.9734H175.329C175.637 66.9691 175.942 67.0209 176.225 67.1253C176.508 67.2298 176.761 67.3845 176.969 67.5792C177.176 67.7739 177.333 68.0041 177.428 68.2545C177.523 68.5049 177.554 68.7698 177.52 69.0314L174.76 95.9899C174.694 96.5462 174.393 97.0628 173.912 97.4419C173.431 97.8211 172.804 98.0367 172.149 98.0479V98.0479Z" fill="#407BFF"/>
<path opacity="0.4" d="M172.149 98.0479H135.495C135.187 98.0521 134.881 98.0003 134.598 97.8959C134.314 97.7915 134.06 97.6369 133.852 97.4423C133.645 97.2477 133.487 97.0176 133.391 96.7672C133.295 96.5168 133.263 96.2519 133.296 95.9899L136.056 69.0314C136.122 68.474 136.425 67.9566 136.907 67.5773C137.39 67.1979 138.018 66.9831 138.674 66.9734H175.329C175.637 66.9691 175.942 67.0209 176.225 67.1253C176.508 67.2298 176.761 67.3845 176.969 67.5792C177.176 67.7739 177.333 68.0041 177.428 68.2545C177.523 68.5049 177.554 68.7698 177.52 69.0314L174.76 95.9899C174.694 96.5462 174.393 97.0628 173.912 97.4419C173.431 97.8211 172.804 98.0367 172.149 98.0479V98.0479Z" fill="white"/>
<path opacity="0.7" d="M172.284 96.7698C172.532 96.766 172.769 96.6845 172.951 96.5407C173.133 96.3969 173.247 96.2009 173.271 95.99L176.031 69.0315C176.044 68.9324 176.032 68.8321 175.996 68.7373C175.96 68.6425 175.901 68.5554 175.822 68.4816C175.744 68.4079 175.648 68.3493 175.541 68.3096C175.433 68.27 175.318 68.2503 175.201 68.2518H138.547C138.298 68.2554 138.059 68.3367 137.876 68.4803C137.693 68.624 137.577 68.8201 137.552 69.0315L134.799 95.99C134.786 96.0891 134.798 96.1894 134.834 96.2842C134.87 96.379 134.93 96.4662 135.008 96.5399C135.087 96.6137 135.183 96.6723 135.29 96.7119C135.397 96.7516 135.513 96.7713 135.629 96.7698H172.284Z" fill="white"/>
<path d="M146.813 80.9192L134.844 95.7214V95.9899C134.831 96.089 134.843 96.1892 134.879 96.2841C134.915 96.3789 134.975 96.466 135.053 96.5398C135.132 96.6135 135.228 96.6721 135.335 96.7118C135.442 96.7514 135.557 96.7711 135.674 96.7696H156.44L146.813 80.9192Z" fill="#407BFF"/>
<path opacity="0.3" d="M146.813 80.9192L134.844 95.7214V95.9899C134.831 96.089 134.843 96.1892 134.879 96.2841C134.915 96.3789 134.975 96.466 135.053 96.5398C135.132 96.6135 135.228 96.6721 135.335 96.7118C135.442 96.7514 135.557 96.7711 135.674 96.7696H156.44L146.813 80.9192Z" fill="white"/>
<path d="M173.376 94.961L163.345 78.6824L148.488 96.7697H172.284C172.532 96.766 172.769 96.6845 172.951 96.5407C173.134 96.3969 173.247 96.2009 173.271 95.99L173.376 94.961Z" fill="#407BFF"/>
<path d="M159.47 75.8063C159.378 76.5853 158.955 77.3085 158.281 77.8386C157.607 78.3688 156.728 78.669 155.812 78.6824C155.38 78.6891 154.952 78.6172 154.556 78.4716C154.16 78.326 153.805 78.11 153.514 77.8379C153.223 77.5658 153.003 77.2438 152.869 76.8935C152.735 76.5432 152.69 76.1726 152.737 75.8063C152.827 75.0261 153.249 74.3013 153.924 73.7699C154.598 73.2384 155.478 72.9373 156.395 72.9238C156.827 72.917 157.256 72.9889 157.653 73.1349C158.049 73.2809 158.405 73.4976 158.696 73.7704C158.987 74.0432 159.207 74.3659 159.34 74.717C159.473 75.0681 159.518 75.4394 159.47 75.8063V75.8063Z" fill="#407BFF"/>
<path opacity="0.4" d="M159.47 75.8063C159.378 76.5853 158.955 77.3085 158.281 77.8386C157.607 78.3688 156.728 78.669 155.812 78.6824C155.38 78.6891 154.952 78.6172 154.556 78.4716C154.16 78.326 153.805 78.11 153.514 77.8379C153.223 77.5658 153.003 77.2438 152.869 76.8935C152.735 76.5432 152.69 76.1726 152.737 75.8063C152.827 75.0261 153.249 74.3013 153.924 73.7699C154.598 73.2384 155.478 72.9373 156.395 72.9238C156.827 72.917 157.256 72.9889 157.653 73.1349C158.049 73.2809 158.405 73.4976 158.696 73.7704C158.987 74.0432 159.207 74.3659 159.34 74.717C159.473 75.0681 159.518 75.4394 159.47 75.8063V75.8063Z" fill="white"/>
<path d="M67.9982 206.86L64.2729 216.293L69.9806 218.288L74.4464 209.583L67.9982 206.86Z" fill="#B97964"/>
<path d="M72.0301 218.051C72.0008 218.036 71.977 218.014 71.9612 217.988C71.9453 217.962 71.9381 217.933 71.9403 217.904C71.9445 217.876 71.9591 217.849 71.982 217.829C72.0048 217.808 72.0348 217.794 72.0675 217.789C72.1872 217.789 74.8802 217.252 75.8826 217.789C76.0721 217.888 76.209 218.046 76.2641 218.23C76.306 218.332 76.3098 218.443 76.2749 218.547C76.2401 218.651 76.1684 218.744 76.0696 218.812C75.6881 219.042 74.7979 218.946 73.9825 218.728C73.3102 218.551 72.657 218.324 72.0301 218.051V218.051ZM72.5986 218.006C73.7731 218.454 75.4337 218.882 75.8676 218.601C75.9274 218.562 76.0022 218.498 75.9424 218.3C75.9308 218.242 75.903 218.188 75.8613 218.141C75.8196 218.094 75.7653 218.057 75.703 218.032C75.6148 217.984 75.5191 217.948 75.4188 217.923C74.4811 217.798 73.524 217.826 72.5986 218.006V218.006Z" fill="#407BFF"/>
<path d="M71.9478 218.019C71.9334 217.998 71.9258 217.973 71.9258 217.949C71.9258 217.924 71.9334 217.9 71.9478 217.878C71.9478 217.815 72.6959 216.345 73.7506 215.961C73.9011 215.907 74.0626 215.88 74.2256 215.88C74.3887 215.88 74.5502 215.907 74.7007 215.961C75.1121 216.108 75.1794 216.332 75.142 216.485C75.0522 217.156 73.0325 217.955 72.1498 218.045C72.1394 218.049 72.1278 218.052 72.1161 218.052C72.1044 218.052 72.0929 218.049 72.0825 218.045C72.0593 218.051 72.0348 218.051 72.0113 218.047C71.9877 218.042 71.9659 218.033 71.9478 218.019V218.019ZM74.4837 216.21C74.2906 216.15 74.0784 216.15 73.8853 216.21C73.2194 216.564 72.697 217.084 72.3892 217.7C73.3542 217.501 74.7306 216.824 74.8278 216.421C74.8278 216.383 74.8278 216.281 74.5735 216.191H74.4837V216.21Z" fill="#407BFF"/>
<path d="M71.641 217.086L64.4747 215.169C64.3435 215.134 64.2024 215.139 64.0747 215.182C63.9469 215.225 63.84 215.303 63.7715 215.405L60.6746 220.045C60.6076 220.143 60.564 220.251 60.5462 220.363C60.5284 220.475 60.5368 220.589 60.5709 220.698C60.6049 220.808 60.6641 220.91 60.7448 221C60.8255 221.09 60.9262 221.165 61.0411 221.221C61.1023 221.253 61.1675 221.279 61.2356 221.298C63.8314 221.937 66.1728 222.423 69.3894 223.279C73.1895 224.276 72.0824 224.41 76.5258 225.644C79.2038 226.385 80.6401 223.899 79.518 223.471C74.4986 221.554 74.4462 220.045 73.01 217.917C72.6851 217.509 72.1992 217.214 71.641 217.086V217.086Z" fill="#263238"/>
<path opacity="0.2" d="M66.21 211.385L72.1944 213.967L74.446 209.583L67.9978 206.86L66.21 211.385Z" fill="#263238"/>
<path d="M93.2969 119.606C93.2969 119.606 85.2554 124.853 86.9759 141.291C87.1404 142.813 87.7239 144.404 87.7239 146.142C87.7239 147.299 87.3499 148.111 86.9086 150.712C86.2652 154.496 85.0833 168.608 83.8341 170.442C82.5848 172.276 82.0761 171.95 78.5977 177.012C74.8574 182.458 69.9951 192.006 66.2324 208.189C68.7448 209.704 71.6145 210.732 74.6405 211.199C74.6405 211.199 95.1895 183.512 99.5581 173.203C103.47 163.98 108.131 134.549 108.131 134.549L108.505 121.766L93.2969 119.606Z" fill="#407BFF"/>
<path opacity="0.1" d="M102.094 141.292H96.2742C96.2742 141.292 94.3592 156.937 100.688 169.988C101.346 167.892 102.012 165.38 102.663 162.664L105.183 148.884C104.824 146.558 104.548 144.781 104.503 144.666C104.376 144.302 102.094 141.292 102.094 141.292Z" fill="black"/>
<path d="M101.137 210.656L101.174 220.684L107.794 220.307L108.812 210.656H101.137Z" fill="#B97964"/>
<path d="M108.557 220.135C108.524 220.131 108.493 220.119 108.469 220.099C108.445 220.08 108.429 220.054 108.423 220.026C108.415 219.998 108.418 219.968 108.431 219.942C108.445 219.915 108.468 219.893 108.497 219.879C108.602 219.828 110.944 218.601 112.103 218.818C112.319 218.859 112.509 218.969 112.634 219.125C112.711 219.211 112.756 219.315 112.763 219.423C112.77 219.532 112.738 219.639 112.672 219.732C112.096 220.101 111.384 220.28 110.667 220.237C109.961 220.257 109.255 220.223 108.557 220.135ZM109.081 219.936C110.36 220.032 112.073 219.968 112.395 219.579C112.44 219.527 112.477 219.444 112.35 219.272C112.315 219.222 112.267 219.179 112.21 219.147C112.153 219.114 112.088 219.094 112.021 219.086C111.919 219.073 111.816 219.073 111.714 219.086C110.78 219.22 109.885 219.509 109.081 219.936V219.936Z" fill="#407BFF"/>
<path d="M108.468 220.135C108.442 220.121 108.422 220.102 108.407 220.08C108.393 220.057 108.385 220.032 108.385 220.007C108.385 219.937 108.512 218.345 109.358 217.706C109.478 217.611 109.62 217.539 109.774 217.493C109.929 217.447 110.092 217.428 110.255 217.438C110.704 217.438 110.854 217.655 110.876 217.815C111.048 218.454 109.455 219.79 108.632 220.128C108.61 220.135 108.587 220.135 108.565 220.128C108.534 220.14 108.5 220.142 108.468 220.135V220.135ZM110.158 217.706C109.952 217.71 109.755 217.778 109.605 217.898C109.111 218.419 108.819 219.057 108.767 219.726C109.597 219.272 110.637 218.243 110.577 217.847C110.577 217.808 110.54 217.706 110.248 217.693H110.158V217.706Z" fill="#407BFF"/>
<path d="M107.824 219.336L100.344 219.566C100.207 219.571 100.077 219.616 99.9737 219.692C99.8705 219.769 99.8006 219.873 99.7754 219.988L98.6384 225.241C98.5879 225.464 98.6431 225.695 98.7917 225.883C98.9404 226.071 99.1705 226.201 99.4313 226.245C99.5034 226.251 99.5761 226.251 99.6483 226.245C102.349 226.117 104.742 225.919 108.109 225.823C112.081 225.701 111.101 226.136 115.761 226.053C118.581 225.995 118.978 223.247 117.781 223.151C112.298 222.73 111.669 221.336 109.493 219.732C109.013 219.428 108.419 219.287 107.824 219.336V219.336Z" fill="#263238"/>
<path opacity="0.2" d="M101.159 215.846L108.281 215.718L108.812 210.656H101.137L101.159 215.846Z" fill="#263238"/>
<path d="M97.7781 117.784C97.7781 117.784 89.7515 126.866 95.6985 144.628L102.431 170.57C102.431 170.57 96.0426 182.368 99.4387 213.494C102.73 213.889 106.076 213.824 109.343 213.302C109.343 213.302 116.823 180.432 117.953 169.33C119.202 157.097 118.454 120.226 118.454 120.226L97.7781 117.784Z" fill="#407BFF"/>
<path d="M102.625 88.3461C102.625 88.3461 101.383 83.8083 109.358 85.7896C117.332 87.7709 116.659 91.6504 116.659 91.6504L102.625 88.3461Z" fill="#263238"/>
<path opacity="0.4" d="M102.625 88.3461C102.625 88.3461 101.383 83.8083 109.358 85.7896C117.332 87.7709 116.659 91.6504 116.659 91.6504L102.625 88.3461Z" fill="black"/>
<path d="M122.404 99.697C122.404 101.288 121.656 103.589 120.908 106.165C120.564 107.386 120.25 108.658 120.04 109.949C118.911 116.979 118.544 124.387 118.544 124.387C114.142 125.207 109.589 125.244 105.17 124.495C100.75 123.746 96.5585 122.228 92.856 120.034C92.856 120.034 95.9903 117.765 95.347 102.049C95.0552 94.9674 92.063 86.5501 105.76 87.8731C117.325 88.9916 121.215 92.0594 122.15 96.8592C122.15 96.9168 122.15 96.9807 122.15 97.0446L122.217 97.492C122.33 98.2232 122.393 98.9595 122.404 99.697Z" fill="#263238"/>
<path opacity="0.4" d="M122.404 99.6968C122.404 101.288 121.656 103.589 120.908 106.165C117.781 102.969 114.646 96.9294 114.646 96.9294L117.227 93.6826L121.775 95.4914C121.933 95.9403 122.057 96.3971 122.149 96.8591C122.149 96.9166 122.149 96.9805 122.149 97.0444L122.217 97.4918C122.33 98.223 122.392 98.9593 122.404 99.6968Z" fill="black"/>
<path d="M127.169 96.9231C127.169 96.9231 131.657 100.707 133.43 102.228L148.944 98.2525C149.046 97.5672 149.385 96.9235 149.919 96.4042C150.452 95.8849 151.155 95.5136 151.937 95.3381L153.029 95.0952L155.363 94.5456C155.797 94.445 156.255 94.4435 156.691 94.541C157.127 94.6386 157.525 94.8318 157.846 95.1016V95.1016C158.222 95.4182 158.475 95.8266 158.568 96.2706C158.662 96.7146 158.593 97.1725 158.37 97.5814V97.5814C157.908 98.4309 157.197 99.1639 156.306 99.7093C155.414 100.255 154.373 100.594 153.283 100.694L151.084 100.892C151.084 100.892 137.237 107.354 132.779 106.996C128.321 106.638 122.463 102.055 122.463 102.055L127.169 96.9231Z" fill="#B97964"/>
<path d="M116.023 90.0397C119.853 90.5191 123.765 93.1203 129.839 97.7093C128.4 100.276 126.181 102.466 123.413 104.049C123.413 104.049 119.875 102.726 115.656 98.1439C110.554 92.5962 113.704 89.7457 116.023 90.0397Z" fill="#263238"/>
</svg>
